<svg version="1.1" viewBox="0.0 0.0 1149.3884514435695 1237.6010498687665" fill="none" stroke="none" stroke-linecap="square" stroke-miterlimit="10" xmlns:xlink="http://www.w3.org/1999/xlink" xmlns="http://www.w3.org/2000/svg"><clipPath id="p.0"><path d="m0 0l1149.3884 0l0 1237.6011l-1149.3884 0l0 -1237.6011z" clip-rule="nonzero"/></clipPath><g clip-path="url(#p.0)"><path fill="#000000" fill-opacity="0.0" d="m0 0l1149.3884 0l0 1237.6011l-1149.3884 0z" fill-rule="evenodd"/><path fill="#ffffff" d="m-0.002624672 0.005249344l1149.3859 0l0 1237.6063l-1149.3859 0z" fill-rule="evenodd"/><path fill="#efefef" d="m4.866142 1112.4739l0 0c0 -11.6779785 9.466841 -21.144775 21.14478 -21.144775l1090.12 0c5.60791 0 10.986206 2.2277832 14.951538 6.193115c3.965454 3.965454 6.1932373 9.34375 6.1932373 14.95166l0 84.57654c0 11.6779785 -9.466919 21.144775 -21.144775 21.144775l-1090.12 0c-11.677939 0 -21.14478 -9.466797 -21.14478 -21.144775z" fill-rule="evenodd"/><path stroke="#000000" stroke-width="2.0" stroke-linejoin="round" stroke-linecap="butt" d="m4.866142 1112.4739l0 0c0 -11.6779785 9.466841 -21.144775 21.14478 -21.144775l1090.12 0c5.60791 0 10.986206 2.2277832 14.951538 6.193115c3.965454 3.965454 6.1932373 9.34375 6.1932373 14.95166l0 84.57654c0 11.6779785 -9.466919 21.144775 -21.144775 21.144775l-1090.12 0c-11.677939 0 -21.14478 -9.466797 -21.14478 -21.144775z" fill-rule="evenodd"/><path fill="#000000" d="m532.106 1165.4221l0 -21.0l2.5 0l0 21.0l-2.5 0zm6.685364 0l0 -14.953125l2.375 0l0 2.203125l0.125 0q0.578125 -1.09375 1.90625 -1.875q1.34375 -0.796875 2.9375 -0.796875q2.75 0 4.140625 1.59375q1.390625 1.59375 1.390625 4.234375l0 9.59375l-2.484375 0l0 -9.203125q0 -2.171875 -1.046875 -3.0625q-1.046875 -0.90625 -2.6875 -0.90625q-1.234375 0 -2.171875 0.6875q-0.9375 0.6875 -1.46875 1.78125q-0.515625 1.078125 -0.515625 2.28125l0 8.421875l-2.5 0zm16.453064 6.328125l0 -21.28125l2.375 0l0 2.21875l0.125 0q0.40625 -0.703125 1.15625 -1.3125q0.75 -0.609375 1.734375 -0.984375q1.0 -0.390625 2.203125 -0.390625q2.0625 0 3.671875 1.03125q1.609375 1.015625 2.546875 2.8125q0.9375 1.78125 0.9375 4.09375q0 2.328125 -0.9375 4.125q-0.9375 1.78125 -2.546875 2.8125q-1.609375 1.015625 -3.671875 1.015625q-1.78125 0 -3.140625 -0.8125q-1.34375 -0.828125 -1.953125 -1.859375l-0.125 0l0.125 2.0625l0 6.46875l-2.5 0zm7.34375 -8.109375q1.28125 0 2.40625 -0.6875q1.140625 -0.703125 1.828125 -1.984375q0.6875 -1.296875 0.6875 -3.03125q0 -1.75 -0.6875 -3.03125q-0.6875 -1.28125 -1.828125 -1.96875q-1.125 -0.6875 -2.40625 -0.6875q-1.296875 0 -2.4375 0.6875q-1.125 0.6875 -1.828125 1.96875q-0.703125 1.28125 -0.703125 3.03125q0 1.765625 0.703125 3.046875q0.703125 1.265625 1.828125 1.96875q1.140625 0.6875 2.4375 0.6875zm15.586975 2.25q-2.75 0 -4.140625 -1.609375q-1.390625 -1.609375 -1.390625 -4.40625l0 -9.40625l2.484375 0l0 9.03125q0 2.21875 1.03125 3.1875q1.03125 0.953125 2.546875 0.953125q1.328125 0 2.296875 -0.6875q0.96875 -0.703125 1.484375 -1.78125q0.53125 -1.09375 0.53125 -2.265625l0 -8.4375l2.5 0l0 14.953125l-2.375 0l0 -2.171875l-0.125 0q-0.375 0.703125 -1.125 1.3125q-0.75 0.59375 -1.703125 0.953125q-0.953125 0.375 -2.015625 0.375zm10.162231 -15.421875l8.765625 0l0 2.25l-8.765625 0l0 -2.25zm2.609375 11.015625l0 -15.25l2.484375 0l0 14.640625q0 1.171875 0.484375 1.828125q0.484375 0.640625 1.59375 0.640625q0.5 0 0.90625 -0.140625q0.421875 -0.15625 0.75 -0.359375l0 2.4375q-0.390625 0.171875 -0.84375 0.265625q-0.453125 0.109375 -1.21875 0.109375q-1.875 0 -3.015625 -1.09375q-1.140625 -1.109375 -1.140625 -3.078125zm14.623108 4.40625q-1.671875 0 -2.953125 -0.53125q-1.265625 -0.546875 -2.109375 -1.46875q-0.828125 -0.9375 -1.234375 -2.015625l2.21875 -1.0q0.59375 1.34375 1.703125 2.078125q1.125 0.734375 2.5625 0.734375q1.375 0 2.296875 -0.546875q0.921875 -0.5625 0.921875 -1.65625q0 -0.671875 -0.390625 -1.125q-0.375 -0.453125 -1.109375 -0.765625q-0.734375 -0.328125 -1.78125 -0.59375l-1.828125 -0.46875q-1.046875 -0.296875 -1.984375 -0.8125q-0.9375 -0.53125 -1.515625 -1.359375q-0.5625 -0.84375 -0.5625 -2.046875q0 -1.359375 0.78125 -2.328125q0.796875 -0.96875 2.078125 -1.46875q1.296875 -0.515625 2.765625 -0.515625q1.296875 0 2.421875 0.375q1.125 0.359375 1.96875 1.078125q0.859375 0.71875 1.296875 1.765625l-2.171875 1.0q-0.546875 -1.109375 -1.5 -1.546875q-0.9375 -0.453125 -2.078125 -0.453125q-1.234375 0 -2.140625 0.546875q-0.90625 0.546875 -0.90625 1.484375q0 0.9375 0.75 1.40625q0.75 0.46875 1.828125 0.765625l2.171875 0.546875q2.203125 0.5625 3.3125 1.671875q1.125 1.09375 1.125 2.671875q0 1.40625 -0.796875 2.4375q-0.796875 1.03125 -2.15625 1.59375q-1.34375 0.546875 -2.984375 0.546875z" fill-rule="nonzero"/><path fill="#efefef" d="m407.5168 884.871l0 0c0 -11.6779175 9.466827 -21.144775 21.144775 -21.144775l284.82852 0c5.607971 0 10.986206 2.2277832 14.95166 6.1931763c3.965393 3.965454 6.193115 9.343689 6.193115 14.951599l0 84.5766c0 11.6779785 -9.466797 21.144775 -21.144775 21.144775l-284.82852 0l0 0c-11.677948 0 -21.144775 -9.466797 -21.144775 -21.144775z" fill-rule="evenodd"/><path stroke="#000000" stroke-width="2.0" stroke-linejoin="round" stroke-linecap="butt" d="m407.5168 884.871l0 0c0 -11.6779175 9.466827 -21.144775 21.144775 -21.144775l284.82852 0c5.607971 0 10.986206 2.2277832 14.95166 6.1931763c3.965393 3.965454 6.193115 9.343689 6.193115 14.951599l0 84.5766c0 11.6779785 -9.466797 21.144775 -21.144775 21.144775l-284.82852 0l0 0c-11.677948 0 -21.144775 -9.466797 -21.144775 -21.144775z" fill-rule="evenodd"/><path fill="#000000" d="m507.50473 937.8193l0 -21.0l7.5469055 0q1.609375 0 2.96875 0.71875q1.359375 0.71875 2.1875 2.0q0.84375 1.265625 0.84375 2.9375q0 1.5625 -0.796875 2.703125q-0.78125 1.140625 -2.078125 1.734375l0 0.109375q1.5625 0.5 2.5625 1.796875q1.015625 1.28125 1.015625 3.046875q0 1.765625 -0.875 3.09375q-0.875 1.328125 -2.3125 2.09375q-1.4375 0.765625 -3.109375 0.765625l-7.9531555 0zm1.328125 -9.5625l0 -2.375l6.2187805 0q1.109375 0 1.890625 -0.515625q0.796875 -0.515625 1.21875 -1.265625q0.4375 -0.765625 0.4375 -1.5625q0 -0.796875 -0.421875 -1.546875q-0.40625 -0.765625 -1.171875 -1.28125q-0.75 -0.515625 -1.84375 -0.515625l-5.1562805 0l0 16.25l5.5937805 0q1.125 0 1.9375 -0.53125q0.828125 -0.546875 1.265625 -1.375q0.4375 -0.84375 0.4375 -1.703125q0 -0.875 -0.453125 -1.6875q-0.453125 -0.828125 -1.296875 -1.359375q-0.828125 -0.53125 -2.0 -0.53125l-6.6562805 0zm20.725983 10.03125q-1.671875 0 -2.9375 -0.640625q-1.25 -0.65625 -1.96875 -1.78125q-0.71875 -1.125 -0.71875 -2.5625q0 -1.640625 0.84375 -2.765625q0.859375 -1.140625 2.296875 -1.703125q1.4375 -0.578125 3.15625 -0.578125q1.0 0 1.84375 0.171875q0.859375 0.15625 1.484375 0.375q0.640625 0.21875 0.953125 0.421875l0 -0.90625q0 -1.703125 -1.203125 -2.703125q-1.1875 -1.0 -2.921875 -1.0q-1.234375 0 -2.3125 0.546875q-1.0625 0.546875 -1.6875 1.515625l-1.875 -1.40625q0.59375 -0.890625 1.46875 -1.53125q0.890625 -0.640625 2.015625 -0.984375q1.125 -0.359375 2.390625 -0.359375q3.046875 0 4.765625 1.609375q1.734375 1.609375 1.734375 4.34375l0 9.46875l-2.375 0l0 -2.140625l-0.109375 0q-0.375 0.640625 -1.09375 1.25q-0.703125 0.59375 -1.65625 0.96875q-0.953125 0.390625 -2.09375 0.390625zm0.234375 -2.203125q1.296875 0 2.359375 -0.640625q1.078125 -0.640625 1.71875 -1.71875q0.640625 -1.09375 0.640625 -2.390625q-0.671875 -0.46875 -1.6875 -0.75q-1.0 -0.296875 -2.203125 -0.296875q-2.140625 0 -3.140625 0.875q-1.0 0.875 -1.0 2.171875q0 1.234375 0.9375 2.0q0.9375 0.75 2.375 0.75zm17.192139 2.203125q-2.203125 0 -3.921875 -1.03125q-1.71875 -1.046875 -2.6875 -2.84375q-0.953125 -1.8125 -0.953125 -4.078125q0 -2.28125 0.953125 -4.0625q0.96875 -1.796875 2.6875 -2.828125q1.71875 -1.046875 3.921875 -1.046875q2.515625 0 4.140625 1.15625q1.640625 1.15625 2.3125 2.96875l-2.265625 0.9375q-0.546875 -1.375 -1.65625 -2.09375q-1.09375 -0.71875 -2.65625 -0.71875q-1.3125 0 -2.453125 0.703125q-1.125 0.703125 -1.828125 1.984375q-0.703125 1.28125 -0.703125 3.0q0 1.703125 0.703125 3.0q0.703125 1.28125 1.828125 2.0q1.140625 0.703125 2.453125 0.703125q1.59375 0 2.734375 -0.734375q1.140625 -0.734375 1.703125 -2.09375l2.21875 0.9375q-0.734375 1.734375 -2.375 2.9375q-1.640625 1.203125 -4.15625 1.203125zm9.231934 -0.46875l0 -21.0l2.5 0l0 21.0l-2.5 0zm0.9375 -3.046875l0 -3.203125l8.59375 -8.703125l3.171875 0l0 0.109375l-11.765625 11.796875zm8.953125 3.046875l-5.40625 -8.03125l1.765625 -1.734375l6.625 9.640625l0 0.125l-2.984375 0zm12.513794 0.46875q-1.203125 0 -2.203125 -0.390625q-0.984375 -0.375 -1.734375 -0.984375q-0.75 -0.625 -1.15625 -1.296875l-0.125 0l0 2.203125l-2.375 0l0 -21.0l2.5 0l0 6.1875l-0.125 2.078125l0.125 0q0.40625 -0.703125 1.15625 -1.3125q0.75 -0.609375 1.734375 -0.984375q1.0 -0.390625 2.203125 -0.390625q2.0625 0 3.671875 1.03125q1.609375 1.015625 2.546875 2.8125q0.9375 1.78125 0.9375 4.09375q0 2.328125 -0.9375 4.125q-0.9375 1.78125 -2.546875 2.8125q-1.609375 1.015625 -3.671875 1.015625zm-0.25 -2.25q1.28125 0 2.40625 -0.6875q1.140625 -0.703125 1.828125 -1.984375q0.6875 -1.296875 0.6875 -3.03125q0 -1.75 -0.6875 -3.03125q-0.6875 -1.28125 -1.828125 -1.96875q-1.125 -0.6875 -2.40625 -0.6875q-1.296875 0 -2.4375 0.6875q-1.125 0.6875 -1.828125 1.96875q-0.703125 1.28125 -0.703125 3.03125q0 1.765625 0.703125 3.046875q0.703125 1.265625 1.828125 1.96875q1.140625 0.6875 2.4375 0.6875zm17.202393 2.25q-2.25 0 -3.984375 -1.046875q-1.734375 -1.0625 -2.71875 -2.859375q-0.96875 -1.8125 -0.96875 -4.046875q0 -2.21875 0.96875 -4.015625q0.984375 -1.8125 2.71875 -2.859375q1.734375 -1.0625 3.984375 -1.0625q2.265625 0 3.984375 1.078125q1.734375 1.0625 2.71875 2.875q0.984375 1.796875 0.984375 3.984375q0 2.234375 -0.984375 4.046875q-0.984375 1.796875 -2.71875 2.859375q-1.71875 1.046875 -3.984375 1.046875zm0 -2.25q1.359375 0 2.546875 -0.671875q1.1875 -0.6875 1.921875 -1.953125q0.734375 -1.28125 0.734375 -3.078125q0 -1.78125 -0.734375 -3.046875q-0.734375 -1.28125 -1.921875 -1.953125q-1.1875 -0.6875 -2.546875 -0.6875q-1.34375 0 -2.546875 0.6875q-1.203125 0.671875 -1.9375 1.953125q-0.734375 1.265625 -0.734375 3.046875q0 1.796875 0.734375 3.078125q0.734375 1.265625 1.9375 1.953125q1.203125 0.671875 2.546875 0.671875zm10.295593 1.78125l0 -14.953125l2.375 0l0 2.203125l0.125 0q0.578125 -1.09375 1.90625 -1.875q1.34375 -0.796875 2.9375 -0.796875q2.75 0 4.140625 1.59375q1.390625 1.59375 1.390625 4.234375l0 9.59375l-2.484375 0l0 -9.203125q0 -2.171875 -1.046875 -3.0625q-1.046875 -0.90625 -2.6875 -0.90625q-1.234375 0 -2.171875 0.6875q-0.9375 0.6875 -1.46875 1.78125q-0.515625 1.078125 -0.515625 2.28125l0 8.421875l-2.5 0zm23.109314 0.46875q-2.171875 0 -3.859375 -1.015625q-1.671875 -1.03125 -2.625 -2.8125q-0.953125 -1.796875 -0.953125 -4.09375q0 -2.140625 0.890625 -3.953125q0.890625 -1.828125 2.515625 -2.921875q1.625 -1.09375 3.828125 -1.09375q2.234375 0 3.828125 0.984375q1.59375 0.96875 2.453125 2.703125q0.875 1.734375 0.875 3.96875q0 0.203125 -0.015625 0.40625q-0.015625 0.203125 -0.046875 0.34375l-12.875 0l0 -2.046875l10.296875 0q-0.03125 -0.609375 -0.28125 -1.328125q-0.25 -0.71875 -0.796875 -1.34375q-0.53125 -0.640625 -1.375 -1.03125q-0.828125 -0.40625 -2.0625 -0.40625q-1.46875 0 -2.546875 0.75q-1.0625 0.75 -1.640625 2.046875q-0.5625 1.28125 -0.5625 2.921875q0 1.90625 0.734375 3.171875q0.734375 1.265625 1.890625 1.890625q1.15625 0.609375 2.421875 0.609375q1.640625 0 2.703125 -0.78125q1.078125 -0.78125 1.71875 -1.921875l2.125 1.03125q-0.890625 1.6875 -2.53125 2.8125q-1.640625 1.109375 -4.109375 1.109375z" fill-rule="nonzero"/><path fill="#efefef" d="m201.83073 654.41156l0 0c0 -11.6779785 9.466843 -21.144775 21.14479 -21.144775l284.82855 0c5.60791 0 10.986206 2.2277222 14.951599 6.193115c3.965454 3.965454 6.1931763 9.343689 6.1931763 14.95166l0 84.57654c0 11.6779785 -9.466858 21.144775 -21.144775 21.144775l-284.82855 0l0 0c-11.677948 0 -21.14479 -9.466797 -21.14479 -21.144775z" fill-rule="evenodd"/><path stroke="#000000" stroke-width="2.0" stroke-linejoin="round" stroke-linecap="butt" d="m201.83073 654.41156l0 0c0 -11.6779785 9.466843 -21.144775 21.14479 -21.144775l284.82855 0c5.60791 0 10.986206 2.2277222 14.951599 6.193115c3.965454 3.965454 6.1931763 9.343689 6.1931763 14.95166l0 84.57654c0 11.6779785 -9.466858 21.144775 -21.144775 21.144775l-284.82855 0l0 0c-11.677948 0 -21.14479 -9.466797 -21.14479 -21.144775z" fill-rule="evenodd"/><path fill="#000000" d="m274.78366 690.32855q-2.3125 0 -4.296875 -0.828125q-1.984375 -0.84375 -3.46875 -2.328125q-1.46875 -1.484375 -2.296875 -3.484375q-0.828125 -2.015625 -0.828125 -4.328125q0 -2.34375 0.828125 -4.328125q0.828125 -2.0 2.296875 -3.484375q1.484375 -1.484375 3.46875 -2.3125q1.984375 -0.84375 4.296875 -0.84375q1.609375 0 3.0 0.421875q1.390625 0.40625 2.5625 1.171875q1.1875 0.75 2.125 1.84375l-1.796875 1.71875q-0.796875 -0.96875 -1.6875 -1.578125q-0.890625 -0.609375 -1.9375 -0.90625q-1.03125 -0.296875 -2.265625 -0.296875q-2.265625 0 -4.171875 1.0625q-1.90625 1.046875 -3.046875 2.96875q-1.140625 1.921875 -1.140625 4.5625q0 2.609375 1.140625 4.546875q1.140625 1.9375 3.046875 3.0q1.90625 1.046875 4.171875 1.046875q1.375 0 2.53125 -0.375q1.15625 -0.390625 2.140625 -1.09375q0.984375 -0.703125 1.8125 -1.671875l1.8125 1.765625q-0.90625 1.078125 -2.1875 1.9375q-1.265625 0.84375 -2.8125 1.328125q-1.546875 0.484375 -3.296875 0.484375zm17.676697 0q-2.25 0 -3.984375 -1.046875q-1.734375 -1.0625 -2.71875 -2.859375q-0.96875 -1.8125 -0.96875 -4.046875q0 -2.21875 0.96875 -4.015625q0.984375 -1.8125 2.71875 -2.859375q1.734375 -1.0625 3.984375 -1.0625q2.265625 0 3.984375 1.078125q1.734375 1.0625 2.71875 2.875q0.984375 1.796875 0.984375 3.984375q0 2.234375 -0.984375 4.046875q-0.984375 1.796875 -2.71875 2.859375q-1.71875 1.046875 -3.984375 1.046875zm0 -2.25q1.359375 0 2.546875 -0.671875q1.1875 -0.6875 1.921875 -1.953125q0.734375 -1.28125 0.734375 -3.078125q0 -1.78125 -0.734375 -3.046875q-0.734375 -1.28125 -1.921875 -1.953125q-1.1875 -0.6875 -2.546875 -0.6875q-1.34375 0 -2.546875 0.6875q-1.203125 0.671875 -1.9375 1.953125q-0.734375 1.265625 -0.734375 3.046875q0 1.796875 0.734375 3.078125q0.734375 1.265625 1.9375 1.953125q1.203125 0.671875 2.546875 0.671875zm10.295593 1.78125l0 -14.953125l2.375 0l0 2.203125l0.125 0q0.578125 -1.09375 1.90625 -1.875q1.34375 -0.796875 2.9375 -0.796875q2.75 0 4.140625 1.59375q1.390625 1.59375 1.390625 4.234375l0 9.59375l-2.484375 0l0 -9.203125q0 -2.171875 -1.046875 -3.0625q-1.046875 -0.90625 -2.6875 -0.90625q-1.234375 0 -2.171875 0.6875q-0.9375 0.6875 -1.46875 1.78125q-0.515625 1.078125 -0.515625 2.28125l0 8.421875l-2.5 0zm14.704102 -14.953125l8.765625 0l0 2.25l-8.765625 0l0 -2.25zm2.609375 11.015625l0 -15.25l2.484375 0l0 14.640625q0 1.171875 0.484375 1.828125q0.484375 0.640625 1.59375 0.640625q0.5 0 0.90625 -0.140625q0.421875 -0.15625 0.75 -0.359375l0 2.4375q-0.390625 0.171875 -0.84375 0.265625q-0.453125 0.109375 -1.21875 0.109375q-1.875 0 -3.015625 -1.09375q-1.140625 -1.109375 -1.140625 -3.078125zm9.111023 3.9375l0 -14.953125l2.375 0l0 2.40625l0.125 0q0.296875 -0.859375 0.984375 -1.484375q0.6875 -0.625 1.578125 -0.984375q0.890625 -0.375 1.78125 -0.375q0.671875 0 1.046875 0.078125q0.390625 0.0625 0.703125 0.203125l0 2.703125q-0.46875 -0.234375 -1.015625 -0.34375q-0.53125 -0.125 -1.09375 -0.125q-1.078125 0 -2.0 0.625q-0.90625 0.609375 -1.453125 1.640625q-0.53125 1.015625 -0.53125 2.25l0 8.359375l-2.5 0zm17.008667 0.46875q-2.25 0 -3.984375 -1.046875q-1.734375 -1.0625 -2.71875 -2.859375q-0.96875 -1.8125 -0.96875 -4.046875q0 -2.21875 0.96875 -4.015625q0.984375 -1.8125 2.71875 -2.859375q1.734375 -1.0625 3.984375 -1.0625q2.265625 0 3.984375 1.078125q1.734375 1.0625 2.71875 2.875q0.984375 1.796875 0.984375 3.984375q0 2.234375 -0.984375 4.046875q-0.984375 1.796875 -2.71875 2.859375q-1.71875 1.046875 -3.984375 1.046875zm0 -2.25q1.359375 0 2.546875 -0.671875q1.1875 -0.6875 1.921875 -1.953125q0.734375 -1.28125 0.734375 -3.078125q0 -1.78125 -0.734375 -3.046875q-0.734375 -1.28125 -1.921875 -1.953125q-1.1875 -0.6875 -2.546875 -0.6875q-1.34375 0 -2.546875 0.6875q-1.203125 0.671875 -1.9375 1.953125q-0.734375 1.265625 -0.734375 3.046875q0 1.796875 0.734375 3.078125q0.734375 1.265625 1.9375 1.953125q1.203125 0.671875 2.546875 0.671875zm10.442261 1.78125l0 -21.0l2.5 0l0 21.0l-2.5 0zm13.49234 0l0 -21.0l12.140625 0l0 2.375l-9.640625 0l0 18.625l-2.5 0zm1.328125 -9.09375l0 -2.34375l9.875 0l0 2.34375l-9.875 0zm19.521362 9.5625q-2.171875 0 -3.859375 -1.015625q-1.671875 -1.03125 -2.625 -2.8125q-0.953125 -1.796875 -0.953125 -4.09375q0 -2.140625 0.890625 -3.953125q0.890625 -1.828125 2.515625 -2.921875q1.625 -1.09375 3.828125 -1.09375q2.234375 0 3.828125 0.984375q1.59375 0.96875 2.453125 2.703125q0.875 1.734375 0.875 3.96875q0 0.203125 -0.015625 0.40625q-0.015625 0.203125 -0.046875 0.34375l-12.875 0l0 -2.046875l10.296875 0q-0.03125 -0.609375 -0.28125 -1.328125q-0.25 -0.71875 -0.796875 -1.34375q-0.53125 -0.640625 -1.375 -1.03125q-0.828125 -0.40625 -2.0625 -0.40625q-1.46875 0 -2.546875 0.75q-1.0625 0.75 -1.640625 2.046875q-0.5625 1.28125 -0.5625 2.921875q0 1.90625 0.734375 3.171875q0.734375 1.265625 1.890625 1.890625q1.15625 0.609375 2.421875 0.609375q1.640625 0 2.703125 -0.78125q1.078125 -0.78125 1.71875 -1.921875l2.125 1.03125q-0.890625 1.6875 -2.53125 2.8125q-1.640625 1.109375 -4.109375 1.109375zm14.783386 0q-1.671875 0 -2.9375 -0.640625q-1.25 -0.65625 -1.96875 -1.78125q-0.71875 -1.125 -0.71875 -2.5625q0 -1.640625 0.84375 -2.765625q0.859375 -1.140625 2.296875 -1.703125q1.4375 -0.578125 3.15625 -0.578125q1.0 0 1.84375 0.171875q0.859375 0.15625 1.484375 0.375q0.640625 0.21875 0.953125 0.421875l0 -0.90625q0 -1.703125 -1.203125 -2.703125q-1.1875 -1.0 -2.921875 -1.0q-1.234375 0 -2.3125 0.546875q-1.0625 0.546875 -1.6875 1.515625l-1.875 -1.40625q0.59375 -0.890625 1.46875 -1.53125q0.890625 -0.640625 2.015625 -0.984375q1.125 -0.359375 2.390625 -0.359375q3.046875 0 4.765625 1.609375q1.734375 1.609375 1.734375 4.34375l0 9.46875l-2.375 0l0 -2.140625l-0.109375 0q-0.375 0.640625 -1.09375 1.25q-0.703125 0.59375 -1.65625 0.96875q-0.953125 0.390625 -2.09375 0.390625zm0.234375 -2.203125q1.296875 0 2.359375 -0.640625q1.078125 -0.640625 1.71875 -1.71875q0.640625 -1.09375 0.640625 -2.390625q-0.671875 -0.46875 -1.6875 -0.75q-1.0 -0.296875 -2.203125 -0.296875q-2.140625 0 -3.140625 0.875q-1.0 0.875 -1.0 2.171875q0 1.234375 0.9375 2.0q0.9375 0.75 2.375 0.75zm9.248627 -13.21875l8.765625 0l0 2.25l-8.765625 0l0 -2.25zm2.609375 11.015625l0 -15.25l2.484375 0l0 14.640625q0 1.171875 0.484375 1.828125q0.484375 0.640625 1.59375 0.640625q0.5 0 0.90625 -0.140625q0.421875 -0.15625 0.75 -0.359375l0 2.4375q-0.390625 0.171875 -0.84375 0.265625q-0.453125 0.109375 -1.21875 0.109375q-1.875 0 -3.015625 -1.09375q-1.140625 -1.109375 -1.140625 -3.078125zm14.532898 4.40625q-2.75 0 -4.140625 -1.609375q-1.390625 -1.609375 -1.390625 -4.40625l0 -9.40625l2.484375 0l0 9.03125q0 2.21875 1.03125 3.1875q1.03125 0.953125 2.546875 0.953125q1.328125 0 2.296875 -0.6875q0.96875 -0.703125 1.484375 -1.78125q0.53125 -1.09375 0.53125 -2.265625l0 -8.4375l2.5 0l0 14.953125l-2.375 0l0 -2.171875l-0.125 0q-0.375 0.703125 -1.125 1.3125q-0.75 0.59375 -1.703125 0.953125q-0.953125 0.375 -2.015625 0.375zm11.031189 -0.46875l0 -14.953125l2.375 0l0 2.40625l0.125 0q0.296875 -0.859375 0.984375 -1.484375q0.6875 -0.625 1.578125 -0.984375q0.890625 -0.375 1.78125 -0.375q0.671875 0 1.046875 0.078125q0.390625 0.0625 0.703125 0.203125l0 2.703125q-0.46875 -0.234375 -1.015625 -0.34375q-0.53125 -0.125 -1.09375 -0.125q-1.078125 0 -2.0 0.625q-0.90625 0.609375 -1.453125 1.640625q-0.53125 1.015625 -0.53125 2.25l0 8.359375l-2.5 0zm16.774292 0.46875q-2.171875 0 -3.859375 -1.015625q-1.671875 -1.03125 -2.625 -2.8125q-0.953125 -1.796875 -0.953125 -4.09375q0 -2.140625 0.890625 -3.953125q0.890625 -1.828125 2.515625 -2.921875q1.625 -1.09375 3.828125 -1.09375q2.234375 0 3.828125 0.984375q1.59375 0.96875 2.453125 2.703125q0.875 1.734375 0.875 3.96875q0 0.203125 -0.015625 0.40625q-0.015625 0.203125 -0.046875 0.34375l-12.875 0l0 -2.046875l10.296875 0q-0.03125 -0.609375 -0.28125 -1.328125q-0.25 -0.71875 -0.796875 -1.34375q-0.53125 -0.640625 -1.375 -1.03125q-0.828125 -0.40625 -2.0625 -0.40625q-1.46875 0 -2.546875 0.75q-1.0625 0.75 -1.640625 2.046875q-0.5625 1.28125 -0.5625 2.921875q0 1.90625 0.734375 3.171875q0.734375 1.265625 1.890625 1.890625q1.15625 0.609375 2.421875 0.609375q1.640625 0 2.703125 -0.78125q1.078125 -0.78125 1.71875 -1.921875l2.125 1.03125q-0.890625 1.6875 -2.53125 2.8125q-1.640625 1.109375 -4.109375 1.109375z" fill-rule="nonzero"/><path fill="#000000" d="m311.5461 725.32855q-2.3125 0 -4.296875 -0.828125q-1.984375 -0.84375 -3.46875 -2.328125q-1.46875 -1.484375 -2.296875 -3.484375q-0.828125 -2.015625 -0.828125 -4.328125q0 -2.34375 0.828125 -4.328125q0.828125 -2.0 2.296875 -3.484375q1.484375 -1.484375 3.46875 -2.3125q1.984375 -0.84375 4.296875 -0.84375q1.609375 0 3.0 0.421875q1.390625 0.40625 2.5625 1.171875q1.1875 0.75 2.125 1.84375l-1.796875 1.71875q-0.796875 -0.96875 -1.6875 -1.578125q-0.890625 -0.609375 -1.9375 -0.90625q-1.03125 -0.296875 -2.265625 -0.296875q-2.265625 0 -4.171875 1.0625q-1.90625 1.046875 -3.046875 2.96875q-1.140625 1.921875 -1.140625 4.5625q0 2.609375 1.140625 4.546875q1.140625 1.9375 3.046875 3.0q1.90625 1.046875 4.171875 1.046875q1.375 0 2.53125 -0.375q1.15625 -0.390625 2.140625 -1.09375q0.984375 -0.703125 1.8125 -1.671875l1.8125 1.765625q-0.90625 1.078125 -2.1875 1.9375q-1.265625 0.84375 -2.8125 1.328125q-1.546875 0.484375 -3.296875 0.484375zm17.676727 0q-2.25 0 -3.984375 -1.046875q-1.734375 -1.0625 -2.71875 -2.859375q-0.96875 -1.8125 -0.96875 -4.046875q0 -2.21875 0.96875 -4.015625q0.984375 -1.8125 2.71875 -2.859375q1.734375 -1.0625 3.984375 -1.0625q2.265625 0 3.984375 1.078125q1.734375 1.0625 2.71875 2.875q0.984375 1.796875 0.984375 3.984375q0 2.234375 -0.984375 4.046875q-0.984375 1.796875 -2.71875 2.859375q-1.71875 1.046875 -3.984375 1.046875zm0 -2.25q1.359375 0 2.546875 -0.671875q1.1875 -0.6875 1.921875 -1.953125q0.734375 -1.28125 0.734375 -3.078125q0 -1.78125 -0.734375 -3.046875q-0.734375 -1.28125 -1.921875 -1.953125q-1.1875 -0.6875 -2.546875 -0.6875q-1.34375 0 -2.546875 0.6875q-1.203125 0.671875 -1.9375 1.953125q-0.734375 1.265625 -0.734375 3.046875q0 1.796875 0.734375 3.078125q0.734375 1.265625 1.9375 1.953125q1.203125 0.671875 2.546875 0.671875zm10.295593 1.78125l0 -14.953125l2.375 0l0 2.203125l0.125 0q0.40625 -0.734375 1.125 -1.328125q0.71875 -0.609375 1.640625 -0.96875q0.921875 -0.375 1.890625 -0.375q1.671875 0 2.875 0.8125q1.203125 0.796875 1.734375 2.09375q0.765625 -1.265625 2.046875 -2.078125q1.296875 -0.828125 3.078125 -0.828125q2.671875 0 3.9375 1.609375q1.265625 1.609375 1.265625 4.21875l0 9.59375l-2.46875 0l0 -9.203125q0 -2.171875 -0.890625 -3.0625q-0.875 -0.90625 -2.484375 -0.90625q-1.140625 0 -2.046875 0.671875q-0.890625 0.65625 -1.40625 1.734375q-0.5 1.0625 -0.5 2.3125l0 8.453125l-2.5 0l0 -9.1875q0 -2.15625 -0.875 -3.0625q-0.875 -0.921875 -2.46875 -0.921875q-1.140625 0 -2.046875 0.6875q-0.890625 0.671875 -1.40625 1.75q-0.5 1.078125 -0.5 2.34375l0 8.390625l-2.5 0zm33.25583 0.46875q-1.203125 0 -2.203125 -0.390625q-0.984375 -0.375 -1.734375 -0.984375q-0.75 -0.625 -1.15625 -1.296875l-0.125 0l0 2.203125l-2.375 0l0 -21.0l2.5 0l0 6.1875l-0.125 2.078125l0.125 0q0.40625 -0.703125 1.15625 -1.3125q0.75 -0.609375 1.734375 -0.984375q1.0 -0.390625 2.203125 -0.390625q2.0625 0 3.671875 1.03125q1.609375 1.015625 2.546875 2.8125q0.9375 1.78125 0.9375 4.09375q0 2.328125 -0.9375 4.125q-0.9375 1.78125 -2.546875 2.8125q-1.609375 1.015625 -3.671875 1.015625zm-0.25 -2.25q1.28125 0 2.40625 -0.6875q1.140625 -0.703125 1.828125 -1.984375q0.6875 -1.296875 0.6875 -3.03125q0 -1.75 -0.6875 -3.03125q-0.6875 -1.28125 -1.828125 -1.96875q-1.125 -0.6875 -2.40625 -0.6875q-1.296875 0 -2.4375 0.6875q-1.125 0.6875 -1.828125 1.96875q-0.703125 1.28125 -0.703125 3.03125q0 1.765625 0.703125 3.046875q0.703125 1.265625 1.828125 1.96875q1.140625 0.6875 2.4375 0.6875zm10.399475 1.78125l0 -14.953125l2.5 0l0 14.953125l-2.5 0zm1.234375 -17.71875q-0.734375 0 -1.265625 -0.515625q-0.515625 -0.53125 -0.515625 -1.265625q0 -0.765625 0.515625 -1.28125q0.53125 -0.515625 1.265625 -0.515625q0.765625 0 1.28125 0.515625q0.515625 0.515625 0.515625 1.28125q0 0.734375 -0.515625 1.265625q-0.515625 0.515625 -1.28125 0.515625zm5.159424 17.71875l0 -14.953125l2.375 0l0 2.203125l0.125 0q0.578125 -1.09375 1.90625 -1.875q1.34375 -0.796875 2.9375 -0.796875q2.75 0 4.140625 1.59375q1.390625 1.59375 1.390625 4.234375l0 9.59375l-2.484375 0l0 -9.203125q0 -2.171875 -1.046875 -3.0625q-1.046875 -0.90625 -2.6875 -0.90625q-1.234375 0 -2.171875 0.6875q-0.9375 0.6875 -1.46875 1.78125q-0.515625 1.078125 -0.515625 2.28125l0 8.421875l-2.5 0zm23.109314 0.46875q-2.171875 0 -3.859375 -1.015625q-1.671875 -1.03125 -2.625 -2.8125q-0.953125 -1.796875 -0.953125 -4.09375q0 -2.140625 0.890625 -3.953125q0.890625 -1.828125 2.515625 -2.921875q1.625 -1.09375 3.828125 -1.09375q2.234375 0 3.828125 0.984375q1.59375 0.96875 2.453125 2.703125q0.875 1.734375 0.875 3.96875q0 0.203125 -0.015625 0.40625q-0.015625 0.203125 -0.046875 0.34375l-12.875 0l0 -2.046875l10.296875 0q-0.03125 -0.609375 -0.28125 -1.328125q-0.25 -0.71875 -0.796875 -1.34375q-0.53125 -0.640625 -1.375 -1.03125q-0.828125 -0.40625 -2.0625 -0.40625q-1.46875 0 -2.546875 0.75q-1.0625 0.75 -1.640625 2.046875q-0.5625 1.28125 -0.5625 2.921875q0 1.90625 0.734375 3.171875q0.734375 1.265625 1.890625 1.890625q1.15625 0.609375 2.421875 0.609375q1.640625 0 2.703125 -0.78125q1.078125 -0.78125 1.71875 -1.921875l2.125 1.03125q-0.890625 1.6875 -2.53125 2.8125q-1.640625 1.109375 -4.109375 1.109375zm9.855469 -0.46875l0 -14.953125l2.375 0l0 2.40625l0.125 0q0.296875 -0.859375 0.984375 -1.484375q0.6875 -0.625 1.578125 -0.984375q0.890625 -0.375 1.78125 -0.375q0.671875 0 1.046875 0.078125q0.390625 0.0625 0.703125 0.203125l0 2.703125q-0.46875 -0.234375 -1.015625 -0.34375q-0.53125 -0.125 -1.09375 -0.125q-1.078125 0 -2.0 0.625q-0.90625 0.609375 -1.453125 1.640625q-0.53125 1.015625 -0.53125 2.25l0 8.359375l-2.5 0z" fill-rule="nonzero"/><path fill="#efefef" d="m605.7919 654.41156l0 0c0 -11.6779785 9.466858 -21.144775 21.144775 -21.144775l284.82855 0c5.607971 0 10.986206 2.2277222 14.95166 6.193115c3.965393 3.965454 6.193115 9.343689 6.193115 14.95166l0 84.57654c0 11.6779785 -9.466797 21.144775 -21.144775 21.144775l-284.82855 0l0 0c-11.6779175 0 -21.144775 -9.466797 -21.144775 -21.144775z" fill-rule="evenodd"/><path stroke="#000000" stroke-width="2.0" stroke-linejoin="round" stroke-linecap="butt" d="m605.7919 654.41156l0 0c0 -11.6779785 9.466858 -21.144775 21.144775 -21.144775l284.82855 0c5.607971 0 10.986206 2.2277222 14.95166 6.193115c3.965393 3.965454 6.193115 9.343689 6.193115 14.95166l0 84.57654c0 11.6779785 -9.466797 21.144775 -21.144775 21.144775l-284.82855 0l0 0c-11.6779175 0 -21.144775 -9.466797 -21.144775 -21.144775z" fill-rule="evenodd"/><path fill="#000000" d="m654.6333 689.8598l0 -19.5l2.5 0l0 19.5l-2.5 0zm-5.890625 -18.625l0 -2.375l14.25 0l0 2.375l-14.25 0zm15.09668 18.625l0 -14.953125l2.375 0l0 2.40625l0.125 0q0.296875 -0.859375 0.984375 -1.484375q0.6875 -0.625 1.578125 -0.984375q0.890625 -0.375 1.78125 -0.375q0.671875 0 1.046875 0.078125q0.390625 0.0625 0.703125 0.203125l0 2.703125q-0.46875 -0.234375 -1.015625 -0.34375q-0.53125 -0.125 -1.09375 -0.125q-1.078125 0 -2.0 0.625q-0.90625 0.609375 -1.453125 1.640625q-0.53125 1.015625 -0.53125 2.25l0 8.359375l-2.5 0zm16.774292 0.46875q-2.171875 0 -3.859375 -1.015625q-1.671875 -1.03125 -2.625 -2.8125q-0.953125 -1.796875 -0.953125 -4.09375q0 -2.140625 0.890625 -3.953125q0.890625 -1.828125 2.515625 -2.921875q1.625 -1.09375 3.828125 -1.09375q2.234375 0 3.828125 0.984375q1.59375 0.96875 2.453125 2.703125q0.875 1.734375 0.875 3.96875q0 0.203125 -0.015625 0.40625q-0.015625 0.203125 -0.046875 0.34375l-12.875 0l0 -2.046875l10.296875 0q-0.03125 -0.609375 -0.28125 -1.328125q-0.25 -0.71875 -0.796875 -1.34375q-0.53125 -0.640625 -1.375 -1.03125q-0.828125 -0.40625 -2.0625 -0.40625q-1.46875 0 -2.546875 0.75q-1.0625 0.75 -1.640625 2.046875q-0.5625 1.28125 -0.5625 2.921875q0 1.90625 0.734375 3.171875q0.734375 1.265625 1.890625 1.890625q1.15625 0.609375 2.421875 0.609375q1.640625 0 2.703125 -0.78125q1.078125 -0.78125 1.71875 -1.921875l2.125 1.03125q-0.890625 1.6875 -2.53125 2.8125q-1.640625 1.109375 -4.109375 1.109375zm14.783386 0q-1.671875 0 -2.9375 -0.640625q-1.25 -0.65625 -1.96875 -1.78125q-0.71875 -1.125 -0.71875 -2.5625q0 -1.640625 0.84375 -2.765625q0.859375 -1.140625 2.296875 -1.703125q1.4375 -0.578125 3.15625 -0.578125q1.0 0 1.84375 0.171875q0.859375 0.15625 1.484375 0.375q0.640625 0.21875 0.953125 0.421875l0 -0.90625q0 -1.703125 -1.203125 -2.703125q-1.1875 -1.0 -2.921875 -1.0q-1.234375 0 -2.3125 0.546875q-1.0625 0.546875 -1.6875 1.515625l-1.875 -1.40625q0.59375 -0.890625 1.46875 -1.53125q0.890625 -0.640625 2.015625 -0.984375q1.125 -0.359375 2.390625 -0.359375q3.046875 0 4.765625 1.609375q1.734375 1.609375 1.734375 4.34375l0 9.46875l-2.375 0l0 -2.140625l-0.109375 0q-0.375 0.640625 -1.09375 1.25q-0.703125 0.59375 -1.65625 0.96875q-0.953125 0.390625 -2.09375 0.390625zm0.234375 -2.203125q1.296875 0 2.359375 -0.640625q1.078125 -0.640625 1.71875 -1.71875q0.640625 -1.09375 0.640625 -2.390625q-0.671875 -0.46875 -1.6875 -0.75q-1.0 -0.296875 -2.203125 -0.296875q-2.140625 0 -3.140625 0.875q-1.0 0.875 -1.0 2.171875q0 1.234375 0.9375 2.0q0.9375 0.75 2.375 0.75zm9.248596 -13.21875l8.765625 0l0 2.25l-8.765625 0l0 -2.25zm2.609375 11.015625l0 -15.25l2.484375 0l0 14.640625q0 1.171875 0.484375 1.828125q0.484375 0.640625 1.59375 0.640625q0.5 0 0.90625 -0.140625q0.421875 -0.15625 0.75 -0.359375l0 2.4375q-0.390625 0.171875 -0.84375 0.265625q-0.453125 0.109375 -1.21875 0.109375q-1.875 0 -3.015625 -1.09375q-1.140625 -1.109375 -1.140625 -3.078125zm9.25769 3.9375l0 -14.953125l2.375 0l0 2.203125l0.125 0q0.40625 -0.734375 1.125 -1.328125q0.71875 -0.609375 1.640625 -0.96875q0.921875 -0.375 1.890625 -0.375q1.671875 0 2.875 0.8125q1.203125 0.796875 1.734375 2.09375q0.765625 -1.265625 2.046875 -2.078125q1.296875 -0.828125 3.078125 -0.828125q2.671875 0 3.9375 1.609375q1.265625 1.609375 1.265625 4.21875l0 9.59375l-2.46875 0l0 -9.203125q0 -2.171875 -0.890625 -3.0625q-0.875 -0.90625 -2.484375 -0.90625q-1.140625 0 -2.046875 0.671875q-0.890625 0.65625 -1.40625 1.734375q-0.5 1.0625 -0.5 2.3125l0 8.453125l-2.5 0l0 -9.1875q0 -2.15625 -0.875 -3.0625q-0.875 -0.921875 -2.46875 -0.921875q-1.140625 0 -2.046875 0.6875q-0.890625 0.671875 -1.40625 1.75q-0.5 1.078125 -0.5 2.34375l0 8.390625l-2.5 0zm32.31836 0.46875q-2.171875 0 -3.859375 -1.015625q-1.671875 -1.03125 -2.625 -2.8125q-0.953125 -1.796875 -0.953125 -4.09375q0 -2.140625 0.890625 -3.953125q0.890625 -1.828125 2.515625 -2.921875q1.625 -1.09375 3.828125 -1.09375q2.234375 0 3.828125 0.984375q1.59375 0.96875 2.453125 2.703125q0.875 1.734375 0.875 3.96875q0 0.203125 -0.015625 0.40625q-0.015625 0.203125 -0.046875 0.34375l-12.875 0l0 -2.046875l10.296875 0q-0.03125 -0.609375 -0.28125 -1.328125q-0.25 -0.71875 -0.796875 -1.34375q-0.53125 -0.640625 -1.375 -1.03125q-0.828125 -0.40625 -2.0625 -0.40625q-1.46875 0 -2.546875 0.75q-1.0625 0.75 -1.640625 2.046875q-0.5625 1.28125 -0.5625 2.921875q0 1.90625 0.734375 3.171875q0.734375 1.265625 1.890625 1.890625q1.15625 0.609375 2.421875 0.609375q1.640625 0 2.703125 -0.78125q1.078125 -0.78125 1.71875 -1.921875l2.125 1.03125q-0.890625 1.6875 -2.53125 2.8125q-1.640625 1.109375 -4.109375 1.109375zm9.855469 -0.46875l0 -14.953125l2.375 0l0 2.203125l0.125 0q0.578125 -1.09375 1.90625 -1.875q1.34375 -0.796875 2.9375 -0.796875q2.75 0 4.140625 1.59375q1.390625 1.59375 1.390625 4.234375l0 9.59375l-2.484375 0l0 -9.203125q0 -2.171875 -1.046875 -3.0625q-1.046875 -0.90625 -2.6875 -0.90625q-1.234375 0 -2.171875 0.6875q-0.9375 0.6875 -1.46875 1.78125q-0.515625 1.078125 -0.515625 2.28125l0 8.421875l-2.5 0zm14.704102 -14.953125l8.765625 0l0 2.25l-8.765625 0l0 -2.25zm2.609375 11.015625l0 -15.25l2.484375 0l0 14.640625q0 1.171875 0.484375 1.828125q0.484375 0.640625 1.59375 0.640625q0.5 0 0.90625 -0.140625q0.421875 -0.15625 0.75 -0.359375l0 2.4375q-0.390625 0.171875 -0.84375 0.265625q-0.453125 0.109375 -1.21875 0.109375q-1.875 0 -3.015625 -1.09375q-1.140625 -1.109375 -1.140625 -3.078125zm16.4151 3.9375l0 -21.0l12.140625 0l0 2.375l-9.640625 0l0 18.625l-2.5 0zm1.328125 -9.09375l0 -2.34375l9.875 0l0 2.34375l-9.875 0zm19.521362 9.5625q-2.171875 0 -3.859375 -1.015625q-1.671875 -1.03125 -2.625 -2.8125q-0.953125 -1.796875 -0.953125 -4.09375q0 -2.140625 0.890625 -3.953125q0.890625 -1.828125 2.515625 -2.921875q1.625 -1.09375 3.828125 -1.09375q2.234375 0 3.828125 0.984375q1.59375 0.96875 2.453125 2.703125q0.875 1.734375 0.875 3.96875q0 0.203125 -0.015625 0.40625q-0.015625 0.203125 -0.046875 0.34375l-12.875 0l0 -2.046875l10.296875 0q-0.03125 -0.609375 -0.28125 -1.328125q-0.25 -0.71875 -0.796875 -1.34375q-0.53125 -0.640625 -1.375 -1.03125q-0.828125 -0.40625 -2.0625 -0.40625q-1.46875 0 -2.546875 0.75q-1.0625 0.75 -1.640625 2.046875q-0.5625 1.28125 -0.5625 2.921875q0 1.90625 0.734375 3.171875q0.734375 1.265625 1.890625 1.890625q1.15625 0.609375 2.421875 0.609375q1.640625 0 2.703125 -0.78125q1.078125 -0.78125 1.71875 -1.921875l2.125 1.03125q-0.890625 1.6875 -2.53125 2.8125q-1.640625 1.109375 -4.109375 1.109375zm14.783386 0q-1.671875 0 -2.9375 -0.640625q-1.25 -0.65625 -1.96875 -1.78125q-0.71875 -1.125 -0.71875 -2.5625q0 -1.640625 0.84375 -2.765625q0.859375 -1.140625 2.296875 -1.703125q1.4375 -0.578125 3.15625 -0.578125q1.0 0 1.84375 0.171875q0.859375 0.15625 1.484375 0.375q0.640625 0.21875 0.953125 0.421875l0 -0.90625q0 -1.703125 -1.203125 -2.703125q-1.1875 -1.0 -2.921875 -1.0q-1.234375 0 -2.3125 0.546875q-1.0625 0.546875 -1.6875 1.515625l-1.875 -1.40625q0.59375 -0.890625 1.46875 -1.53125q0.890625 -0.640625 2.015625 -0.984375q1.125 -0.359375 2.390625 -0.359375q3.046875 0 4.765625 1.609375q1.734375 1.609375 1.734375 4.34375l0 9.46875l-2.375 0l0 -2.140625l-0.109375 0q-0.375 0.640625 -1.09375 1.25q-0.703125 0.59375 -1.65625 0.96875q-0.953125 0.390625 -2.09375 0.390625zm0.234375 -2.203125q1.296875 0 2.359375 -0.640625q1.078125 -0.640625 1.71875 -1.71875q0.640625 -1.09375 0.640625 -2.390625q-0.671875 -0.46875 -1.6875 -0.75q-1.0 -0.296875 -2.203125 -0.296875q-2.140625 0 -3.140625 0.875q-1.0 0.875 -1.0 2.171875q0 1.234375 0.9375 2.0q0.9375 0.75 2.375 0.75zm9.248657 -13.21875l8.765625 0l0 2.25l-8.765625 0l0 -2.25zm2.609375 11.015625l0 -15.25l2.484375 0l0 14.640625q0 1.171875 0.484375 1.828125q0.484375 0.640625 1.59375 0.640625q0.5 0 0.90625 -0.140625q0.421875 -0.15625 0.75 -0.359375l0 2.4375q-0.390625 0.171875 -0.84375 0.265625q-0.453125 0.109375 -1.21875 0.109375q-1.875 0 -3.015625 -1.09375q-1.140625 -1.109375 -1.140625 -3.078125zm14.532898 4.40625q-2.75 0 -4.140625 -1.609375q-1.390625 -1.609375 -1.390625 -4.40625l0 -9.40625l2.484375 0l0 9.03125q0 2.21875 1.03125 3.1875q1.03125 0.953125 2.546875 0.953125q1.328125 0 2.296875 -0.6875q0.96875 -0.703125 1.484375 -1.78125q0.53125 -1.09375 0.53125 -2.265625l0 -8.4375l2.5 0l0 14.953125l-2.375 0l0 -2.171875l-0.125 0q-0.375 0.703125 -1.125 1.3125q-0.75 0.59375 -1.703125 0.953125q-0.953125 0.375 -2.015625 0.375zm11.031189 -0.46875l0 -14.953125l2.375 0l0 2.40625l0.125 0q0.296875 -0.859375 0.984375 -1.484375q0.6875 -0.625 1.578125 -0.984375q0.890625 -0.375 1.78125 -0.375q0.671875 0 1.046875 0.078125q0.390625 0.0625 0.703125 0.203125l0 2.703125q-0.46875 -0.234375 -1.015625 -0.34375q-0.53125 -0.125 -1.09375 -0.125q-1.078125 0 -2.0 0.625q-0.90625 0.609375 -1.453125 1.640625q-0.53125 1.015625 -0.53125 2.25l0 8.359375l-2.5 0zm16.774292 0.46875q-2.171875 0 -3.859375 -1.015625q-1.671875 -1.03125 -2.625 -2.8125q-0.953125 -1.796875 -0.953125 -4.09375q0 -2.140625 0.890625 -3.953125q0.890625 -1.828125 2.515625 -2.921875q1.625 -1.09375 3.828125 -1.09375q2.234375 0 3.828125 0.984375q1.59375 0.96875 2.453125 2.703125q0.875 1.734375 0.875 3.96875q0 0.203125 -0.015625 0.40625q-0.015625 0.203125 -0.046875 0.34375l-12.875 0l0 -2.046875l10.296875 0q-0.03125 -0.609375 -0.28125 -1.328125q-0.25 -0.71875 -0.796875 -1.34375q-0.53125 -0.640625 -1.375 -1.03125q-0.828125 -0.40625 -2.0625 -0.40625q-1.46875 0 -2.546875 0.75q-1.0625 0.75 -1.640625 2.046875q-0.5625 1.28125 -0.5625 2.921875q0 1.90625 0.734375 3.171875q0.734375 1.265625 1.890625 1.890625q1.15625 0.609375 2.421875 0.609375q1.640625 0 2.703125 -0.78125q1.078125 -0.78125 1.71875 -1.921875l2.125 1.03125q-0.890625 1.6875 -2.53125 2.8125q-1.640625 1.109375 -4.109375 1.109375z" fill-rule="nonzero"/><path fill="#000000" d="m715.50726 725.32855q-2.3125 0 -4.296875 -0.828125q-1.984375 -0.84375 -3.46875 -2.328125q-1.46875 -1.484375 -2.296875 -3.484375q-0.828125 -2.015625 -0.828125 -4.328125q0 -2.34375 0.828125 -4.328125q0.828125 -2.0 2.296875 -3.484375q1.484375 -1.484375 3.46875 -2.3125q1.984375 -0.84375 4.296875 -0.84375q1.609375 0 3.0 0.421875q1.390625 0.40625 2.5625 1.171875q1.1875 0.75 2.125 1.84375l-1.796875 1.71875q-0.796875 -0.96875 -1.6875 -1.578125q-0.890625 -0.609375 -1.9375 -0.90625q-1.03125 -0.296875 -2.265625 -0.296875q-2.265625 0 -4.171875 1.0625q-1.90625 1.046875 -3.046875 2.96875q-1.140625 1.921875 -1.140625 4.5625q0 2.609375 1.140625 4.546875q1.140625 1.9375 3.046875 3.0q1.90625 1.046875 4.171875 1.046875q1.375 0 2.53125 -0.375q1.15625 -0.390625 2.140625 -1.09375q0.984375 -0.703125 1.8125 -1.671875l1.8125 1.765625q-0.90625 1.078125 -2.1875 1.9375q-1.265625 0.84375 -2.8125 1.328125q-1.546875 0.484375 -3.296875 0.484375zm17.676697 0q-2.25 0 -3.984375 -1.046875q-1.734375 -1.0625 -2.71875 -2.859375q-0.96875 -1.8125 -0.96875 -4.046875q0 -2.21875 0.96875 -4.015625q0.984375 -1.8125 2.71875 -2.859375q1.734375 -1.0625 3.984375 -1.0625q2.265625 0 3.984375 1.078125q1.734375 1.0625 2.71875 2.875q0.984375 1.796875 0.984375 3.984375q0 2.234375 -0.984375 4.046875q-0.984375 1.796875 -2.71875 2.859375q-1.71875 1.046875 -3.984375 1.046875zm0 -2.25q1.359375 0 2.546875 -0.671875q1.1875 -0.6875 1.921875 -1.953125q0.734375 -1.28125 0.734375 -3.078125q0 -1.78125 -0.734375 -3.046875q-0.734375 -1.28125 -1.921875 -1.953125q-1.1875 -0.6875 -2.546875 -0.6875q-1.34375 0 -2.546875 0.6875q-1.203125 0.671875 -1.9375 1.953125q-0.734375 1.265625 -0.734375 3.046875q0 1.796875 0.734375 3.078125q0.734375 1.265625 1.9375 1.953125q1.203125 0.671875 2.546875 0.671875zm10.295593 1.78125l0 -14.953125l2.375 0l0 2.203125l0.125 0q0.40625 -0.734375 1.125 -1.328125q0.71875 -0.609375 1.640625 -0.96875q0.921875 -0.375 1.890625 -0.375q1.671875 0 2.875 0.8125q1.203125 0.796875 1.734375 2.09375q0.765625 -1.265625 2.046875 -2.078125q1.296875 -0.828125 3.078125 -0.828125q2.671875 0 3.9375 1.609375q1.265625 1.609375 1.265625 4.21875l0 9.59375l-2.46875 0l0 -9.203125q0 -2.171875 -0.890625 -3.0625q-0.875 -0.90625 -2.484375 -0.90625q-1.140625 0 -2.046875 0.671875q-0.890625 0.65625 -1.40625 1.734375q-0.5 1.0625 -0.5 2.3125l0 8.453125l-2.5 0l0 -9.1875q0 -2.15625 -0.875 -3.0625q-0.875 -0.921875 -2.46875 -0.921875q-1.140625 0 -2.046875 0.6875q-0.890625 0.671875 -1.40625 1.75q-0.5 1.078125 -0.5 2.34375l0 8.390625l-2.5 0zm33.25586 0.46875q-1.203125 0 -2.203125 -0.390625q-0.984375 -0.375 -1.734375 -0.984375q-0.75 -0.625 -1.15625 -1.296875l-0.125 0l0 2.203125l-2.375 0l0 -21.0l2.5 0l0 6.1875l-0.125 2.078125l0.125 0q0.40625 -0.703125 1.15625 -1.3125q0.75 -0.609375 1.734375 -0.984375q1.0 -0.390625 2.203125 -0.390625q2.0625 0 3.671875 1.03125q1.609375 1.015625 2.546875 2.8125q0.9375 1.78125 0.9375 4.09375q0 2.328125 -0.9375 4.125q-0.9375 1.78125 -2.546875 2.8125q-1.609375 1.015625 -3.671875 1.015625zm-0.25 -2.25q1.28125 0 2.40625 -0.6875q1.140625 -0.703125 1.828125 -1.984375q0.6875 -1.296875 0.6875 -3.03125q0 -1.75 -0.6875 -3.03125q-0.6875 -1.28125 -1.828125 -1.96875q-1.125 -0.6875 -2.40625 -0.6875q-1.296875 0 -2.4375 0.6875q-1.125 0.6875 -1.828125 1.96875q-0.703125 1.28125 -0.703125 3.03125q0 1.765625 0.703125 3.046875q0.703125 1.265625 1.828125 1.96875q1.140625 0.6875 2.4375 0.6875zm10.399475 1.78125l0 -14.953125l2.5 0l0 14.953125l-2.5 0zm1.234375 -17.71875q-0.734375 0 -1.265625 -0.515625q-0.515625 -0.53125 -0.515625 -1.265625q0 -0.765625 0.515625 -1.28125q0.53125 -0.515625 1.265625 -0.515625q0.765625 0 1.28125 0.515625q0.515625 0.515625 0.515625 1.28125q0 0.734375 -0.515625 1.265625q-0.515625 0.515625 -1.28125 0.515625zm5.159424 17.71875l0 -14.953125l2.375 0l0 2.203125l0.125 0q0.578125 -1.09375 1.90625 -1.875q1.34375 -0.796875 2.9375 -0.796875q2.75 0 4.140625 1.59375q1.390625 1.59375 1.390625 4.234375l0 9.59375l-2.484375 0l0 -9.203125q0 -2.171875 -1.046875 -3.0625q-1.046875 -0.90625 -2.6875 -0.90625q-1.234375 0 -2.171875 0.6875q-0.9375 0.6875 -1.46875 1.78125q-0.515625 1.078125 -0.515625 2.28125l0 8.421875l-2.5 0zm23.109314 0.46875q-2.171875 0 -3.859375 -1.015625q-1.671875 -1.03125 -2.625 -2.8125q-0.953125 -1.796875 -0.953125 -4.09375q0 -2.140625 0.890625 -3.953125q0.890625 -1.828125 2.515625 -2.921875q1.625 -1.09375 3.828125 -1.09375q2.234375 0 3.828125 0.984375q1.59375 0.96875 2.453125 2.703125q0.875 1.734375 0.875 3.96875q0 0.203125 -0.015625 0.40625q-0.015625 0.203125 -0.046875 0.34375l-12.875 0l0 -2.046875l10.296875 0q-0.03125 -0.609375 -0.28125 -1.328125q-0.25 -0.71875 -0.796875 -1.34375q-0.53125 -0.640625 -1.375 -1.03125q-0.828125 -0.40625 -2.0625 -0.40625q-1.46875 0 -2.546875 0.75q-1.0625 0.75 -1.640625 2.046875q-0.5625 1.28125 -0.5625 2.921875q0 1.90625 0.734375 3.171875q0.734375 1.265625 1.890625 1.890625q1.15625 0.609375 2.421875 0.609375q1.640625 0 2.703125 -0.78125q1.078125 -0.78125 1.71875 -1.921875l2.125 1.03125q-0.890625 1.6875 -2.53125 2.8125q-1.640625 1.109375 -4.109375 1.109375zm9.855469 -0.46875l0 -14.953125l2.375 0l0 2.40625l0.125 0q0.296875 -0.859375 0.984375 -1.484375q0.6875 -0.625 1.578125 -0.984375q0.890625 -0.375 1.78125 -0.375q0.671875 0 1.046875 0.078125q0.390625 0.0625 0.703125 0.203125l0 2.703125q-0.46875 -0.234375 -1.015625 -0.34375q-0.53125 -0.125 -1.09375 -0.125q-1.078125 0 -2.0 0.625q-0.90625 0.609375 -1.453125 1.640625q-0.53125 1.015625 -0.53125 2.25l0 8.359375l-2.5 0z" fill-rule="nonzero"/><path fill="#efefef" d="m407.5168 216.37003l0 0c0 -11.677933 9.466827 -21.144775 21.144775 -21.144775l284.82852 0c5.607971 0 10.986206 2.2277527 14.95166 6.193161c3.965393 3.9654236 6.193115 9.343674 6.193115 14.951614l0 84.5766c0 11.6779175 -9.466797 21.144775 -21.144775 21.144775l-284.82852 0l0 0c-11.677948 0 -21.144775 -9.466858 -21.144775 -21.144775z" fill-rule="evenodd"/><path stroke="#000000" stroke-width="2.0" stroke-linejoin="round" stroke-linecap="butt" d="m407.5168 216.37003l0 0c0 -11.677933 9.466827 -21.144775 21.144775 -21.144775l284.82852 0c5.607971 0 10.986206 2.2277527 14.95166 6.193161c3.965393 3.9654236 6.193115 9.343674 6.193115 14.951614l0 84.5766c0 11.6779175 -9.466797 21.144775 -21.144775 21.144775l-284.82852 0l0 0c-11.677948 0 -21.144775 -9.466858 -21.144775 -21.144775z" fill-rule="evenodd"/><path fill="#000000" d="m494.60037 269.31833l0 -21.0l2.5 0l0 18.625l9.171875 0l0 2.375l-11.671875 0zm20.966644 0.46875q-2.25 0 -3.9844055 -1.046875q-1.734375 -1.0625 -2.71875 -2.859375q-0.96875 -1.8125 -0.96875 -4.046875q0 -2.21875 0.96875 -4.015625q0.984375 -1.8125 2.71875 -2.859375q1.7344055 -1.0625 3.9844055 -1.0625q2.265625 0 3.984375 1.078125q1.734375 1.0625 2.71875 2.875q0.984375 1.796875 0.984375 3.984375q0 2.234375 -0.984375 4.046875q-0.984375 1.796875 -2.71875 2.859375q-1.71875 1.046875 -3.984375 1.046875zm0 -2.25q1.359375 0 2.546875 -0.671875q1.1875 -0.6875 1.921875 -1.953125q0.734375 -1.28125 0.734375 -3.078125q0 -1.78125 -0.734375 -3.046875q-0.734375 -1.28125 -1.921875 -1.953125q-1.1875 -0.6875 -2.546875 -0.6875q-1.34375 0 -2.546875 0.6875q-1.2031555 0.671875 -1.9375305 1.953125q-0.734375 1.265625 -0.734375 3.046875q0 1.796875 0.734375 3.078125q0.734375 1.265625 1.9375305 1.953125q1.203125 0.671875 2.546875 0.671875zm17.167053 8.578125q-1.90625 0 -3.28125 -0.625q-1.359375 -0.625 -2.203125 -1.59375q-0.828125 -0.96875 -1.171875 -1.96875l2.28125 -0.96875q0.46875 1.234375 1.59375 2.0625q1.140625 0.84375 2.78125 0.84375q2.34375 0 3.59375 -1.375q1.265625 -1.359375 1.265625 -3.78125l0 -1.671875l-0.109375 0q-0.703125 1.078125 -2.03125 1.828125q-1.3125 0.75 -3.078125 0.75q-1.9375 0 -3.53125 -1.0q-1.59375 -1.0 -2.53125 -2.765625q-0.9375 -1.78125 -0.9375 -4.09375q0 -2.328125 0.9375 -4.09375q0.9375 -1.78125 2.53125 -2.765625q1.59375 -1.0 3.53125 -1.0q1.765625 0 3.078125 0.75q1.328125 0.734375 2.03125 1.859375l0.109375 0l0 -2.140625l2.375 0l0 14.359375q0 2.5 -0.953125 4.140625q-0.953125 1.640625 -2.578125 2.4375q-1.625 0.8125 -3.703125 0.8125zm0 -8.765625q1.3125 0 2.421875 -0.65625q1.125 -0.65625 1.78125 -1.921875q0.65625 -1.265625 0.65625 -3.015625q0 -1.828125 -0.65625 -3.0625q-0.65625 -1.25 -1.78125 -1.890625q-1.109375 -0.65625 -2.421875 -0.65625q-1.328125 0 -2.4375 0.671875q-1.109375 0.65625 -1.796875 1.90625q-0.671875 1.234375 -0.671875 3.03125q0 1.78125 0.671875 3.03125q0.6875 1.25 1.796875 1.90625q1.109375 0.65625 2.4375 0.65625zm11.1651 1.96875l0 -14.953125l2.5 0l0 14.953125l-2.5 0zm1.234375 -17.71875q-0.734375 0 -1.265625 -0.515625q-0.515625 -0.53125 -0.515625 -1.265625q0 -0.765625 0.515625 -1.28125q0.53125 -0.515625 1.265625 -0.515625q0.765625 0 1.28125 0.515625q0.515625 0.515625 0.515625 1.28125q0 0.734375 -0.515625 1.265625q-0.515625 0.515625 -1.28125 0.515625zm3.9971313 2.765625l8.765625 0l0 2.25l-8.765625 0l0 -2.25zm2.609375 11.015625l0 -15.25l2.484375 0l0 14.640625q0 1.171875 0.484375 1.828125q0.484375 0.640625 1.59375 0.640625q0.5 0 0.90625 -0.140625q0.421875 -0.15625 0.75 -0.359375l0 2.4375q-0.390625 0.171875 -0.84375 0.265625q-0.453125 0.109375 -1.21875 0.109375q-1.875 0 -3.015625 -1.09375q-1.140625 -1.109375 -1.140625 -3.078125zm14.623108 4.40625q-1.671875 0 -2.953125 -0.53125q-1.265625 -0.546875 -2.109375 -1.46875q-0.828125 -0.9375 -1.234375 -2.015625l2.21875 -1.0q0.59375 1.34375 1.703125 2.078125q1.125 0.734375 2.5625 0.734375q1.375 0 2.296875 -0.546875q0.921875 -0.5625 0.921875 -1.65625q0 -0.671875 -0.390625 -1.125q-0.375 -0.453125 -1.109375 -0.765625q-0.734375 -0.328125 -1.78125 -0.59375l-1.828125 -0.46875q-1.046875 -0.296875 -1.984375 -0.8125q-0.9375 -0.53125 -1.515625 -1.359375q-0.5625 -0.84375 -0.5625 -2.046875q0 -1.359375 0.78125 -2.328125q0.796875 -0.96875 2.078125 -1.46875q1.296875 -0.515625 2.765625 -0.515625q1.296875 0 2.421875 0.375q1.125 0.359375 1.96875 1.078125q0.859375 0.71875 1.296875 1.765625l-2.171875 1.0q-0.546875 -1.109375 -1.5 -1.546875q-0.9375 -0.453125 -2.078125 -0.453125q-1.234375 0 -2.140625 0.546875q-0.90625 0.546875 -0.90625 1.484375q0 0.9375 0.75 1.40625q0.75 0.46875 1.828125 0.765625l2.171875 0.546875q2.203125 0.5625 3.3125 1.671875q1.125 1.09375 1.125 2.671875q0 1.40625 -0.796875 2.4375q-0.796875 1.03125 -2.15625 1.59375q-1.34375 0.546875 -2.984375 0.546875zm15.95752 -0.46875l0 -21.0l2.5 0l0 21.0l-2.5 0zm1.328125 -9.5625l0 -2.375l12.546875 0l0 2.375l-12.546875 0zm11.953125 9.5625l0 -21.0l2.5 0l0 21.0l-2.5 0zm13.052734 0.46875q-2.171875 0 -3.859375 -1.015625q-1.671875 -1.03125 -2.625 -2.8125q-0.953125 -1.796875 -0.953125 -4.09375q0 -2.140625 0.890625 -3.953125q0.890625 -1.828125 2.515625 -2.921875q1.625 -1.09375 3.828125 -1.09375q2.234375 0 3.828125 0.984375q1.59375 0.96875 2.453125 2.703125q0.875 1.734375 0.875 3.96875q0 0.203125 -0.015625 0.40625q-0.015625 0.203125 -0.046875 0.34375l-12.875 0l0 -2.046875l10.296875 0q-0.03125 -0.609375 -0.28125 -1.328125q-0.25 -0.71875 -0.796875 -1.34375q-0.53125 -0.640625 -1.375 -1.03125q-0.828125 -0.40625 -2.0625 -0.40625q-1.46875 0 -2.546875 0.75q-1.0625 0.75 -1.640625 2.046875q-0.5625 1.28125 -0.5625 2.921875q0 1.90625 0.734375 3.171875q0.734375 1.265625 1.890625 1.890625q1.15625 0.609375 2.421875 0.609375q1.640625 0 2.703125 -0.78125q1.078125 -0.78125 1.71875 -1.921875l2.125 1.03125q-0.890625 1.6875 -2.53125 2.8125q-1.640625 1.109375 -4.109375 1.109375zm14.783386 0q-1.671875 0 -2.9375 -0.640625q-1.25 -0.65625 -1.96875 -1.78125q-0.71875 -1.125 -0.71875 -2.5625q0 -1.640625 0.84375 -2.765625q0.859375 -1.140625 2.296875 -1.703125q1.4375 -0.578125 3.15625 -0.578125q1.0 0 1.84375 0.171875q0.859375 0.15625 1.484375 0.375q0.640625 0.21875 0.953125 0.421875l0 -0.90625q0 -1.703125 -1.203125 -2.703125q-1.1875 -1.0 -2.921875 -1.0q-1.234375 0 -2.3125 0.546875q-1.0625 0.546875 -1.6875 1.515625l-1.875 -1.40625q0.59375 -0.890625 1.46875 -1.53125q0.890625 -0.640625 2.015625 -0.984375q1.125 -0.359375 2.390625 -0.359375q3.046875 0 4.765625 1.609375q1.734375 1.609375 1.734375 4.34375l0 9.46875l-2.375 0l0 -2.140625l-0.109375 0q-0.375 0.640625 -1.09375 1.25q-0.703125 0.59375 -1.65625 0.96875q-0.953125 0.390625 -2.09375 0.390625zm0.234375 -2.203125q1.296875 0 2.359375 -0.640625q1.078125 -0.640625 1.71875 -1.71875q0.640625 -1.09375 0.640625 -2.390625q-0.671875 -0.46875 -1.6875 -0.75q-1.0 -0.296875 -2.203125 -0.296875q-2.140625 0 -3.140625 0.875q-1.0 0.875 -1.0 2.171875q0 1.234375 0.9375 2.0q0.9375 0.75 2.375 0.75zm16.785889 2.203125q-2.03125 0 -3.65625 -1.015625q-1.625 -1.03125 -2.5625 -2.8125q-0.9375 -1.796875 -0.9375 -4.125q0 -2.3125 0.9375 -4.09375q0.9375 -1.796875 2.5625 -2.8125q1.625 -1.03125 3.65625 -1.03125q1.203125 0 2.1875 0.390625q1.0 0.375 1.75 0.984375q0.75 0.609375 1.15625 1.3125l0.125 0l-0.125 -2.078125l0 -6.1875l2.5 0l0 21.0l-2.375 0l0 -2.203125l-0.125 0q-0.40625 0.671875 -1.15625 1.296875q-0.75 0.609375 -1.75 0.984375q-0.984375 0.390625 -2.1875 0.390625zm0.25 -2.25q1.296875 0 2.421875 -0.6875q1.140625 -0.703125 1.84375 -1.96875q0.703125 -1.28125 0.703125 -3.046875q0 -1.75 -0.703125 -3.03125q-0.703125 -1.28125 -1.84375 -1.96875q-1.125 -0.6875 -2.421875 -0.6875q-1.28125 0 -2.421875 0.6875q-1.125 0.6875 -1.828125 1.96875q-0.703125 1.28125 -0.703125 3.03125q0 1.734375 0.703125 3.03125q0.703125 1.28125 1.828125 1.984375q1.140625 0.6875 2.421875 0.6875z" fill-rule="nonzero"/><path fill="#000000" fill-opacity="0.0" d="m571.07587 1091.2538l0 -100.66144" fill-rule="evenodd"/><path stroke="#000000" stroke-width="2.0" stroke-linejoin="round" stroke-linecap="butt" d="m571.07587 1091.2538l0 -88.66144" fill-rule="evenodd"/><path fill="#000000" stroke="#000000" stroke-width="2.0" stroke-linecap="butt" d="m574.37933 1002.59235l-3.3034668 -9.076172l-3.3034668 9.076172z" fill-rule="evenodd"/><path fill="#efefef" d="m810.1675 884.871l0 0c0 -11.6779175 9.466797 -21.144775 21.144775 -21.144775l284.8285 0c5.608032 0 10.986206 2.2277832 14.95166 6.1931763c3.965454 3.965454 6.193115 9.343689 6.193115 14.951599l0 84.5766c0 11.6779785 -9.466797 21.144775 -21.144775 21.144775l-284.8285 0l0 0c-11.6779785 0 -21.144775 -9.466797 -21.144775 -21.144775z" fill-rule="evenodd"/><path stroke="#000000" stroke-width="2.0" stroke-linejoin="round" stroke-linecap="butt" d="m810.1675 884.871l0 0c0 -11.6779175 9.466797 -21.144775 21.144775 -21.144775l284.8285 0c5.608032 0 10.986206 2.2277832 14.95166 6.1931763c3.965454 3.965454 6.193115 9.343689 6.193115 14.951599l0 84.5766c0 11.6779785 -9.466797 21.144775 -21.144775 21.144775l-284.8285 0l0 0c-11.6779785 0 -21.144775 -9.466797 -21.144775 -21.144775z" fill-rule="evenodd"/><path fill="#000000" d="m853.87634 937.8193l0 -19.5l2.5 0l0 19.5l-2.5 0zm-5.890625 -18.625l0 -2.375l14.25 0l0 2.375l-14.25 0zm15.09668 18.625l0 -14.953125l2.375 0l0 2.40625l0.125 0q0.296875 -0.859375 0.984375 -1.484375q0.6875 -0.625 1.578125 -0.984375q0.890625 -0.375 1.78125 -0.375q0.671875 0 1.046875 0.078125q0.390625 0.0625 0.703125 0.203125l0 2.703125q-0.46875 -0.234375 -1.015625 -0.34375q-0.53125 -0.125 -1.09375 -0.125q-1.078125 0 -2.0 0.625q-0.90625 0.609375 -1.453125 1.640625q-0.53125 1.015625 -0.53125 2.25l0 8.359375l-2.5 0zm16.774292 0.46875q-2.171875 0 -3.859375 -1.015625q-1.671875 -1.03125 -2.625 -2.8125q-0.953125 -1.796875 -0.953125 -4.09375q0 -2.140625 0.890625 -3.953125q0.890625 -1.828125 2.515625 -2.921875q1.625 -1.09375 3.828125 -1.09375q2.234375 0 3.828125 0.984375q1.59375 0.96875 2.453125 2.703125q0.875 1.734375 0.875 3.96875q0 0.203125 -0.015625 0.40625q-0.015625 0.203125 -0.046875 0.34375l-12.875 0l0 -2.046875l10.296875 0q-0.03125 -0.609375 -0.28125 -1.328125q-0.25 -0.71875 -0.796875 -1.34375q-0.53125 -0.640625 -1.375 -1.03125q-0.828125 -0.40625 -2.0625 -0.40625q-1.46875 0 -2.546875 0.75q-1.0625 0.75 -1.640625 2.046875q-0.5625 1.28125 -0.5625 2.921875q0 1.90625 0.734375 3.171875q0.734375 1.265625 1.890625 1.890625q1.15625 0.609375 2.421875 0.609375q1.640625 0 2.703125 -0.78125q1.078125 -0.78125 1.71875 -1.921875l2.125 1.03125q-0.890625 1.6875 -2.53125 2.8125q-1.640625 1.109375 -4.109375 1.109375zm14.783386 0q-1.671875 0 -2.9375 -0.640625q-1.25 -0.65625 -1.96875 -1.78125q-0.71875 -1.125 -0.71875 -2.5625q0 -1.640625 0.84375 -2.765625q0.859375 -1.140625 2.296875 -1.703125q1.4375 -0.578125 3.15625 -0.578125q1.0 0 1.84375 0.171875q0.859375 0.15625 1.484375 0.375q0.640625 0.21875 0.953125 0.421875l0 -0.90625q0 -1.703125 -1.203125 -2.703125q-1.1875 -1.0 -2.921875 -1.0q-1.234375 0 -2.3125 0.546875q-1.0625 0.546875 -1.6875 1.515625l-1.875 -1.40625q0.59375 -0.890625 1.46875 -1.53125q0.890625 -0.640625 2.015625 -0.984375q1.125 -0.359375 2.390625 -0.359375q3.046875 0 4.765625 1.609375q1.734375 1.609375 1.734375 4.34375l0 9.46875l-2.375 0l0 -2.140625l-0.109375 0q-0.375 0.640625 -1.09375 1.25q-0.703125 0.59375 -1.65625 0.96875q-0.953125 0.390625 -2.09375 0.390625zm0.234375 -2.203125q1.296875 0 2.359375 -0.640625q1.078125 -0.640625 1.71875 -1.71875q0.640625 -1.09375 0.640625 -2.390625q-0.671875 -0.46875 -1.6875 -0.75q-1.0 -0.296875 -2.203125 -0.296875q-2.140625 0 -3.140625 0.875q-1.0 0.875 -1.0 2.171875q0 1.234375 0.9375 2.0q0.9375 0.75 2.375 0.75zm9.248596 -13.21875l8.765625 0l0 2.25l-8.765625 0l0 -2.25zm2.609375 11.015625l0 -15.25l2.484375 0l0 14.640625q0 1.171875 0.484375 1.828125q0.484375 0.640625 1.59375 0.640625q0.5 0 0.90625 -0.140625q0.421875 -0.15625 0.75 -0.359375l0 2.4375q-0.390625 0.171875 -0.84375 0.265625q-0.453125 0.109375 -1.21875 0.109375q-1.875 0 -3.015625 -1.09375q-1.140625 -1.109375 -1.140625 -3.078125zm9.25769 3.9375l0 -14.953125l2.375 0l0 2.203125l0.125 0q0.40625 -0.734375 1.125 -1.328125q0.71875 -0.609375 1.640625 -0.96875q0.921875 -0.375 1.890625 -0.375q1.671875 0 2.875 0.8125q1.203125 0.796875 1.734375 2.09375q0.765625 -1.265625 2.046875 -2.078125q1.296875 -0.828125 3.078125 -0.828125q2.671875 0 3.9375 1.609375q1.265625 1.609375 1.265625 4.21875l0 9.59375l-2.46875 0l0 -9.203125q0 -2.171875 -0.890625 -3.0625q-0.875 -0.90625 -2.484375 -0.90625q-1.140625 0 -2.046875 0.671875q-0.890625 0.65625 -1.40625 1.734375q-0.5 1.0625 -0.5 2.3125l0 8.453125l-2.5 0l0 -9.1875q0 -2.15625 -0.875 -3.0625q-0.875 -0.921875 -2.46875 -0.921875q-1.140625 0 -2.046875 0.6875q-0.890625 0.671875 -1.40625 1.75q-0.5 1.078125 -0.5 2.34375l0 8.390625l-2.5 0zm32.31836 0.46875q-2.171875 0 -3.859375 -1.015625q-1.671875 -1.03125 -2.625 -2.8125q-0.953125 -1.796875 -0.953125 -4.09375q0 -2.140625 0.890625 -3.953125q0.890625 -1.828125 2.515625 -2.921875q1.625 -1.09375 3.828125 -1.09375q2.234375 0 3.828125 0.984375q1.59375 0.96875 2.453125 2.703125q0.875 1.734375 0.875 3.96875q0 0.203125 -0.015625 0.40625q-0.015625 0.203125 -0.046875 0.34375l-12.875 0l0 -2.046875l10.296875 0q-0.03125 -0.609375 -0.28125 -1.328125q-0.25 -0.71875 -0.796875 -1.34375q-0.53125 -0.640625 -1.375 -1.03125q-0.828125 -0.40625 -2.0625 -0.40625q-1.46875 0 -2.546875 0.75q-1.0625 0.75 -1.640625 2.046875q-0.5625 1.28125 -0.5625 2.921875q0 1.90625 0.734375 3.171875q0.734375 1.265625 1.890625 1.890625q1.15625 0.609375 2.421875 0.609375q1.640625 0 2.703125 -0.78125q1.078125 -0.78125 1.71875 -1.921875l2.125 1.03125q-0.890625 1.6875 -2.53125 2.8125q-1.640625 1.109375 -4.109375 1.109375zm9.855469 -0.46875l0 -14.953125l2.375 0l0 2.203125l0.125 0q0.578125 -1.09375 1.90625 -1.875q1.34375 -0.796875 2.9375 -0.796875q2.75 0 4.140625 1.59375q1.390625 1.59375 1.390625 4.234375l0 9.59375l-2.484375 0l0 -9.203125q0 -2.171875 -1.046875 -3.0625q-1.046875 -0.90625 -2.6875 -0.90625q-1.234375 0 -2.171875 0.6875q-0.9375 0.6875 -1.46875 1.78125q-0.515625 1.078125 -0.515625 2.28125l0 8.421875l-2.5 0zm14.704102 -14.953125l8.765625 0l0 2.25l-8.765625 0l0 -2.25zm2.609375 11.015625l0 -15.25l2.484375 0l0 14.640625q0 1.171875 0.484375 1.828125q0.484375 0.640625 1.59375 0.640625q0.5 0 0.90625 -0.140625q0.421875 -0.15625 0.75 -0.359375l0 2.4375q-0.390625 0.171875 -0.84375 0.265625q-0.453125 0.109375 -1.21875 0.109375q-1.875 0 -3.015625 -1.09375q-1.140625 -1.109375 -1.140625 -3.078125zm16.4151 3.9375l0 -21.0l12.140625 0l0 2.375l-9.640625 0l0 16.25l9.640625 0l0 2.375l-12.140625 0zm1.328125 -9.328125l0 -2.34375l9.875 0l0 2.34375l-9.875 0zm14.03833 9.328125l0 -14.953125l2.375 0l0 2.203125l0.125 0q0.578125 -1.09375 1.90625 -1.875q1.34375 -0.796875 2.9375 -0.796875q2.75 0 4.140625 1.59375q1.390625 1.59375 1.390625 4.234375l0 9.59375l-2.484375 0l0 -9.203125q0 -2.171875 -1.046875 -3.0625q-1.046875 -0.90625 -2.6875 -0.90625q-1.234375 0 -2.171875 0.6875q-0.9375 0.6875 -1.46875 1.78125q-0.515625 1.078125 -0.515625 2.28125l0 8.421875l-2.5 0zm23.234314 0.46875q-2.203125 0 -3.921875 -1.03125q-1.71875 -1.046875 -2.6875 -2.84375q-0.953125 -1.8125 -0.953125 -4.078125q0 -2.28125 0.953125 -4.0625q0.96875 -1.796875 2.6875 -2.828125q1.71875 -1.046875 3.921875 -1.046875q2.515625 0 4.140625 1.15625q1.640625 1.15625 2.3125 2.96875l-2.265625 0.9375q-0.546875 -1.375 -1.65625 -2.09375q-1.09375 -0.71875 -2.65625 -0.71875q-1.3125 0 -2.453125 0.703125q-1.125 0.703125 -1.828125 1.984375q-0.703125 1.28125 -0.703125 3.0q0 1.703125 0.703125 3.0q0.703125 1.28125 1.828125 2.0q1.140625 0.703125 2.453125 0.703125q1.59375 0 2.734375 -0.734375q1.140625 -0.734375 1.703125 -2.09375l2.21875 0.9375q-0.734375 1.734375 -2.375 2.9375q-1.640625 1.203125 -4.15625 1.203125zm15.97583 0q-2.25 0 -3.984375 -1.046875q-1.734375 -1.0625 -2.71875 -2.859375q-0.96875 -1.8125 -0.96875 -4.046875q0 -2.21875 0.96875 -4.015625q0.984375 -1.8125 2.71875 -2.859375q1.734375 -1.0625 3.984375 -1.0625q2.265625 0 3.984375 1.078125q1.734375 1.0625 2.71875 2.875q0.984375 1.796875 0.984375 3.984375q0 2.234375 -0.984375 4.046875q-0.984375 1.796875 -2.71875 2.859375q-1.71875 1.046875 -3.984375 1.046875zm0 -2.25q1.359375 0 2.546875 -0.671875q1.1875 -0.6875 1.921875 -1.953125q0.734375 -1.28125 0.734375 -3.078125q0 -1.78125 -0.734375 -3.046875q-0.734375 -1.28125 -1.921875 -1.953125q-1.1875 -0.6875 -2.546875 -0.6875q-1.34375 0 -2.546875 0.6875q-1.203125 0.671875 -1.9375 1.953125q-0.734375 1.265625 -0.734375 3.046875q0 1.796875 0.734375 3.078125q0.734375 1.265625 1.9375 1.953125q1.203125 0.671875 2.546875 0.671875zm16.96399 2.25q-2.03125 0 -3.65625 -1.015625q-1.625 -1.03125 -2.5625 -2.8125q-0.9375 -1.796875 -0.9375 -4.125q0 -2.3125 0.9375 -4.09375q0.9375 -1.796875 2.5625 -2.8125q1.625 -1.03125 3.65625 -1.03125q1.203125 0 2.1875 0.390625q1.0 0.375 1.75 0.984375q0.75 0.609375 1.15625 1.3125l0.125 0l-0.125 -2.078125l0 -6.1875l2.5 0l0 21.0l-2.375 0l0 -2.203125l-0.125 0q-0.40625 0.671875 -1.15625 1.296875q-0.75 0.609375 -1.75 0.984375q-0.984375 0.390625 -2.1875 0.390625zm0.25 -2.25q1.296875 0 2.421875 -0.6875q1.140625 -0.703125 1.84375 -1.96875q0.703125 -1.28125 0.703125 -3.046875q0 -1.75 -0.703125 -3.03125q-0.703125 -1.28125 -1.84375 -1.96875q-1.125 -0.6875 -2.421875 -0.6875q-1.28125 0 -2.421875 0.6875q-1.125 0.6875 -1.828125 1.96875q-0.703125 1.28125 -0.703125 3.03125q0 1.734375 0.703125 3.03125q0.703125 1.28125 1.828125 1.984375q1.140625 0.6875 2.421875 0.6875zm17.54004 2.25q-2.171875 0 -3.859375 -1.015625q-1.671875 -1.03125 -2.625 -2.8125q-0.953125 -1.796875 -0.953125 -4.09375q0 -2.140625 0.890625 -3.953125q0.890625 -1.828125 2.515625 -2.921875q1.625 -1.09375 3.828125 -1.09375q2.234375 0 3.828125 0.984375q1.59375 0.96875 2.453125 2.703125q0.875 1.734375 0.875 3.96875q0 0.203125 -0.015625 0.40625q-0.015625 0.203125 -0.046875 0.34375l-12.875 0l0 -2.046875l10.296875 0q-0.03125 -0.609375 -0.28125 -1.328125q-0.25 -0.71875 -0.796875 -1.34375q-0.53125 -0.640625 -1.375 -1.03125q-0.828125 -0.40625 -2.0625 -0.40625q-1.46875 0 -2.546875 0.75q-1.0625 0.75 -1.640625 2.046875q-0.5625 1.28125 -0.5625 2.921875q0 1.90625 0.734375 3.171875q0.734375 1.265625 1.890625 1.890625q1.15625 0.609375 2.421875 0.609375q1.640625 0 2.703125 -0.78125q1.078125 -0.78125 1.71875 -1.921875l2.125 1.03125q-0.890625 1.6875 -2.53125 2.8125q-1.640625 1.109375 -4.109375 1.109375zm9.855469 -0.46875l0 -14.953125l2.375 0l0 2.40625l0.125 0q0.296875 -0.859375 0.984375 -1.484375q0.6875 -0.625 1.578125 -0.984375q0.890625 -0.375 1.78125 -0.375q0.671875 0 1.046875 0.078125q0.390625 0.0625 0.703125 0.203125l0 2.703125q-0.46875 -0.234375 -1.015625 -0.34375q-0.53125 -0.125 -1.09375 -0.125q-1.078125 0 -2.0 0.625q-0.90625 0.609375 -1.453125 1.640625q-0.53125 1.015625 -0.53125 2.25l0 8.359375l-2.5 0z" fill-rule="nonzero"/><path fill="#efefef" d="m10.516481 884.871l0 0c0 -11.6779175 9.466841 -21.144775 21.14478 -21.144775l284.82855 0c5.6079407 0 10.986206 2.2277832 14.95163 6.1931763c3.965393 3.965454 6.1931458 9.343689 6.1931458 14.951599l0 84.5766c0 11.6779785 -9.466827 21.144775 -21.144775 21.144775l-284.82855 0l0 0c-11.677938 0 -21.14478 -9.466797 -21.14478 -21.144775z" fill-rule="evenodd"/><path stroke="#000000" stroke-width="2.0" stroke-linejoin="round" stroke-linecap="butt" d="m10.516481 884.871l0 0c0 -11.6779175 9.466841 -21.144775 21.14478 -21.144775l284.82855 0c5.6079407 0 10.986206 2.2277832 14.95163 6.1931763c3.965393 3.965454 6.1931458 9.343689 6.1931458 14.951599l0 84.5766c0 11.6779785 -9.466827 21.144775 -21.144775 21.144775l-284.82855 0l0 0c-11.677938 0 -21.14478 -9.466797 -21.14478 -21.144775z" fill-rule="evenodd"/><path fill="#000000" d="m78.33686 938.288q-2.3125 0 -4.296875 -0.828125q-1.984375 -0.84375 -3.46875 -2.328125q-1.46875 -1.484375 -2.296875 -3.484375q-0.828125 -2.015625 -0.828125 -4.328125q0 -2.34375 0.828125 -4.328125q0.828125 -2.0 2.296875 -3.484375q1.484375 -1.484375 3.46875 -2.3125q1.984375 -0.84375 4.296875 -0.84375q1.609375 0 3.0 0.421875q1.390625 0.40625 2.5625 1.171875q1.1875 0.75 2.125 1.84375l-1.796875 1.71875q-0.796875 -0.96875 -1.6875 -1.578125q-0.890625 -0.609375 -1.9375 -0.90625q-1.03125 -0.296875 -2.265625 -0.296875q-2.265625 0 -4.171875 1.0625q-1.90625 1.046875 -3.046875 2.96875q-1.140625 1.921875 -1.140625 4.5625q0 2.609375 1.140625 4.546875q1.140625 1.9375 3.046875 3.0q1.90625 1.046875 4.171875 1.046875q1.375 0 2.53125 -0.375q1.15625 -0.390625 2.140625 -1.09375q0.984375 -0.703125 1.8125 -1.671875l1.8125 1.765625q-0.90625 1.078125 -2.1875 1.9375q-1.265625 0.84375 -2.8125 1.328125q-1.546875 0.484375 -3.296875 0.484375zm17.676712 0q-2.25 0 -3.984375 -1.046875q-1.734375 -1.0625 -2.71875 -2.859375q-0.96875 -1.8125 -0.96875 -4.046875q0 -2.21875 0.96875 -4.015625q0.984375 -1.8125 2.71875 -2.859375q1.734375 -1.0625 3.984375 -1.0625q2.265625 0 3.984375 1.078125q1.734375 1.0625 2.71875 2.875q0.984375 1.796875 0.984375 3.984375q0 2.234375 -0.984375 4.046875q-0.984375 1.796875 -2.71875 2.859375q-1.71875 1.046875 -3.984375 1.046875zm0 -2.25q1.359375 0 2.546875 -0.671875q1.1875 -0.6875 1.921875 -1.953125q0.734375 -1.28125 0.734375 -3.078125q0 -1.78125 -0.734375 -3.046875q-0.734375 -1.28125 -1.921875 -1.953125q-1.1875 -0.6875 -2.546875 -0.6875q-1.34375 0 -2.546875 0.6875q-1.203125 0.671875 -1.9375 1.953125q-0.734375 1.265625 -0.734375 3.046875q0 1.796875 0.734375 3.078125q0.734375 1.265625 1.9375 1.953125q1.203125 0.671875 2.546875 0.671875zm10.295593 1.78125l0 -14.953125l2.375 0l0 2.203125l0.125 0q0.578125 -1.09375 1.90625 -1.875q1.34375 -0.796875 2.9375 -0.796875q2.75 0 4.140625 1.59375q1.390625 1.59375 1.390625 4.234375l0 9.59375l-2.484375 0l0 -9.203125q0 -2.171875 -1.046875 -3.0625q-1.046875 -0.90625 -2.6875 -0.90625q-1.234375 0 -2.171875 0.6875q-0.9375 0.6875 -1.46875 1.78125q-0.515625 1.078125 -0.515625 2.28125l0 8.421875l-2.5 0zm14.704102 -14.953125l8.765617 0l0 2.25l-8.765617 0l0 -2.25zm2.609375 11.015625l0 -15.25l2.484375 0l0 14.640625q0 1.171875 0.484375 1.828125q0.484375 0.640625 1.5937424 0.640625q0.5 0 0.90625 -0.140625q0.421875 -0.15625 0.75 -0.359375l0 2.4375q-0.390625 0.171875 -0.84375 0.265625q-0.453125 0.109375 -1.2187424 0.109375q-1.875 0 -3.015625 -1.09375q-1.140625 -1.109375 -1.140625 -3.078125zm9.111 3.9375l0 -14.953125l2.375 0l0 2.40625l0.125 0q0.296875 -0.859375 0.984375 -1.484375q0.6875 -0.625 1.578125 -0.984375q0.890625 -0.375 1.78125 -0.375q0.671875 0 1.046875 0.078125q0.390625 0.0625 0.703125 0.203125l0 2.703125q-0.46875 -0.234375 -1.015625 -0.34375q-0.53125 -0.125 -1.09375 -0.125q-1.078125 0 -2.0 0.625q-0.90625 0.609375 -1.453125 1.640625q-0.53125 1.015625 -0.53125 2.25l0 8.359375l-2.5 0zm17.008682 0.46875q-2.25 0 -3.984375 -1.046875q-1.7343903 -1.0625 -2.7187653 -2.859375q-0.96875 -1.8125 -0.96875 -4.046875q0 -2.21875 0.96875 -4.015625q0.984375 -1.8125 2.7187653 -2.859375q1.734375 -1.0625 3.984375 -1.0625q2.265625 0 3.984375 1.078125q1.734375 1.0625 2.71875 2.875q0.984375 1.796875 0.984375 3.984375q0 2.234375 -0.984375 4.046875q-0.984375 1.796875 -2.71875 2.859375q-1.71875 1.046875 -3.984375 1.046875zm0 -2.25q1.359375 0 2.546875 -0.671875q1.1875 -0.6875 1.921875 -1.953125q0.734375 -1.28125 0.734375 -3.078125q0 -1.78125 -0.734375 -3.046875q-0.734375 -1.28125 -1.921875 -1.953125q-1.1875 -0.6875 -2.546875 -0.6875q-1.34375 0 -2.546875 0.6875q-1.203125 0.671875 -1.9375 1.953125q-0.73439026 1.265625 -0.73439026 3.046875q0 1.796875 0.73439026 3.078125q0.734375 1.265625 1.9375 1.953125q1.203125 0.671875 2.546875 0.671875zm10.442261 1.78125l0 -21.0l2.5 0l0 21.0l-2.5 0zm13.49234 0l0 -21.0l12.140625 0l0 2.375l-9.640625 0l0 16.25l9.640625 0l0 2.375l-12.140625 0zm1.328125 -9.328125l0 -2.34375l9.875 0l0 2.34375l-9.875 0zm14.03833 9.328125l0 -14.953125l2.375 0l0 2.203125l0.125 0q0.578125 -1.09375 1.90625 -1.875q1.34375 -0.796875 2.9375 -0.796875q2.75 0 4.140625 1.59375q1.390625 1.59375 1.390625 4.234375l0 9.59375l-2.484375 0l0 -9.203125q0 -2.171875 -1.046875 -3.0625q-1.046875 -0.90625 -2.6875 -0.90625q-1.234375 0 -2.171875 0.6875q-0.9375 0.6875 -1.46875 1.78125q-0.515625 1.078125 -0.515625 2.28125l0 8.421875l-2.5 0zm23.234314 0.46875q-2.203125 0 -3.921875 -1.03125q-1.71875 -1.046875 -2.6875 -2.84375q-0.953125 -1.8125 -0.953125 -4.078125q0 -2.28125 0.953125 -4.0625q0.96875 -1.796875 2.6875 -2.828125q1.71875 -1.046875 3.921875 -1.046875q2.515625 0 4.140625 1.15625q1.640625 1.15625 2.3125 2.96875l-2.265625 0.9375q-0.546875 -1.375 -1.65625 -2.09375q-1.09375 -0.71875 -2.65625 -0.71875q-1.3125 0 -2.453125 0.703125q-1.125 0.703125 -1.828125 1.984375q-0.703125 1.28125 -0.703125 3.0q0 1.703125 0.703125 3.0q0.703125 1.28125 1.828125 2.0q1.140625 0.703125 2.453125 0.703125q1.59375 0 2.734375 -0.734375q1.140625 -0.734375 1.703125 -2.09375l2.21875 0.9375q-0.734375 1.734375 -2.375 2.9375q-1.640625 1.203125 -4.15625 1.203125zm15.975861 0q-2.25 0 -3.984375 -1.046875q-1.734375 -1.0625 -2.71875 -2.859375q-0.96875 -1.8125 -0.96875 -4.046875q0 -2.21875 0.96875 -4.015625q0.984375 -1.8125 2.71875 -2.859375q1.734375 -1.0625 3.984375 -1.0625q2.265625 0 3.984375 1.078125q1.734375 1.0625 2.71875 2.875q0.984375 1.796875 0.984375 3.984375q0 2.234375 -0.984375 4.046875q-0.984375 1.796875 -2.71875 2.859375q-1.71875 1.046875 -3.984375 1.046875zm0 -2.25q1.359375 0 2.546875 -0.671875q1.1875 -0.6875 1.921875 -1.953125q0.734375 -1.28125 0.734375 -3.078125q0 -1.78125 -0.734375 -3.046875q-0.734375 -1.28125 -1.921875 -1.953125q-1.1875 -0.6875 -2.546875 -0.6875q-1.34375 0 -2.546875 0.6875q-1.203125 0.671875 -1.9375 1.953125q-0.734375 1.265625 -0.734375 3.046875q0 1.796875 0.734375 3.078125q0.734375 1.265625 1.9375 1.953125q1.203125 0.671875 2.546875 0.671875zm16.963928 2.25q-2.03125 0 -3.65625 -1.015625q-1.625 -1.03125 -2.5625 -2.8125q-0.9375 -1.796875 -0.9375 -4.125q0 -2.3125 0.9375 -4.09375q0.9375 -1.796875 2.5625 -2.8125q1.625 -1.03125 3.65625 -1.03125q1.203125 0 2.1875 0.390625q1.0 0.375 1.75 0.984375q0.75 0.609375 1.15625 1.3125l0.125 0l-0.125 -2.078125l0 -6.1875l2.5 0l0 21.0l-2.375 0l0 -2.203125l-0.125 0q-0.40625 0.671875 -1.15625 1.296875q-0.75 0.609375 -1.75 0.984375q-0.984375 0.390625 -2.1875 0.390625zm0.25 -2.25q1.296875 0 2.421875 -0.6875q1.140625 -0.703125 1.84375 -1.96875q0.703125 -1.28125 0.703125 -3.046875q0 -1.75 -0.703125 -3.03125q-0.703125 -1.28125 -1.84375 -1.96875q-1.125 -0.6875 -2.421875 -0.6875q-1.28125 0 -2.421875 0.6875q-1.125 0.6875 -1.828125 1.96875q-0.703125 1.28125 -0.703125 3.03125q0 1.734375 0.703125 3.03125q0.703125 1.28125 1.828125 1.984375q1.140625 0.6875 2.421875 0.6875zm17.540085 2.25q-2.171875 0 -3.859375 -1.015625q-1.671875 -1.03125 -2.625 -2.8125q-0.95310974 -1.796875 -0.95310974 -4.09375q0 -2.140625 0.89060974 -3.953125q0.890625 -1.828125 2.515625 -2.921875q1.625 -1.09375 3.828125 -1.09375q2.234375 0 3.828125 0.984375q1.59375 0.96875 2.453125 2.703125q0.875 1.734375 0.875 3.96875q0 0.203125 -0.015625 0.40625q-0.015625 0.203125 -0.046875 0.34375l-12.875 0l0 -2.046875l10.296875 0q-0.03125 -0.609375 -0.28125 -1.328125q-0.25 -0.71875 -0.796875 -1.34375q-0.53125 -0.640625 -1.375 -1.03125q-0.828125 -0.40625 -2.0625 -0.40625q-1.46875 0 -2.546875 0.75q-1.0625 0.75 -1.640625 2.046875q-0.5625 1.28125 -0.5625 2.921875q0 1.90625 0.734375 3.171875q0.734375 1.265625 1.890625 1.890625q1.15625 0.609375 2.421875 0.609375q1.640625 0 2.703125 -0.78125q1.078125 -0.78125 1.71875 -1.921875l2.125 1.03125q-0.890625 1.6875 -2.53125 2.8125q-1.640625 1.109375 -4.109375 1.109375zm9.855469 -0.46875l0 -14.953125l2.375 0l0 2.40625l0.125 0q0.296875 -0.859375 0.984375 -1.484375q0.6875 -0.625 1.578125 -0.984375q0.890625 -0.375 1.78125 -0.375q0.671875 0 1.046875 0.078125q0.390625 0.0625 0.703125 0.203125l0 2.703125q-0.46875 -0.234375 -1.015625 -0.34375q-0.53125 -0.125 -1.09375 -0.125q-1.078125 0 -2.0 0.625q-0.90625 0.609375 -1.453125 1.640625q-0.53125 1.015625 -0.53125 2.25l0 8.359375l-2.5 0z" fill-rule="nonzero"/><path fill="#000000" fill-opacity="0.0" d="m571.07086 1091.3291l0 -50.36621l402.6457 0l0 -50.358215" fill-rule="evenodd"/><path stroke="#000000" stroke-width="2.0" stroke-linejoin="round" stroke-linecap="butt" d="m571.07086 1091.3291l0 -50.36621l402.6457 0l0 -50.358215" fill-rule="evenodd"/><path fill="#000000" fill-opacity="0.0" d="m571.07086 1091.3291l0 -50.36621l-397.00787 0l0 -50.358215" fill-rule="evenodd"/><path stroke="#000000" stroke-width="2.0" stroke-linejoin="round" stroke-linecap="butt" d="m571.07086 1091.3291l0 -50.36621l-397.00787 0l0 -50.358215" fill-rule="evenodd"/><path fill="#000000" fill-opacity="0.0" d="m173.72908 1039.7577l0.3464508 -49.165344" fill-rule="evenodd"/><path stroke="#000000" stroke-width="2.0" stroke-linejoin="round" stroke-linecap="butt" d="m173.72908 1039.7577l0.26190186 -37.16565" fill-rule="evenodd"/><path fill="#000000" stroke="#000000" stroke-width="2.0" stroke-linecap="butt" d="m177.29437 1002.61536l-3.239441 -9.099243l-3.3673248 9.052673z" fill-rule="evenodd"/><path fill="#000000" fill-opacity="0.0" d="m973.53815 1039.7803l0.34643555 -49.165344" fill-rule="evenodd"/><path stroke="#000000" stroke-width="2.0" stroke-linejoin="round" stroke-linecap="butt" d="m973.53815 1039.7803l0.26190186 -37.16571" fill-rule="evenodd"/><path fill="#000000" stroke="#000000" stroke-width="2.0" stroke-linecap="butt" d="m977.1034 1002.6379l-3.23938 -9.099243l-3.3673706 9.052673z" fill-rule="evenodd"/><path fill="#efefef" d="m201.83073 449.2216l0 0c0 -11.677948 9.466843 -21.144775 21.14479 -21.144775l284.82855 0c5.60791 0 10.986206 2.2277527 14.951599 6.1931458c3.965454 3.9654236 6.1931763 9.343689 6.1931763 14.95163l0 84.57657c0 11.6779785 -9.466858 21.144775 -21.144775 21.144775l-284.82855 0l0 0c-11.677948 0 -21.14479 -9.466797 -21.14479 -21.144775z" fill-rule="evenodd"/><path stroke="#000000" stroke-width="2.0" stroke-linejoin="round" stroke-linecap="butt" d="m201.83073 449.2216l0 0c0 -11.677948 9.466843 -21.144775 21.14479 -21.144775l284.82855 0c5.60791 0 10.986206 2.2277527 14.951599 6.1931458c3.965454 3.9654236 6.1931763 9.343689 6.1931763 14.95163l0 84.57657c0 11.6779785 -9.466858 21.144775 -21.144775 21.144775l-284.82855 0l0 0c-11.677948 0 -21.14479 -9.466797 -21.14479 -21.144775z" fill-rule="evenodd"/><path fill="#000000" d="m285.26865 502.63864q-2.3125 0 -4.296875 -0.828125q-1.984375 -0.84375 -3.46875 -2.328125q-1.46875 -1.484375 -2.296875 -3.484375q-0.828125 -2.015625 -0.828125 -4.328125q0 -2.34375 0.828125 -4.328125q0.828125 -2.0 2.296875 -3.484375q1.484375 -1.484375 3.46875 -2.3125q1.984375 -0.84375 4.296875 -0.84375q1.609375 0 3.0 0.421875q1.390625 0.40625 2.5625 1.171875q1.1875 0.75 2.125 1.84375l-1.796875 1.71875q-0.796875 -0.96875 -1.6875 -1.578125q-0.890625 -0.609375 -1.9375 -0.90625q-1.03125 -0.296875 -2.265625 -0.296875q-2.265625 0 -4.171875 1.0625q-1.90625 1.046875 -3.046875 2.96875q-1.140625 1.921875 -1.140625 4.5625q0 2.609375 1.140625 4.546875q1.140625 1.9375 3.046875 3.0q1.90625 1.046875 4.171875 1.046875q1.375 0 2.53125 -0.375q1.15625 -0.390625 2.140625 -1.09375q0.984375 -0.703125 1.8125 -1.671875l1.8125 1.765625q-0.90625 1.078125 -2.1875 1.9375q-1.265625 0.84375 -2.8125 1.328125q-1.546875 0.484375 -3.296875 0.484375zm17.676727 0q-2.25 0 -3.984375 -1.046875q-1.734375 -1.0625 -2.71875 -2.859375q-0.96875 -1.8125 -0.96875 -4.046875q0 -2.21875 0.96875 -4.015625q0.984375 -1.8125 2.71875 -2.859375q1.734375 -1.0625 3.984375 -1.0625q2.265625 0 3.984375 1.078125q1.734375 1.0625 2.71875 2.875q0.984375 1.796875 0.984375 3.984375q0 2.234375 -0.984375 4.046875q-0.984375 1.796875 -2.71875 2.859375q-1.71875 1.046875 -3.984375 1.046875zm0 -2.25q1.359375 0 2.546875 -0.671875q1.1875 -0.6875 1.921875 -1.953125q0.734375 -1.28125 0.734375 -3.078125q0 -1.78125 -0.734375 -3.046875q-0.734375 -1.28125 -1.921875 -1.953125q-1.1875 -0.6875 -2.546875 -0.6875q-1.34375 0 -2.546875 0.6875q-1.203125 0.671875 -1.9375 1.953125q-0.734375 1.265625 -0.734375 3.046875q0 1.796875 0.734375 3.078125q0.734375 1.265625 1.9375 1.953125q1.203125 0.671875 2.546875 0.671875zm10.295593 1.78125l0 -14.953125l2.375 0l0 2.203125l0.125 0q0.578125 -1.09375 1.90625 -1.875q1.34375 -0.796875 2.9375 -0.796875q2.75 0 4.140625 1.59375q1.390625 1.59375 1.390625 4.234375l0 9.59375l-2.484375 0l0 -9.203125q0 -2.171875 -1.046875 -3.0625q-1.046875 -0.90625 -2.6875 -0.90625q-1.234375 0 -2.171875 0.6875q-0.9375 0.6875 -1.46875 1.78125q-0.515625 1.078125 -0.515625 2.28125l0 8.421875l-2.5 0zm14.704102 -14.953125l8.765625 0l0 2.25l-8.765625 0l0 -2.25zm2.609375 11.015625l0 -15.25l2.484375 0l0 14.640625q0 1.171875 0.484375 1.828125q0.484375 0.640625 1.59375 0.640625q0.5 0 0.90625 -0.140625q0.421875 -0.15625 0.75 -0.359375l0 2.4375q-0.390625 0.171875 -0.84375 0.265625q-0.453125 0.109375 -1.21875 0.109375q-1.875 0 -3.015625 -1.09375q-1.140625 -1.109375 -1.140625 -3.078125zm9.110992 3.9375l0 -14.953125l2.375 0l0 2.40625l0.125 0q0.296875 -0.859375 0.984375 -1.484375q0.6875 -0.625 1.578125 -0.984375q0.890625 -0.375 1.78125 -0.375q0.671875 0 1.046875 0.078125q0.390625 0.0625 0.703125 0.203125l0 2.703125q-0.46875 -0.234375 -1.015625 -0.34375q-0.53125 -0.125 -1.09375 -0.125q-1.078125 0 -2.0 0.625q-0.90625 0.609375 -1.453125 1.640625q-0.53125 1.015625 -0.53125 2.25l0 8.359375l-2.5 0zm17.008667 0.46875q-2.25 0 -3.984375 -1.046875q-1.734375 -1.0625 -2.71875 -2.859375q-0.96875 -1.8125 -0.96875 -4.046875q0 -2.21875 0.96875 -4.015625q0.984375 -1.8125 2.71875 -2.859375q1.734375 -1.0625 3.984375 -1.0625q2.265625 0 3.984375 1.078125q1.734375 1.0625 2.71875 2.875q0.984375 1.796875 0.984375 3.984375q0 2.234375 -0.984375 4.046875q-0.984375 1.796875 -2.71875 2.859375q-1.71875 1.046875 -3.984375 1.046875zm0 -2.25q1.359375 0 2.546875 -0.671875q1.1875 -0.6875 1.921875 -1.953125q0.734375 -1.28125 0.734375 -3.078125q0 -1.78125 -0.734375 -3.046875q-0.734375 -1.28125 -1.921875 -1.953125q-1.1875 -0.6875 -2.546875 -0.6875q-1.34375 0 -2.546875 0.6875q-1.203125 0.671875 -1.9375 1.953125q-0.734375 1.265625 -0.734375 3.046875q0 1.796875 0.734375 3.078125q0.734375 1.265625 1.9375 1.953125q1.203125 0.671875 2.546875 0.671875zm10.442261 1.78125l0 -21.0l2.5 0l0 21.0l-2.5 0zm16.63153 0l0 -19.5l2.5 0l0 19.5l-2.5 0zm-5.890625 -18.625l0 -2.375l14.25 0l0 2.375l-14.25 0zm21.400604 19.09375q-2.25 0 -3.984375 -1.046875q-1.734375 -1.0625 -2.71875 -2.859375q-0.96875 -1.8125 -0.96875 -4.046875q0 -2.21875 0.96875 -4.015625q0.984375 -1.8125 2.71875 -2.859375q1.734375 -1.0625 3.984375 -1.0625q2.265625 0 3.984375 1.078125q1.734375 1.0625 2.71875 2.875q0.984375 1.796875 0.984375 3.984375q0 2.234375 -0.984375 4.046875q-0.984375 1.796875 -2.71875 2.859375q-1.71875 1.046875 -3.984375 1.046875zm0 -2.25q1.359375 0 2.546875 -0.671875q1.1875 -0.6875 1.921875 -1.953125q0.734375 -1.28125 0.734375 -3.078125q0 -1.78125 -0.734375 -3.046875q-0.734375 -1.28125 -1.921875 -1.953125q-1.1875 -0.6875 -2.546875 -0.6875q-1.34375 0 -2.546875 0.6875q-1.203125 0.671875 -1.9375 1.953125q-0.734375 1.265625 -0.734375 3.046875q0 1.796875 0.734375 3.078125q0.734375 1.265625 1.9375 1.953125q1.203125 0.671875 2.546875 0.671875zm13.467468 1.78125l-4.8125 -14.953125l2.578125 0l3.546875 11.8125l0.03125 0l3.78125 -11.8125l2.5625 0l3.78125 11.78125l0.03125 0l3.546875 -11.78125l2.515625 0l-4.828125 14.953125l-2.53125 0l-3.875 -11.9375l0 0l-3.828125 11.9375l-2.5 0zm25.978973 0.46875q-2.171875 0 -3.859375 -1.015625q-1.671875 -1.03125 -2.625 -2.8125q-0.953125 -1.796875 -0.953125 -4.09375q0 -2.140625 0.890625 -3.953125q0.890625 -1.828125 2.515625 -2.921875q1.625 -1.09375 3.828125 -1.09375q2.234375 0 3.828125 0.984375q1.59375 0.96875 2.453125 2.703125q0.875 1.734375 0.875 3.96875q0 0.203125 -0.015625 0.40625q-0.015625 0.203125 -0.046875 0.34375l-12.875 0l0 -2.046875l10.296875 0q-0.03125 -0.609375 -0.28125 -1.328125q-0.25 -0.71875 -0.796875 -1.34375q-0.53125 -0.640625 -1.375 -1.03125q-0.828125 -0.40625 -2.0625 -0.40625q-1.46875 0 -2.546875 0.75q-1.0625 0.75 -1.640625 2.046875q-0.5625 1.28125 -0.5625 2.921875q0 1.90625 0.734375 3.171875q0.734375 1.265625 1.890625 1.890625q1.15625 0.609375 2.421875 0.609375q1.640625 0 2.703125 -0.78125q1.078125 -0.78125 1.71875 -1.921875l2.125 1.03125q-0.890625 1.6875 -2.53125 2.8125q-1.640625 1.109375 -4.109375 1.109375zm9.855469 -0.46875l0 -14.953125l2.375 0l0 2.40625l0.125 0q0.296875 -0.859375 0.984375 -1.484375q0.6875 -0.625 1.578125 -0.984375q0.890625 -0.375 1.78125 -0.375q0.671875 0 1.046875 0.078125q0.390625 0.0625 0.703125 0.203125l0 2.703125q-0.46875 -0.234375 -1.015625 -0.34375q-0.53125 -0.125 -1.09375 -0.125q-1.078125 0 -2.0 0.625q-0.90625 0.609375 -1.453125 1.640625q-0.53125 1.015625 -0.53125 2.25l0 8.359375l-2.5 0z" fill-rule="nonzero"/><path fill="#efefef" d="m605.7919 449.2216l0 0c0 -11.677948 9.466858 -21.144775 21.144775 -21.144775l284.82855 0c5.607971 0 10.986206 2.2277527 14.95166 6.1931458c3.965393 3.9654236 6.193115 9.343689 6.193115 14.95163l0 84.57657c0 11.6779785 -9.466797 21.144775 -21.144775 21.144775l-284.82855 0l0 0c-11.6779175 0 -21.144775 -9.466797 -21.144775 -21.144775z" fill-rule="evenodd"/><path stroke="#000000" stroke-width="2.0" stroke-linejoin="round" stroke-linecap="butt" d="m605.7919 449.2216l0 0c0 -11.677948 9.466858 -21.144775 21.144775 -21.144775l284.82855 0c5.607971 0 10.986206 2.2277527 14.95166 6.1931458c3.965393 3.9654236 6.193115 9.343689 6.193115 14.95163l0 84.57657c0 11.6779785 -9.466797 21.144775 -21.144775 21.144775l-284.82855 0l0 0c-11.6779175 0 -21.144775 -9.466797 -21.144775 -21.144775z" fill-rule="evenodd"/><path fill="#000000" d="m665.1183 502.1699l0 -19.5l2.5 0l0 19.5l-2.5 0zm-5.890625 -18.625l0 -2.375l14.25 0l0 2.375l-14.25 0zm15.09668 18.625l0 -14.953125l2.375 0l0 2.40625l0.125 0q0.296875 -0.859375 0.984375 -1.484375q0.6875 -0.625 1.578125 -0.984375q0.890625 -0.375 1.78125 -0.375q0.671875 0 1.046875 0.078125q0.390625 0.0625 0.703125 0.203125l0 2.703125q-0.46875 -0.234375 -1.015625 -0.34375q-0.53125 -0.125 -1.09375 -0.125q-1.078125 0 -2.0 0.625q-0.90625 0.609375 -1.453125 1.640625q-0.53125 1.015625 -0.53125 2.25l0 8.359375l-2.5 0zm16.774292 0.46875q-2.171875 0 -3.859375 -1.015625q-1.671875 -1.03125 -2.625 -2.8125q-0.953125 -1.796875 -0.953125 -4.09375q0 -2.140625 0.890625 -3.953125q0.890625 -1.828125 2.515625 -2.921875q1.625 -1.09375 3.828125 -1.09375q2.234375 0 3.828125 0.984375q1.59375 0.96875 2.453125 2.703125q0.875 1.734375 0.875 3.96875q0 0.203125 -0.015625 0.40625q-0.015625 0.203125 -0.046875 0.34375l-12.875 0l0 -2.046875l10.296875 0q-0.03125 -0.609375 -0.28125 -1.328125q-0.25 -0.71875 -0.796875 -1.34375q-0.53125 -0.640625 -1.375 -1.03125q-0.828125 -0.40625 -2.0625 -0.40625q-1.46875 0 -2.546875 0.75q-1.0625 0.75 -1.640625 2.046875q-0.5625 1.28125 -0.5625 2.921875q0 1.90625 0.734375 3.171875q0.734375 1.265625 1.890625 1.890625q1.15625 0.609375 2.421875 0.609375q1.640625 0 2.703125 -0.78125q1.078125 -0.78125 1.71875 -1.921875l2.125 1.03125q-0.890625 1.6875 -2.53125 2.8125q-1.640625 1.109375 -4.109375 1.109375zm14.783386 0q-1.671875 0 -2.9375 -0.640625q-1.25 -0.65625 -1.96875 -1.78125q-0.71875 -1.125 -0.71875 -2.5625q0 -1.640625 0.84375 -2.765625q0.859375 -1.140625 2.296875 -1.703125q1.4375 -0.578125 3.15625 -0.578125q1.0 0 1.84375 0.171875q0.859375 0.15625 1.484375 0.375q0.640625 0.21875 0.953125 0.421875l0 -0.90625q0 -1.703125 -1.203125 -2.703125q-1.1875 -1.0 -2.921875 -1.0q-1.234375 0 -2.3125 0.546875q-1.0625 0.546875 -1.6875 1.515625l-1.875 -1.40625q0.59375 -0.890625 1.46875 -1.53125q0.890625 -0.640625 2.015625 -0.984375q1.125 -0.359375 2.390625 -0.359375q3.046875 0 4.765625 1.609375q1.734375 1.609375 1.734375 4.34375l0 9.46875l-2.375 0l0 -2.140625l-0.109375 0q-0.375 0.640625 -1.09375 1.25q-0.703125 0.59375 -1.65625 0.96875q-0.953125 0.390625 -2.09375 0.390625zm0.234375 -2.203125q1.296875 0 2.359375 -0.640625q1.078125 -0.640625 1.71875 -1.71875q0.640625 -1.09375 0.640625 -2.390625q-0.671875 -0.46875 -1.6875 -0.75q-1.0 -0.296875 -2.203125 -0.296875q-2.140625 0 -3.140625 0.875q-1.0 0.875 -1.0 2.171875q0 1.234375 0.9375 2.0q0.9375 0.75 2.375 0.75zm9.248657 -13.21875l8.765625 0l0 2.25l-8.765625 0l0 -2.25zm2.609375 11.015625l0 -15.25l2.484375 0l0 14.640625q0 1.171875 0.484375 1.828125q0.484375 0.640625 1.59375 0.640625q0.5 0 0.90625 -0.140625q0.421875 -0.15625 0.75 -0.359375l0 2.4375q-0.390625 0.171875 -0.84375 0.265625q-0.453125 0.109375 -1.21875 0.109375q-1.875 0 -3.015625 -1.09375q-1.140625 -1.109375 -1.140625 -3.078125zm9.257629 3.9375l0 -14.953125l2.375 0l0 2.203125l0.125 0q0.40625 -0.734375 1.125 -1.328125q0.71875 -0.609375 1.640625 -0.96875q0.921875 -0.375 1.890625 -0.375q1.671875 0 2.875 0.8125q1.203125 0.796875 1.734375 2.09375q0.765625 -1.265625 2.046875 -2.078125q1.296875 -0.828125 3.078125 -0.828125q2.671875 0 3.9375 1.609375q1.265625 1.609375 1.265625 4.21875l0 9.59375l-2.46875 0l0 -9.203125q0 -2.171875 -0.890625 -3.0625q-0.875 -0.90625 -2.484375 -0.90625q-1.140625 0 -2.046875 0.671875q-0.890625 0.65625 -1.40625 1.734375q-0.5 1.0625 -0.5 2.3125l0 8.453125l-2.5 0l0 -9.1875q0 -2.15625 -0.875 -3.0625q-0.875 -0.921875 -2.46875 -0.921875q-1.140625 0 -2.046875 0.6875q-0.890625 0.671875 -1.40625 1.75q-0.5 1.078125 -0.5 2.34375l0 8.390625l-2.5 0zm32.31836 0.46875q-2.171875 0 -3.859375 -1.015625q-1.671875 -1.03125 -2.625 -2.8125q-0.953125 -1.796875 -0.953125 -4.09375q0 -2.140625 0.890625 -3.953125q0.890625 -1.828125 2.515625 -2.921875q1.625 -1.09375 3.828125 -1.09375q2.234375 0 3.828125 0.984375q1.59375 0.96875 2.453125 2.703125q0.875 1.734375 0.875 3.96875q0 0.203125 -0.015625 0.40625q-0.015625 0.203125 -0.046875 0.34375l-12.875 0l0 -2.046875l10.296875 0q-0.03125 -0.609375 -0.28125 -1.328125q-0.25 -0.71875 -0.796875 -1.34375q-0.53125 -0.640625 -1.375 -1.03125q-0.828125 -0.40625 -2.0625 -0.40625q-1.46875 0 -2.546875 0.75q-1.0625 0.75 -1.640625 2.046875q-0.5625 1.28125 -0.5625 2.921875q0 1.90625 0.734375 3.171875q0.734375 1.265625 1.890625 1.890625q1.15625 0.609375 2.421875 0.609375q1.640625 0 2.703125 -0.78125q1.078125 -0.78125 1.71875 -1.921875l2.125 1.03125q-0.890625 1.6875 -2.53125 2.8125q-1.640625 1.109375 -4.109375 1.109375zm9.855469 -0.46875l0 -14.953125l2.375 0l0 2.203125l0.125 0q0.578125 -1.09375 1.90625 -1.875q1.34375 -0.796875 2.9375 -0.796875q2.75 0 4.140625 1.59375q1.390625 1.59375 1.390625 4.234375l0 9.59375l-2.484375 0l0 -9.203125q0 -2.171875 -1.046875 -3.0625q-1.046875 -0.90625 -2.6875 -0.90625q-1.234375 0 -2.171875 0.6875q-0.9375 0.6875 -1.46875 1.78125q-0.515625 1.078125 -0.515625 2.28125l0 8.421875l-2.5 0zm14.704102 -14.953125l8.765625 0l0 2.25l-8.765625 0l0 -2.25zm2.609375 11.015625l0 -15.25l2.484375 0l0 14.640625q0 1.171875 0.484375 1.828125q0.484375 0.640625 1.59375 0.640625q0.5 0 0.90625 -0.140625q0.421875 -0.15625 0.75 -0.359375l0 2.4375q-0.390625 0.171875 -0.84375 0.265625q-0.453125 0.109375 -1.21875 0.109375q-1.875 0 -3.015625 -1.09375q-1.140625 -1.109375 -1.140625 -3.078125zm19.55426 3.9375l0 -19.5l2.5 0l0 19.5l-2.5 0zm-5.890625 -18.625l0 -2.375l14.25 0l0 2.375l-14.25 0zm21.400635 19.09375q-2.25 0 -3.984375 -1.046875q-1.734375 -1.0625 -2.71875 -2.859375q-0.96875 -1.8125 -0.96875 -4.046875q0 -2.21875 0.96875 -4.015625q0.984375 -1.8125 2.71875 -2.859375q1.734375 -1.0625 3.984375 -1.0625q2.265625 0 3.984375 1.078125q1.734375 1.0625 2.71875 2.875q0.984375 1.796875 0.984375 3.984375q0 2.234375 -0.984375 4.046875q-0.984375 1.796875 -2.71875 2.859375q-1.71875 1.046875 -3.984375 1.046875zm0 -2.25q1.359375 0 2.546875 -0.671875q1.1875 -0.6875 1.921875 -1.953125q0.734375 -1.28125 0.734375 -3.078125q0 -1.78125 -0.734375 -3.046875q-0.734375 -1.28125 -1.921875 -1.953125q-1.1875 -0.6875 -2.546875 -0.6875q-1.34375 0 -2.546875 0.6875q-1.203125 0.671875 -1.9375 1.953125q-0.734375 1.265625 -0.734375 3.046875q0 1.796875 0.734375 3.078125q0.734375 1.265625 1.9375 1.953125q1.203125 0.671875 2.546875 0.671875zm13.467468 1.78125l-4.8125 -14.953125l2.578125 0l3.546875 11.8125l0.03125 0l3.78125 -11.8125l2.5625 0l3.78125 11.78125l0.03125 0l3.546875 -11.78125l2.515625 0l-4.828125 14.953125l-2.53125 0l-3.875 -11.9375l0 0l-3.828125 11.9375l-2.5 0zm25.978943 0.46875q-2.171875 0 -3.859375 -1.015625q-1.671875 -1.03125 -2.625 -2.8125q-0.953125 -1.796875 -0.953125 -4.09375q0 -2.140625 0.890625 -3.953125q0.890625 -1.828125 2.515625 -2.921875q1.625 -1.09375 3.828125 -1.09375q2.234375 0 3.828125 0.984375q1.59375 0.96875 2.453125 2.703125q0.875 1.734375 0.875 3.96875q0 0.203125 -0.015625 0.40625q-0.015625 0.203125 -0.046875 0.34375l-12.875 0l0 -2.046875l10.296875 0q-0.03125 -0.609375 -0.28125 -1.328125q-0.25 -0.71875 -0.796875 -1.34375q-0.53125 -0.640625 -1.375 -1.03125q-0.828125 -0.40625 -2.0625 -0.40625q-1.46875 0 -2.546875 0.75q-1.0625 0.75 -1.640625 2.046875q-0.5625 1.28125 -0.5625 2.921875q0 1.90625 0.734375 3.171875q0.734375 1.265625 1.890625 1.890625q1.15625 0.609375 2.421875 0.609375q1.640625 0 2.703125 -0.78125q1.078125 -0.78125 1.71875 -1.921875l2.125 1.03125q-0.890625 1.6875 -2.53125 2.8125q-1.640625 1.109375 -4.109375 1.109375zm9.855469 -0.46875l0 -14.953125l2.375 0l0 2.40625l0.125 0q0.296875 -0.859375 0.984375 -1.484375q0.6875 -0.625 1.578125 -0.984375q0.890625 -0.375 1.78125 -0.375q0.671875 0 1.046875 0.078125q0.390625 0.0625 0.703125 0.203125l0 2.703125q-0.46875 -0.234375 -1.015625 -0.34375q-0.53125 -0.125 -1.09375 -0.125q-1.078125 0 -2.0 0.625q-0.90625 0.609375 -1.453125 1.640625q-0.53125 1.015625 -0.53125 2.25l0 8.359375l-2.5 0z" fill-rule="nonzero"/><path fill="#000000" fill-opacity="0.0" d="m365.3898 428.0768l0 -52.981537l205.70078 0l0 -53.002716" fill-rule="evenodd"/><path stroke="#000000" stroke-width="2.0" stroke-linejoin="round" stroke-linecap="butt" d="m365.3898 428.0768l0 -52.981537l205.70078 0l0 -41.002716" fill-rule="evenodd"/><path fill="#000000" stroke="#000000" stroke-width="2.0" stroke-linecap="butt" d="m574.39404 334.09256l-3.3034668 -9.076202l-3.3034668 9.076202z" fill-rule="evenodd"/><path fill="#000000" fill-opacity="0.0" d="m365.3898 633.2668l0 -78.33075" fill-rule="evenodd"/><path stroke="#000000" stroke-width="2.0" stroke-linejoin="round" stroke-linecap="butt" d="m365.3898 633.2668l0 -66.33075" fill-rule="evenodd"/><path fill="#000000" stroke="#000000" stroke-width="2.0" stroke-linecap="butt" d="m368.69327 566.93604l-3.3034668 -9.076172l-3.3034668 9.076172z" fill-rule="evenodd"/><path fill="#000000" fill-opacity="0.0" d="m769.35095 633.2668l0 -78.33075" fill-rule="evenodd"/><path stroke="#000000" stroke-width="2.0" stroke-linejoin="round" stroke-linecap="butt" d="m769.35095 633.2668l0 -66.33075" fill-rule="evenodd"/><path fill="#000000" stroke="#000000" stroke-width="2.0" stroke-linecap="butt" d="m772.6544 566.93604l-3.3034668 -9.076172l-3.3034668 9.076172z" fill-rule="evenodd"/><path fill="#000000" fill-opacity="0.0" d="m769.35095 428.0768l0 -52.981537l-198.2677 0l0 -53.002716" fill-rule="evenodd"/><path stroke="#000000" stroke-width="2.0" stroke-linejoin="round" stroke-linecap="butt" d="m769.35095 428.0768l0 -52.981537l-198.26776 0l0 -41.002716" fill-rule="evenodd"/><path fill="#000000" stroke="#000000" stroke-width="2.0" stroke-linecap="butt" d="m574.38666 334.09256l-3.3034668 -9.076202l-3.3034668 9.076202z" fill-rule="evenodd"/><path fill="#efefef" d="m407.5168 24.554228l0 0c0 -11.677938 9.466827 -21.14478 21.144775 -21.14478l284.82852 0c5.607971 0 10.986206 2.2277472 14.95166 6.193163c3.965393 3.965415 6.193115 9.343674 6.193115 14.951616l0 84.576584c0 11.67794 -9.466797 21.144775 -21.144775 21.144775l-284.82852 0l0 0c-11.677948 0 -21.144775 -9.466835 -21.144775 -21.144775z" fill-rule="evenodd"/><path stroke="#000000" stroke-width="2.0" stroke-linejoin="round" stroke-linecap="butt" d="m407.5168 24.554228l0 0c0 -11.677938 9.466827 -21.14478 21.144775 -21.14478l284.82852 0c5.607971 0 10.986206 2.2277472 14.95166 6.193163c3.965393 3.965415 6.193115 9.343674 6.193115 14.951616l0 84.576584c0 11.67794 -9.466797 21.144775 -21.144775 21.144775l-284.82852 0l0 0c-11.677948 0 -21.144775 -9.466835 -21.144775 -21.144775z" fill-rule="evenodd"/><path fill="#000000" d="m473.61612 77.502525l0 -21.000004l3.609375 0l6.6875 17.218754l0.109375 0l6.6875 -17.218754l3.609375 0l0 21.000004l-2.453125 0l0 -13.34375l0.109375 -3.9843788l-0.109375 0l-6.875 17.328129l-2.046875 0l-6.859375 -17.328129l-0.125 0l0.125 3.9843788l0 13.34375l-2.46875 0zm31.495422 0.46875q-2.25 0 -3.984375 -1.046875q-1.734375 -1.0625 -2.71875 -2.859375q-0.96875 -1.8125 -0.96875 -4.046875q0 -2.21875 0.96875 -4.015625q0.984375 -1.8125 2.71875 -2.8593788q1.734375 -1.0625 3.984375 -1.0625q2.265625 0 3.984375 1.078125q1.734375 1.0625038 2.71875 2.8750038q0.9844055 1.796875 0.9844055 3.984375q0 2.234375 -0.9844055 4.046875q-0.984375 1.796875 -2.71875 2.859375q-1.71875 1.046875 -3.984375 1.046875zm0 -2.25q1.359375 0 2.546875 -0.671875q1.1875 -0.6875 1.921875 -1.953125q0.734375 -1.28125 0.734375 -3.078125q0 -1.78125 -0.734375 -3.046875q-0.734375 -1.28125 -1.921875 -1.953125q-1.1875 -0.6875 -2.546875 -0.6875q-1.34375 0 -2.546875 0.6875q-1.203125 0.671875 -1.9375 1.953125q-0.734375 1.265625 -0.734375 3.046875q0 1.796875 0.734375 3.078125q0.734375 1.265625 1.9375 1.953125q1.203125 0.671875 2.546875 0.671875zm16.963959 2.25q-2.03125 0 -3.65625 -1.015625q-1.625 -1.03125 -2.5625 -2.8125q-0.9375 -1.796875 -0.9375 -4.125q0 -2.3125 0.9375 -4.09375q0.9375 -1.796875 2.5625 -2.8125038q1.625 -1.03125 3.65625 -1.03125q1.203125 0 2.1875 0.390625q1.0 0.375 1.75 0.984375q0.75 0.6093788 1.15625 1.3125038l0.125 0l-0.125 -2.0781288l0 -6.1875l2.5 0l0 21.000004l-2.375 0l0 -2.203125l-0.125 0q-0.40625 0.671875 -1.15625 1.296875q-0.75 0.609375 -1.75 0.984375q-0.984375 0.390625 -2.1875 0.390625zm0.25 -2.25q1.296875 0 2.421875 -0.6875q1.140625 -0.703125 1.84375 -1.96875q0.703125 -1.28125 0.703125 -3.046875q0 -1.75 -0.703125 -3.03125q-0.703125 -1.28125 -1.84375 -1.96875q-1.125 -0.6875 -2.421875 -0.6875q-1.28125 0 -2.421875 0.6875q-1.125 0.6875 -1.828125 1.96875q-0.703125 1.28125 -0.703125 3.03125q0 1.734375 0.703125 3.03125q0.703125 1.28125 1.828125 1.984375q1.140625 0.6875 2.421875 0.6875zm17.5401 2.25q-2.171875 0 -3.859375 -1.015625q-1.671875 -1.03125 -2.625 -2.8125q-0.953125 -1.796875 -0.953125 -4.09375q0 -2.140625 0.890625 -3.953125q0.890625 -1.828125 2.515625 -2.9218788q1.625 -1.09375 3.828125 -1.09375q2.234314 0 3.828064 0.984375q1.59375 0.9687538 2.453125 2.7031288q0.875 1.734375 0.875 3.96875q0 0.203125 -0.015625 0.40625q-0.015625 0.203125 -0.046875 0.34375l-12.874939 0l0 -2.046875l10.296814 0q-0.03125 -0.609375 -0.28125 -1.328125q-0.25 -0.71875 -0.796875 -1.34375q-0.53125 -0.640625 -1.375 -1.03125q-0.82806396 -0.40625 -2.062439 -0.40625q-1.46875 0 -2.546875 0.75q-1.0625 0.75 -1.640625 2.046875q-0.5625 1.28125 -0.5625 2.921875q0 1.90625 0.734375 3.171875q0.734375 1.265625 1.890625 1.890625q1.15625 0.609375 2.421875 0.609375q1.640625 0 2.703064 -0.78125q1.078125 -0.78125 1.71875 -1.921875l2.125 1.03125q-0.890625 1.6875 -2.53125 2.8125q-1.640625 1.109375 -4.109314 1.109375zm9.855408 -0.46875l0 -21.000004l2.5 0l0 21.000004l-2.5 0zm22.640076 0.46875q-2.3125 0 -4.28125 -0.84375q-1.953125 -0.859375 -3.40625 -2.359375q-1.453125 -1.515625 -2.265625 -3.5q-0.8125 -1.984375 -0.8125 -4.265625q0 -2.28125 0.8125 -4.265629q0.8125 -1.984375 2.265625 -3.484375q1.453125 -1.515625 3.40625 -2.359375q1.96875 -0.859375 4.28125 -0.859375q2.328125 0 4.28125 0.859375q1.96875 0.84375 3.421875 2.359375q1.453125 1.5 2.25 3.484375q0.8125 1.9843788 0.8125 4.265629q0 2.28125 -0.8125 4.265625q-0.796875 1.984375 -2.25 3.5q-1.453125 1.5 -3.421875 2.359375q-1.953125 0.84375 -4.28125 0.84375zm0 -2.375q2.296875 0 4.15625 -1.078125q1.859375 -1.09375 2.96875 -3.046875q1.125 -1.953125 1.125 -4.46875q0 -2.546875 -1.125 -4.484379q-1.109375 -1.9375 -2.96875 -3.015625q-1.859375 -1.09375 -4.15625 -1.09375q-2.25 0 -4.125 1.09375q-1.875 1.078125 -3.0 3.015625q-1.109375 1.9375038 -1.109375 4.484379q0 2.515625 1.109375 4.46875q1.125 1.953125 3.0 3.046875q1.875 1.078125 4.125 1.078125zm19.353882 2.375q-2.75 0 -4.140625 -1.609375q-1.390625 -1.609375 -1.390625 -4.40625l0 -9.406254l2.484375 0l0 9.031254q0 2.21875 1.03125 3.1875q1.03125 0.953125 2.546875 0.953125q1.328125 0 2.296875 -0.6875q0.96875 -0.703125 1.484375 -1.78125q0.53125 -1.09375 0.53125 -2.265625l0 -8.437504l2.5 0l0 14.953129l-2.375 0l0 -2.171875l-0.125 0q-0.375 0.703125 -1.125 1.3125q-0.75 0.59375 -1.703125 0.953125q-0.953125 0.375 -2.015625 0.375zm10.162231 -15.421879l8.765625 0l0 2.2500038l-8.765625 0l0 -2.2500038zm2.609375 11.015629l0 -15.250004l2.484375 0l0 14.640629q0 1.171875 0.484375 1.828125q0.484375 0.640625 1.59375 0.640625q0.5 0 0.90625 -0.140625q0.421875 -0.15625 0.75 -0.359375l0 2.4375q-0.390625 0.171875 -0.84375 0.265625q-0.453125 0.109375 -1.21875 0.109375q-1.875 0 -3.015625 -1.09375q-1.140625 -1.109375 -1.140625 -3.078125zm9.25769 10.265625l0 -21.281254l2.375 0l0 2.2187538l0.125 0q0.40625 -0.703125 1.15625 -1.3125038q0.75 -0.609375 1.734375 -0.984375q1.0 -0.390625 2.203125 -0.390625q2.0625 0 3.671875 1.03125q1.609375 1.0156288 2.546875 2.8125038q0.9375 1.78125 0.9375 4.09375q0 2.328125 -0.9375 4.125q-0.9375 1.78125 -2.546875 2.8125q-1.609375 1.015625 -3.671875 1.015625q-1.78125 0 -3.140625 -0.8125q-1.34375 -0.828125 -1.953125 -1.859375l-0.125 0l0.125 2.0625l0 6.46875l-2.5 0zm7.34375 -8.109375q1.28125 0 2.40625 -0.6875q1.140625 -0.703125 1.828125 -1.984375q0.6875 -1.296875 0.6875 -3.03125q0 -1.75 -0.6875 -3.03125q-0.6875 -1.28125 -1.828125 -1.96875q-1.125 -0.6875 -2.40625 -0.6875q-1.296875 0 -2.4375 0.6875q-1.125 0.6875 -1.828125 1.96875q-0.703125 1.28125 -0.703125 3.03125q0 1.765625 0.703125 3.046875q0.703125 1.265625 1.828125 1.96875q1.140625 0.6875 2.4375 0.6875zm15.586975 2.25q-2.75 0 -4.140625 -1.609375q-1.390625 -1.609375 -1.390625 -4.40625l0 -9.406254l2.484375 0l0 9.031254q0 2.21875 1.03125 3.1875q1.03125 0.953125 2.546875 0.953125q1.328125 0 2.296875 -0.6875q0.96875 -0.703125 1.484375 -1.78125q0.53125 -1.09375 0.53125 -2.265625l0 -8.437504l2.5 0l0 14.953129l-2.375 0l0 -2.171875l-0.125 0q-0.375 0.703125 -1.125 1.3125q-0.75 0.59375 -1.703125 0.953125q-0.953125 0.375 -2.015625 0.375zm10.162231 -15.421879l8.765625 0l0 2.2500038l-8.765625 0l0 -2.2500038zm2.609375 11.015629l0 -15.250004l2.484375 0l0 14.640629q0 1.171875 0.484375 1.828125q0.484375 0.640625 1.59375 0.640625q0.5 0 0.90625 -0.140625q0.421875 -0.15625 0.75 -0.359375l0 2.4375q-0.390625 0.171875 -0.84375 0.265625q-0.453125 0.109375 -1.21875 0.109375q-1.875 0 -3.015625 -1.09375q-1.140625 -1.109375 -1.140625 -3.078125zm14.623047 4.40625q-1.671875 0 -2.953125 -0.53125q-1.265625 -0.546875 -2.109375 -1.46875q-0.828125 -0.9375 -1.234375 -2.015625l2.21875 -1.0q0.59375 1.34375 1.703125 2.078125q1.125 0.734375 2.5625 0.734375q1.375 0 2.296875 -0.546875q0.921875 -0.5625 0.921875 -1.65625q0 -0.671875 -0.390625 -1.125q-0.375 -0.453125 -1.109375 -0.765625q-0.734375 -0.328125 -1.78125 -0.59375l-1.828125 -0.46875q-1.046875 -0.296875 -1.984375 -0.8125q-0.9375 -0.53125 -1.515625 -1.359375q-0.5625 -0.84375 -0.5625 -2.046875q0 -1.359375 0.78125 -2.328125q0.796875 -0.9687538 2.078125 -1.4687538q1.296875 -0.515625 2.765625 -0.515625q1.296875 0 2.421875 0.375q1.125 0.359375 1.96875 1.078125q0.859375 0.7187538 1.296875 1.7656288l-2.171875 1.0q-0.546875 -1.109375 -1.5 -1.546875q-0.9375 -0.453125 -2.078125 -0.453125q-1.234375 0 -2.140625 0.546875q-0.90625 0.546875 -0.90625 1.484375q0 0.9375 0.75 1.40625q0.75 0.46875 1.828125 0.765625l2.171875 0.546875q2.203125 0.5625 3.3125 1.671875q1.125 1.09375 1.125 2.671875q0 1.40625 -0.796875 2.4375q-0.796875 1.03125 -2.15625 1.59375q-1.34375 0.546875 -2.984375 0.546875z" fill-rule="nonzero"/><path fill="#000000" fill-opacity="0.0" d="m571.07587 195.22525l0 -64.944885" fill-rule="evenodd"/><path stroke="#000000" stroke-width="2.0" stroke-linejoin="round" stroke-linecap="butt" d="m571.07587 195.22525l0 -52.944885" fill-rule="evenodd"/><path fill="#000000" stroke="#000000" stroke-width="2.0" stroke-linecap="butt" d="m574.37933 142.28036l-3.3034668 -9.076187l-3.3034668 9.076187z" fill-rule="evenodd"/><path fill="#000000" fill-opacity="0.0" d="m570.0827 863.125l-204.6929 -102.99213" fill-rule="evenodd"/><path stroke="#000000" stroke-width="2.0" stroke-linejoin="round" stroke-linecap="butt" d="m570.0827 863.125l-193.97333 -97.59851" fill-rule="evenodd"/><path fill="#000000" stroke="#000000" stroke-width="2.0" stroke-linecap="butt" d="m377.59418 762.5755l-9.59256 -1.128479l6.6229553 7.0303955z" fill-rule="evenodd"/><path fill="#000000" fill-opacity="0.0" d="m973.7265 863.7262l-204.37793 -103.590515" fill-rule="evenodd"/><path stroke="#000000" stroke-width="2.0" stroke-linejoin="round" stroke-linecap="butt" d="m973.72656 863.7262l-193.67438 -98.165344" fill-rule="evenodd"/><path fill="#000000" stroke="#000000" stroke-width="2.0" stroke-linecap="butt" d="m781.5457 762.61426l-9.589172 -1.1567383l6.602173 7.0499268z" fill-rule="evenodd"/><path fill="#000000" fill-opacity="0.0" d="m174.07553 863.7262l191.3071 -103.590515" fill-rule="evenodd"/><path stroke="#000000" stroke-width="2.0" stroke-linejoin="round" stroke-linecap="butt" d="m174.07555 863.7262l180.7548 -97.87665" fill-rule="evenodd"/><path fill="#000000" stroke="#000000" stroke-width="2.0" stroke-linecap="butt" d="m356.40332 768.7545l6.4082336 -7.2266235l-9.554199 1.4168091z" fill-rule="evenodd"/><path fill="#000000" fill-opacity="0.0" d="m571.07587 863.7262l198.2677 -103.590515" fill-rule="evenodd"/><path stroke="#000000" stroke-width="2.0" stroke-linejoin="round" stroke-linecap="butt" d="m571.07587 863.7262l187.6319 -98.03351" fill-rule="evenodd"/><path fill="#000000" stroke="#000000" stroke-width="2.0" stroke-linecap="butt" d="m760.23755 768.62054l6.5146484 -7.1309204l-9.574158 1.2750854z" fill-rule="evenodd"/></g></svg>