<?xml version="1.0" encoding="UTF-8"?>
<!DOCTYPE svg PUBLIC "-//W3C//DTD SVG 1.1//EN" "http://www.w3.org/Graphics/SVG/1.1/DTD/svg11.dtd">
<svg version="1.1" xmlns="http://www.w3.org/2000/svg" xmlns:xlink="http://www.w3.org/1999/xlink" x="0" y="0" width="311.811" height="170.079" viewBox="0, 0, 311.811, 170.079">
  <g id="Layer_1">
    <g>
      <path d="M42.52,42.52 L56.693,42.52 L56.693,56.693 L42.52,56.693 L42.52,42.52 z" fill="#FFFFFF"/>
      <path d="M42.52,42.52 L56.693,42.52 L56.693,56.693 L42.52,56.693 L42.52,42.52 z" fill-opacity="0" stroke="#000000" stroke-width="0.5"/>
    </g>
    <g>
      <path d="M56.693,42.52 L70.866,42.52 L70.866,56.693 L56.693,56.693 L56.693,42.52 z" fill="#FFFFFF"/>
      <path d="M56.693,42.52 L70.866,42.52 L70.866,56.693 L56.693,56.693 L56.693,42.52 z" fill-opacity="0" stroke="#000000" stroke-width="0.5"/>
    </g>
    <g>
      <path d="M70.866,42.52 L85.039,42.52 L85.039,56.693 L70.866,56.693 L70.866,42.52 z" fill="#FFFFFF"/>
      <path d="M70.866,42.52 L85.039,42.52 L85.039,56.693 L70.866,56.693 L70.866,42.52 z" fill-opacity="0" stroke="#000000" stroke-width="0.5"/>
    </g>
    <g>
      <path d="M85.039,42.52 L99.213,42.52 L99.213,56.693 L85.039,56.693 L85.039,42.52 z" fill="#FFFFFF"/>
      <path d="M85.039,42.52 L99.213,42.52 L99.213,56.693 L85.039,56.693 L85.039,42.52 z" fill-opacity="0" stroke="#000000" stroke-width="0.5"/>
    </g>
    <g>
      <path d="M99.213,42.52 L113.386,42.52 L113.386,56.693 L99.213,56.693 L99.213,42.52 z" fill="#FFFFFF"/>
      <path d="M99.213,42.52 L113.386,42.52 L113.386,56.693 L99.213,56.693 L99.213,42.52 z" fill-opacity="0" stroke="#000000" stroke-width="0.5"/>
    </g>
    <g>
      <path d="M113.386,42.52 L127.559,42.52 L127.559,56.693 L113.386,56.693 L113.386,42.52 z" fill="#FFFFFF"/>
      <path d="M113.386,42.52 L127.559,42.52 L127.559,56.693 L113.386,56.693 L113.386,42.52 z" fill-opacity="0" stroke="#000000" stroke-width="0.5"/>
    </g>
    <g>
      <path d="M127.559,42.52 L141.732,42.52 L141.732,56.693 L127.559,56.693 L127.559,42.52 z" fill="#FFFFFF"/>
      <path d="M127.559,42.52 L141.732,42.52 L141.732,56.693 L127.559,56.693 L127.559,42.52 z" fill-opacity="0" stroke="#000000" stroke-width="0.5"/>
    </g>
    <g>
      <path d="M141.732,42.52 L155.906,42.52 L155.906,56.693 L141.732,56.693 L141.732,42.52 z" fill="#FFFFFF"/>
      <path d="M141.732,42.52 L155.906,42.52 L155.906,56.693 L141.732,56.693 L141.732,42.52 z" fill-opacity="0" stroke="#000000" stroke-width="0.5"/>
    </g>
    <g>
      <path d="M155.906,42.52 L170.079,42.52 L170.079,56.693 L155.906,56.693 L155.906,42.52 z" fill="#FFFFFF"/>
      <path d="M155.906,42.52 L170.079,42.52 L170.079,56.693 L155.906,56.693 L155.906,42.52 z" fill-opacity="0" stroke="#000000" stroke-width="0.5"/>
    </g>
    <g>
      <path d="M170.079,42.52 L184.252,42.52 L184.252,56.693 L170.079,56.693 L170.079,42.52 z" fill="#FFFFFF"/>
      <path d="M170.079,42.52 L184.252,42.52 L184.252,56.693 L170.079,56.693 L170.079,42.52 z" fill-opacity="0" stroke="#000000" stroke-width="0.5"/>
    </g>
    <g>
      <path d="M184.252,42.52 L198.425,42.52 L198.425,56.693 L184.252,56.693 L184.252,42.52 z" fill="#FFFFFF"/>
      <path d="M184.252,42.52 L198.425,42.52 L198.425,56.693 L184.252,56.693 L184.252,42.52 z" fill-opacity="0" stroke="#000000" stroke-width="0.5"/>
    </g>
    <g>
      <path d="M198.425,42.52 L212.598,42.52 L212.598,56.693 L198.425,56.693 L198.425,42.52 z" fill="#FFFFFF"/>
      <path d="M198.425,42.52 L212.598,42.52 L212.598,56.693 L198.425,56.693 L198.425,42.52 z" fill-opacity="0" stroke="#000000" stroke-width="0.5"/>
    </g>
    <g>
      <path d="M212.598,42.52 L226.772,42.52 L226.772,56.693 L212.598,56.693 L212.598,42.52 z" fill="#FFFFFF"/>
      <path d="M212.598,42.52 L226.772,42.52 L226.772,56.693 L212.598,56.693 L212.598,42.52 z" fill-opacity="0" stroke="#000000" stroke-width="0.5"/>
    </g>
    <g>
      <path d="M226.772,42.52 L240.945,42.52 L240.945,56.693 L226.772,56.693 L226.772,42.52 z" fill="#FFFFFF"/>
      <path d="M226.772,42.52 L240.945,42.52 L240.945,56.693 L226.772,56.693 L226.772,42.52 z" fill-opacity="0" stroke="#000000" stroke-width="0.5"/>
    </g>
    <g>
      <path d="M240.945,42.52 L255.118,42.52 L255.118,56.693 L240.945,56.693 L240.945,42.52 z" fill="#FFFFFF"/>
      <path d="M240.945,42.52 L255.118,42.52 L255.118,56.693 L240.945,56.693 L240.945,42.52 z" fill-opacity="0" stroke="#000000" stroke-width="0.5"/>
    </g>
    <g>
      <path d="M255.118,42.52 L269.291,42.52 L269.291,56.693 L255.118,56.693 L255.118,42.52 z" fill="#FFFFFF"/>
      <path d="M255.118,42.52 L269.291,42.52 L269.291,56.693 L255.118,56.693 L255.118,42.52 z" fill-opacity="0" stroke="#000000" stroke-width="0.5"/>
    </g>
    <g>
      <path d="M269.291,42.52 L283.465,42.52 L283.465,56.693 L269.291,56.693 L269.291,42.52 z" fill="#FFFFFF"/>
      <path d="M269.291,42.52 L283.465,42.52 L283.465,56.693 L269.291,56.693 L269.291,42.52 z" fill-opacity="0" stroke="#000000" stroke-width="0.5"/>
    </g>
    <g>
      <path d="M283.465,42.52 L297.638,42.52 L297.638,56.693 L283.465,56.693 L283.465,42.52 z" fill="#FFFFFF"/>
      <path d="M283.465,42.52 L297.638,42.52 L297.638,56.693 L283.465,56.693 L283.465,42.52 z" fill-opacity="0" stroke="#000000" stroke-width="0.5"/>
    </g>
    <g>
      <path d="M42.52,56.693 L56.693,56.693 L56.693,70.866 L42.52,70.866 L42.52,56.693 z" fill="#FFFFFF"/>
      <path d="M42.52,56.693 L56.693,56.693 L56.693,70.866 L42.52,70.866 L42.52,56.693 z" fill-opacity="0" stroke="#000000" stroke-width="0.5"/>
    </g>
    <g>
      <path d="M56.693,56.693 L70.866,56.693 L70.866,70.866 L56.693,70.866 L56.693,56.693 z" fill="#FFFFFF"/>
      <path d="M56.693,56.693 L70.866,56.693 L70.866,70.866 L56.693,70.866 L56.693,56.693 z" fill-opacity="0" stroke="#000000" stroke-width="0.5"/>
    </g>
    <g>
      <path d="M70.866,56.693 L85.039,56.693 L85.039,70.866 L70.866,70.866 L70.866,56.693 z" fill="#FFFFFF"/>
      <path d="M70.866,56.693 L85.039,56.693 L85.039,70.866 L70.866,70.866 L70.866,56.693 z" fill-opacity="0" stroke="#000000" stroke-width="0.5"/>
    </g>
    <g>
      <path d="M85.039,56.693 L99.213,56.693 L99.213,70.866 L85.039,70.866 L85.039,56.693 z" fill="#FFFFFF"/>
      <path d="M85.039,56.693 L99.213,56.693 L99.213,70.866 L85.039,70.866 L85.039,56.693 z" fill-opacity="0" stroke="#000000" stroke-width="0.5"/>
    </g>
    <g>
      <path d="M99.213,56.693 L113.386,56.693 L113.386,70.866 L99.213,70.866 L99.213,56.693 z" fill="#FFFFFF"/>
      <path d="M99.213,56.693 L113.386,56.693 L113.386,70.866 L99.213,70.866 L99.213,56.693 z" fill-opacity="0" stroke="#000000" stroke-width="0.5"/>
    </g>
    <g>
      <path d="M113.386,56.693 L127.559,56.693 L127.559,70.866 L113.386,70.866 L113.386,56.693 z" fill="#FFFFFF"/>
      <path d="M113.386,56.693 L127.559,56.693 L127.559,70.866 L113.386,70.866 L113.386,56.693 z" fill-opacity="0" stroke="#000000" stroke-width="0.5"/>
    </g>
    <g>
      <path d="M127.559,56.693 L141.732,56.693 L141.732,70.866 L127.559,70.866 L127.559,56.693 z" fill="#FFFFFF"/>
      <path d="M127.559,56.693 L141.732,56.693 L141.732,70.866 L127.559,70.866 L127.559,56.693 z" fill-opacity="0" stroke="#000000" stroke-width="0.5"/>
    </g>
    <g>
      <path d="M141.732,56.693 L155.906,56.693 L155.906,70.866 L141.732,70.866 L141.732,56.693 z" fill="#FFFFFF"/>
      <path d="M141.732,56.693 L155.906,56.693 L155.906,70.866 L141.732,70.866 L141.732,56.693 z" fill-opacity="0" stroke="#000000" stroke-width="0.5"/>
    </g>
    <g>
      <path d="M155.906,56.693 L170.079,56.693 L170.079,70.866 L155.906,70.866 L155.906,56.693 z" fill="#FFFFFF"/>
      <path d="M155.906,56.693 L170.079,56.693 L170.079,70.866 L155.906,70.866 L155.906,56.693 z" fill-opacity="0" stroke="#000000" stroke-width="0.5"/>
    </g>
    <g>
      <path d="M170.079,56.693 L184.252,56.693 L184.252,70.866 L170.079,70.866 L170.079,56.693 z" fill="#FFFFFF"/>
      <path d="M170.079,56.693 L184.252,56.693 L184.252,70.866 L170.079,70.866 L170.079,56.693 z" fill-opacity="0" stroke="#000000" stroke-width="0.5"/>
    </g>
    <g>
      <path d="M184.252,56.693 L198.425,56.693 L198.425,70.866 L184.252,70.866 L184.252,56.693 z" fill="#FFFFFF"/>
      <path d="M184.252,56.693 L198.425,56.693 L198.425,70.866 L184.252,70.866 L184.252,56.693 z" fill-opacity="0" stroke="#000000" stroke-width="0.5"/>
    </g>
    <g>
      <path d="M198.425,56.693 L212.598,56.693 L212.598,70.866 L198.425,70.866 L198.425,56.693 z" fill="#FFFFFF"/>
      <path d="M198.425,56.693 L212.598,56.693 L212.598,70.866 L198.425,70.866 L198.425,56.693 z" fill-opacity="0" stroke="#000000" stroke-width="0.5"/>
    </g>
    <g>
      <path d="M212.598,56.693 L226.772,56.693 L226.772,70.866 L212.598,70.866 L212.598,56.693 z" fill="#FFFFFF"/>
      <path d="M212.598,56.693 L226.772,56.693 L226.772,70.866 L212.598,70.866 L212.598,56.693 z" fill-opacity="0" stroke="#000000" stroke-width="0.5"/>
    </g>
    <g>
      <path d="M226.772,56.693 L240.945,56.693 L240.945,70.866 L226.772,70.866 L226.772,56.693 z" fill="#FFFFFF"/>
      <path d="M226.772,56.693 L240.945,56.693 L240.945,70.866 L226.772,70.866 L226.772,56.693 z" fill-opacity="0" stroke="#000000" stroke-width="0.5"/>
    </g>
    <g>
      <path d="M240.945,56.693 L255.118,56.693 L255.118,70.866 L240.945,70.866 L240.945,56.693 z" fill="#FFFFFF"/>
      <path d="M240.945,56.693 L255.118,56.693 L255.118,70.866 L240.945,70.866 L240.945,56.693 z" fill-opacity="0" stroke="#000000" stroke-width="0.5"/>
    </g>
    <g>
      <path d="M255.118,56.693 L269.291,56.693 L269.291,70.866 L255.118,70.866 L255.118,56.693 z" fill="#FFFFFF"/>
      <path d="M255.118,56.693 L269.291,56.693 L269.291,70.866 L255.118,70.866 L255.118,56.693 z" fill-opacity="0" stroke="#000000" stroke-width="0.5"/>
    </g>
    <g>
      <path d="M269.291,56.693 L283.465,56.693 L283.465,70.866 L269.291,70.866 L269.291,56.693 z" fill="#FFFFFF"/>
      <path d="M269.291,56.693 L283.465,56.693 L283.465,70.866 L269.291,70.866 L269.291,56.693 z" fill-opacity="0" stroke="#000000" stroke-width="0.5"/>
    </g>
    <g>
      <path d="M283.465,56.693 L297.638,56.693 L297.638,70.866 L283.465,70.866 L283.465,56.693 z" fill="#FFFFFF"/>
      <path d="M283.465,56.693 L297.638,56.693 L297.638,70.866 L283.465,70.866 L283.465,56.693 z" fill-opacity="0" stroke="#000000" stroke-width="0.5"/>
    </g>
    <g>
      <path d="M42.52,70.866 L56.693,70.866 L56.693,85.04 L42.52,85.04 L42.52,70.866 z" fill="#FFFFFF"/>
      <path d="M42.52,70.866 L56.693,70.866 L56.693,85.04 L42.52,85.04 L42.52,70.866 z" fill-opacity="0" stroke="#000000" stroke-width="0.5"/>
    </g>
    <g>
      <path d="M56.693,70.866 L70.866,70.866 L70.866,85.04 L56.693,85.04 L56.693,70.866 z" fill="#FFFFFF"/>
      <path d="M56.693,70.866 L70.866,70.866 L70.866,85.04 L56.693,85.04 L56.693,70.866 z" fill-opacity="0" stroke="#000000" stroke-width="0.5"/>
    </g>
    <g>
      <path d="M70.866,70.866 L85.039,70.866 L85.039,85.04 L70.866,85.04 L70.866,70.866 z" fill="#FFFFFF"/>
      <path d="M70.866,70.866 L85.039,70.866 L85.039,85.04 L70.866,85.04 L70.866,70.866 z" fill-opacity="0" stroke="#000000" stroke-width="0.5"/>
    </g>
    <g>
      <path d="M85.039,70.866 L99.213,70.866 L99.213,85.04 L85.039,85.04 L85.039,70.866 z" fill="#FFFFFF"/>
      <path d="M85.039,70.866 L99.213,70.866 L99.213,85.04 L85.039,85.04 L85.039,70.866 z" fill-opacity="0" stroke="#000000" stroke-width="0.5"/>
    </g>
    <g>
      <path d="M99.213,70.866 L113.386,70.866 L113.386,85.04 L99.213,85.04 L99.213,70.866 z" fill="#FFFFFF"/>
      <path d="M99.213,70.866 L113.386,70.866 L113.386,85.04 L99.213,85.04 L99.213,70.866 z" fill-opacity="0" stroke="#000000" stroke-width="0.5"/>
    </g>
    <g>
      <path d="M113.386,70.866 L127.559,70.866 L127.559,85.04 L113.386,85.04 L113.386,70.866 z" fill="#FFFFFF"/>
      <path d="M113.386,70.866 L127.559,70.866 L127.559,85.04 L113.386,85.04 L113.386,70.866 z" fill-opacity="0" stroke="#000000" stroke-width="0.5"/>
    </g>
    <g>
      <path d="M127.559,70.866 L141.732,70.866 L141.732,85.04 L127.559,85.04 L127.559,70.866 z" fill="#FFFFFF"/>
      <path d="M127.559,70.866 L141.732,70.866 L141.732,85.04 L127.559,85.04 L127.559,70.866 z" fill-opacity="0" stroke="#000000" stroke-width="0.5"/>
    </g>
    <g>
      <path d="M141.732,70.866 L155.906,70.866 L155.906,85.04 L141.732,85.04 L141.732,70.866 z" fill="#FFFFFF"/>
      <path d="M141.732,70.866 L155.906,70.866 L155.906,85.04 L141.732,85.04 L141.732,70.866 z" fill-opacity="0" stroke="#000000" stroke-width="0.5"/>
    </g>
    <g>
      <path d="M155.906,70.866 L170.079,70.866 L170.079,85.04 L155.906,85.04 L155.906,70.866 z" fill="#FFFFFF"/>
      <path d="M155.906,70.866 L170.079,70.866 L170.079,85.04 L155.906,85.04 L155.906,70.866 z" fill-opacity="0" stroke="#000000" stroke-width="0.5"/>
    </g>
    <g>
      <path d="M170.079,70.866 L184.252,70.866 L184.252,85.04 L170.079,85.04 L170.079,70.866 z" fill="#FFFFFF"/>
      <path d="M170.079,70.866 L184.252,70.866 L184.252,85.04 L170.079,85.04 L170.079,70.866 z" fill-opacity="0" stroke="#000000" stroke-width="0.5"/>
    </g>
    <g>
      <path d="M184.252,70.866 L198.425,70.866 L198.425,85.04 L184.252,85.04 L184.252,70.866 z" fill="#FFFFFF"/>
      <path d="M184.252,70.866 L198.425,70.866 L198.425,85.04 L184.252,85.04 L184.252,70.866 z" fill-opacity="0" stroke="#000000" stroke-width="0.5"/>
    </g>
    <g>
      <path d="M198.425,70.866 L212.598,70.866 L212.598,85.04 L198.425,85.04 L198.425,70.866 z" fill="#FFFFFF"/>
      <path d="M198.425,70.866 L212.598,70.866 L212.598,85.04 L198.425,85.04 L198.425,70.866 z" fill-opacity="0" stroke="#000000" stroke-width="0.5"/>
    </g>
    <g>
      <path d="M212.598,70.866 L226.772,70.866 L226.772,85.04 L212.598,85.04 L212.598,70.866 z" fill="#FFFFFF"/>
      <path d="M212.598,70.866 L226.772,70.866 L226.772,85.04 L212.598,85.04 L212.598,70.866 z" fill-opacity="0" stroke="#000000" stroke-width="0.5"/>
    </g>
    <g>
      <path d="M226.772,70.866 L240.945,70.866 L240.945,85.04 L226.772,85.04 L226.772,70.866 z" fill="#FFFFFF"/>
      <path d="M226.772,70.866 L240.945,70.866 L240.945,85.04 L226.772,85.04 L226.772,70.866 z" fill-opacity="0" stroke="#000000" stroke-width="0.5"/>
    </g>
    <g>
      <path d="M240.945,70.866 L255.118,70.866 L255.118,85.04 L240.945,85.04 L240.945,70.866 z" fill="#FFFFFF"/>
      <path d="M240.945,70.866 L255.118,70.866 L255.118,85.04 L240.945,85.04 L240.945,70.866 z" fill-opacity="0" stroke="#000000" stroke-width="0.5"/>
    </g>
    <g>
      <path d="M255.118,70.866 L269.291,70.866 L269.291,85.04 L255.118,85.04 L255.118,70.866 z" fill="#FFFFFF"/>
      <path d="M255.118,70.866 L269.291,70.866 L269.291,85.04 L255.118,85.04 L255.118,70.866 z" fill-opacity="0" stroke="#000000" stroke-width="0.5"/>
    </g>
    <g>
      <path d="M269.291,70.866 L283.465,70.866 L283.465,85.04 L269.291,85.04 L269.291,70.866 z" fill="#FFFFFF"/>
      <path d="M269.291,70.866 L283.465,70.866 L283.465,85.04 L269.291,85.04 L269.291,70.866 z" fill-opacity="0" stroke="#000000" stroke-width="0.5"/>
    </g>
    <g>
      <path d="M283.465,70.866 L297.638,70.866 L297.638,85.04 L283.465,85.04 L283.465,70.866 z" fill="#FFFFFF"/>
      <path d="M283.465,70.866 L297.638,70.866 L297.638,85.04 L283.465,85.04 L283.465,70.866 z" fill-opacity="0" stroke="#000000" stroke-width="0.5"/>
    </g>
    <g>
      <path d="M42.52,85.04 L56.693,85.04 L56.693,99.213 L42.52,99.213 L42.52,85.04 z" fill="#FFFFFF"/>
      <path d="M42.52,85.04 L56.693,85.04 L56.693,99.213 L42.52,99.213 L42.52,85.04 z" fill-opacity="0" stroke="#000000" stroke-width="0.5"/>
    </g>
    <g>
      <path d="M56.693,85.04 L70.866,85.04 L70.866,99.213 L56.693,99.213 L56.693,85.04 z" fill="#FFFFFF"/>
      <path d="M56.693,85.04 L70.866,85.04 L70.866,99.213 L56.693,99.213 L56.693,85.04 z" fill-opacity="0" stroke="#000000" stroke-width="0.5"/>
    </g>
    <g>
      <path d="M70.866,85.04 L85.039,85.04 L85.039,99.213 L70.866,99.213 L70.866,85.04 z" fill="#FFFFFF"/>
      <path d="M70.866,85.04 L85.039,85.04 L85.039,99.213 L70.866,99.213 L70.866,85.04 z" fill-opacity="0" stroke="#000000" stroke-width="0.5"/>
    </g>
    <g>
      <path d="M85.039,85.04 L99.213,85.04 L99.213,99.213 L85.039,99.213 L85.039,85.04 z" fill="#FFFFFF"/>
      <path d="M85.039,85.04 L99.213,85.04 L99.213,99.213 L85.039,99.213 L85.039,85.04 z" fill-opacity="0" stroke="#000000" stroke-width="0.5"/>
    </g>
    <g>
      <path d="M99.213,85.04 L113.386,85.04 L113.386,99.213 L99.213,99.213 L99.213,85.04 z" fill="#FFFFFF"/>
      <path d="M99.213,85.04 L113.386,85.04 L113.386,99.213 L99.213,99.213 L99.213,85.04 z" fill-opacity="0" stroke="#000000" stroke-width="0.5"/>
    </g>
    <g>
      <path d="M113.386,85.04 L127.559,85.04 L127.559,99.213 L113.386,99.213 L113.386,85.04 z" fill="#FFFFFF"/>
      <path d="M113.386,85.04 L127.559,85.04 L127.559,99.213 L113.386,99.213 L113.386,85.04 z" fill-opacity="0" stroke="#000000" stroke-width="0.5"/>
    </g>
    <g>
      <path d="M127.559,85.04 L141.732,85.04 L141.732,99.213 L127.559,99.213 L127.559,85.04 z" fill="#FFFFFF"/>
      <path d="M127.559,85.04 L141.732,85.04 L141.732,99.213 L127.559,99.213 L127.559,85.04 z" fill-opacity="0" stroke="#000000" stroke-width="0.5"/>
    </g>
    <g>
      <path d="M141.732,85.04 L155.906,85.04 L155.906,99.213 L141.732,99.213 L141.732,85.04 z" fill="#FFFFFF"/>
      <path d="M141.732,85.04 L155.906,85.04 L155.906,99.213 L141.732,99.213 L141.732,85.04 z" fill-opacity="0" stroke="#000000" stroke-width="0.5"/>
    </g>
    <g>
      <path d="M155.906,85.04 L170.079,85.04 L170.079,99.213 L155.906,99.213 L155.906,85.04 z" fill="#FFFFFF"/>
      <path d="M155.906,85.04 L170.079,85.04 L170.079,99.213 L155.906,99.213 L155.906,85.04 z" fill-opacity="0" stroke="#000000" stroke-width="0.5"/>
    </g>
    <g>
      <path d="M170.079,85.04 L184.252,85.04 L184.252,99.213 L170.079,99.213 L170.079,85.04 z" fill="#FFFFFF"/>
      <path d="M170.079,85.04 L184.252,85.04 L184.252,99.213 L170.079,99.213 L170.079,85.04 z" fill-opacity="0" stroke="#000000" stroke-width="0.5"/>
    </g>
    <g>
      <path d="M184.252,85.04 L198.425,85.04 L198.425,99.213 L184.252,99.213 L184.252,85.04 z" fill="#FFFFFF"/>
      <path d="M184.252,85.04 L198.425,85.04 L198.425,99.213 L184.252,99.213 L184.252,85.04 z" fill-opacity="0" stroke="#000000" stroke-width="0.5"/>
    </g>
    <g>
      <path d="M198.425,85.04 L212.598,85.04 L212.598,99.213 L198.425,99.213 L198.425,85.04 z" fill="#FFFFFF"/>
      <path d="M198.425,85.04 L212.598,85.04 L212.598,99.213 L198.425,99.213 L198.425,85.04 z" fill-opacity="0" stroke="#000000" stroke-width="0.5"/>
    </g>
    <g>
      <path d="M212.598,85.04 L226.772,85.04 L226.772,99.213 L212.598,99.213 L212.598,85.04 z" fill="#FFFFFF"/>
      <path d="M212.598,85.04 L226.772,85.04 L226.772,99.213 L212.598,99.213 L212.598,85.04 z" fill-opacity="0" stroke="#000000" stroke-width="0.5"/>
    </g>
    <g>
      <path d="M226.772,85.04 L240.945,85.04 L240.945,99.213 L226.772,99.213 L226.772,85.04 z" fill="#FFFFFF"/>
      <path d="M226.772,85.04 L240.945,85.04 L240.945,99.213 L226.772,99.213 L226.772,85.04 z" fill-opacity="0" stroke="#000000" stroke-width="0.5"/>
    </g>
    <g>
      <path d="M240.945,85.04 L255.118,85.04 L255.118,99.213 L240.945,99.213 L240.945,85.04 z" fill="#FFFFFF"/>
      <path d="M240.945,85.04 L255.118,85.04 L255.118,99.213 L240.945,99.213 L240.945,85.04 z" fill-opacity="0" stroke="#000000" stroke-width="0.5"/>
    </g>
    <g>
      <path d="M255.118,85.04 L269.291,85.04 L269.291,99.213 L255.118,99.213 L255.118,85.04 z" fill="#FFFFFF"/>
      <path d="M255.118,85.04 L269.291,85.04 L269.291,99.213 L255.118,99.213 L255.118,85.04 z" fill-opacity="0" stroke="#000000" stroke-width="0.5"/>
    </g>
    <g>
      <path d="M269.291,85.04 L283.465,85.04 L283.465,99.213 L269.291,99.213 L269.291,85.04 z" fill="#FFFFFF"/>
      <path d="M269.291,85.04 L283.465,85.04 L283.465,99.213 L269.291,99.213 L269.291,85.04 z" fill-opacity="0" stroke="#000000" stroke-width="0.5"/>
    </g>
    <g>
      <path d="M283.465,85.04 L297.638,85.04 L297.638,99.213 L283.465,99.213 L283.465,85.04 z" fill="#FFFFFF"/>
      <path d="M283.465,85.04 L297.638,85.04 L297.638,99.213 L283.465,99.213 L283.465,85.04 z" fill-opacity="0" stroke="#000000" stroke-width="0.5"/>
    </g>
    <g>
      <path d="M42.52,99.213 L56.693,99.213 L56.693,113.386 L42.52,113.386 L42.52,99.213 z" fill="#FFFFFF"/>
      <path d="M42.52,99.213 L56.693,99.213 L56.693,113.386 L42.52,113.386 L42.52,99.213 z" fill-opacity="0" stroke="#000000" stroke-width="0.5"/>
    </g>
    <g>
      <path d="M56.693,99.213 L70.866,99.213 L70.866,113.386 L56.693,113.386 L56.693,99.213 z" fill="#FFFFFF"/>
      <path d="M56.693,99.213 L70.866,99.213 L70.866,113.386 L56.693,113.386 L56.693,99.213 z" fill-opacity="0" stroke="#000000" stroke-width="0.5"/>
    </g>
    <g>
      <path d="M70.866,99.213 L85.039,99.213 L85.039,113.386 L70.866,113.386 L70.866,99.213 z" fill="#FFFFFF"/>
      <path d="M70.866,99.213 L85.039,99.213 L85.039,113.386 L70.866,113.386 L70.866,99.213 z" fill-opacity="0" stroke="#000000" stroke-width="0.5"/>
    </g>
    <g>
      <path d="M85.039,99.213 L99.213,99.213 L99.213,113.386 L85.039,113.386 L85.039,99.213 z" fill="#FFFFFF"/>
      <path d="M85.039,99.213 L99.213,99.213 L99.213,113.386 L85.039,113.386 L85.039,99.213 z" fill-opacity="0" stroke="#000000" stroke-width="0.5"/>
    </g>
    <g>
      <path d="M99.213,99.213 L113.386,99.213 L113.386,113.386 L99.213,113.386 L99.213,99.213 z" fill="#FFFFFF"/>
      <path d="M99.213,99.213 L113.386,99.213 L113.386,113.386 L99.213,113.386 L99.213,99.213 z" fill-opacity="0" stroke="#000000" stroke-width="0.5"/>
    </g>
    <g>
      <path d="M113.386,99.213 L127.559,99.213 L127.559,113.386 L113.386,113.386 L113.386,99.213 z" fill="#FFFFFF"/>
      <path d="M113.386,99.213 L127.559,99.213 L127.559,113.386 L113.386,113.386 L113.386,99.213 z" fill-opacity="0" stroke="#000000" stroke-width="0.5"/>
    </g>
    <g>
      <path d="M127.559,99.213 L141.732,99.213 L141.732,113.386 L127.559,113.386 L127.559,99.213 z" fill="#FFFFFF"/>
      <path d="M127.559,99.213 L141.732,99.213 L141.732,113.386 L127.559,113.386 L127.559,99.213 z" fill-opacity="0" stroke="#000000" stroke-width="0.5"/>
    </g>
    <g>
      <path d="M141.732,99.213 L155.906,99.213 L155.906,113.386 L141.732,113.386 L141.732,99.213 z" fill="#FFFFFF"/>
      <path d="M141.732,99.213 L155.906,99.213 L155.906,113.386 L141.732,113.386 L141.732,99.213 z" fill-opacity="0" stroke="#000000" stroke-width="0.5"/>
    </g>
    <g>
      <path d="M155.906,99.213 L170.079,99.213 L170.079,113.386 L155.906,113.386 L155.906,99.213 z" fill="#FFFFFF"/>
      <path d="M155.906,99.213 L170.079,99.213 L170.079,113.386 L155.906,113.386 L155.906,99.213 z" fill-opacity="0" stroke="#000000" stroke-width="0.5"/>
    </g>
    <g>
      <path d="M170.079,99.213 L184.252,99.213 L184.252,113.386 L170.079,113.386 L170.079,99.213 z" fill="#FFFFFF"/>
      <path d="M170.079,99.213 L184.252,99.213 L184.252,113.386 L170.079,113.386 L170.079,99.213 z" fill-opacity="0" stroke="#000000" stroke-width="0.5"/>
    </g>
    <g>
      <path d="M184.252,99.213 L198.425,99.213 L198.425,113.386 L184.252,113.386 L184.252,99.213 z" fill="#FFFFFF"/>
      <path d="M184.252,99.213 L198.425,99.213 L198.425,113.386 L184.252,113.386 L184.252,99.213 z" fill-opacity="0" stroke="#000000" stroke-width="0.5"/>
    </g>
    <g>
      <path d="M198.425,99.213 L212.598,99.213 L212.598,113.386 L198.425,113.386 L198.425,99.213 z" fill="#FFFFFF"/>
      <path d="M198.425,99.213 L212.598,99.213 L212.598,113.386 L198.425,113.386 L198.425,99.213 z" fill-opacity="0" stroke="#000000" stroke-width="0.5"/>
    </g>
    <g>
      <path d="M212.598,99.213 L226.772,99.213 L226.772,113.386 L212.598,113.386 L212.598,99.213 z" fill="#FFFFFF"/>
      <path d="M212.598,99.213 L226.772,99.213 L226.772,113.386 L212.598,113.386 L212.598,99.213 z" fill-opacity="0" stroke="#000000" stroke-width="0.5"/>
    </g>
    <g>
      <path d="M226.772,99.213 L240.945,99.213 L240.945,113.386 L226.772,113.386 L226.772,99.213 z" fill="#FFFFFF"/>
      <path d="M226.772,99.213 L240.945,99.213 L240.945,113.386 L226.772,113.386 L226.772,99.213 z" fill-opacity="0" stroke="#000000" stroke-width="0.5"/>
    </g>
    <g>
      <path d="M240.945,99.213 L255.118,99.213 L255.118,113.386 L240.945,113.386 L240.945,99.213 z" fill="#FFFFFF"/>
      <path d="M240.945,99.213 L255.118,99.213 L255.118,113.386 L240.945,113.386 L240.945,99.213 z" fill-opacity="0" stroke="#000000" stroke-width="0.5"/>
    </g>
    <g>
      <path d="M255.118,99.213 L269.291,99.213 L269.291,113.386 L255.118,113.386 L255.118,99.213 z" fill="#FFFFFF"/>
      <path d="M255.118,99.213 L269.291,99.213 L269.291,113.386 L255.118,113.386 L255.118,99.213 z" fill-opacity="0" stroke="#000000" stroke-width="0.5"/>
    </g>
    <g>
      <path d="M269.291,99.213 L283.465,99.213 L283.465,113.386 L269.291,113.386 L269.291,99.213 z" fill="#FFFFFF"/>
      <path d="M269.291,99.213 L283.465,99.213 L283.465,113.386 L269.291,113.386 L269.291,99.213 z" fill-opacity="0" stroke="#000000" stroke-width="0.5"/>
    </g>
    <g>
      <path d="M283.465,99.213 L297.638,99.213 L297.638,113.386 L283.465,113.386 L283.465,99.213 z" fill="#FFFFFF"/>
      <path d="M283.465,99.213 L297.638,99.213 L297.638,113.386 L283.465,113.386 L283.465,99.213 z" fill-opacity="0" stroke="#000000" stroke-width="0.5"/>
    </g>
    <g>
      <path d="M42.52,113.386 L56.693,113.386 L56.693,127.559 L42.52,127.559 L42.52,113.386 z" fill="#FFFFFF"/>
      <path d="M42.52,113.386 L56.693,113.386 L56.693,127.559 L42.52,127.559 L42.52,113.386 z" fill-opacity="0" stroke="#000000" stroke-width="0.5"/>
    </g>
    <g>
      <path d="M56.693,113.386 L70.866,113.386 L70.866,127.559 L56.693,127.559 L56.693,113.386 z" fill="#FFFFFF"/>
      <path d="M56.693,113.386 L70.866,113.386 L70.866,127.559 L56.693,127.559 L56.693,113.386 z" fill-opacity="0" stroke="#000000" stroke-width="0.5"/>
    </g>
    <g>
      <path d="M70.866,113.386 L85.039,113.386 L85.039,127.559 L70.866,127.559 L70.866,113.386 z" fill="#FFFFFF"/>
      <path d="M70.866,113.386 L85.039,113.386 L85.039,127.559 L70.866,127.559 L70.866,113.386 z" fill-opacity="0" stroke="#000000" stroke-width="0.5"/>
    </g>
    <g>
      <path d="M85.039,113.386 L99.213,113.386 L99.213,127.559 L85.039,127.559 L85.039,113.386 z" fill="#FFFFFF"/>
      <path d="M85.039,113.386 L99.213,113.386 L99.213,127.559 L85.039,127.559 L85.039,113.386 z" fill-opacity="0" stroke="#000000" stroke-width="0.5"/>
    </g>
    <g>
      <path d="M99.213,113.386 L113.386,113.386 L113.386,127.559 L99.213,127.559 L99.213,113.386 z" fill="#FFFFFF"/>
      <path d="M99.213,113.386 L113.386,113.386 L113.386,127.559 L99.213,127.559 L99.213,113.386 z" fill-opacity="0" stroke="#000000" stroke-width="0.5"/>
    </g>
    <g>
      <path d="M113.386,113.386 L127.559,113.386 L127.559,127.559 L113.386,127.559 L113.386,113.386 z" fill="#FFFFFF"/>
      <path d="M113.386,113.386 L127.559,113.386 L127.559,127.559 L113.386,127.559 L113.386,113.386 z" fill-opacity="0" stroke="#000000" stroke-width="0.5"/>
    </g>
    <g>
      <path d="M127.559,113.386 L141.732,113.386 L141.732,127.559 L127.559,127.559 L127.559,113.386 z" fill="#FFFFFF"/>
      <path d="M127.559,113.386 L141.732,113.386 L141.732,127.559 L127.559,127.559 L127.559,113.386 z" fill-opacity="0" stroke="#000000" stroke-width="0.5"/>
    </g>
    <g>
      <path d="M141.732,113.386 L155.906,113.386 L155.906,127.559 L141.732,127.559 L141.732,113.386 z" fill="#FFFFFF"/>
      <path d="M141.732,113.386 L155.906,113.386 L155.906,127.559 L141.732,127.559 L141.732,113.386 z" fill-opacity="0" stroke="#000000" stroke-width="0.5"/>
    </g>
    <g>
      <path d="M155.906,113.386 L170.079,113.386 L170.079,127.559 L155.906,127.559 L155.906,113.386 z" fill="#FFFFFF"/>
      <path d="M155.906,113.386 L170.079,113.386 L170.079,127.559 L155.906,127.559 L155.906,113.386 z" fill-opacity="0" stroke="#000000" stroke-width="0.5"/>
    </g>
    <g>
      <path d="M170.079,113.386 L184.252,113.386 L184.252,127.559 L170.079,127.559 L170.079,113.386 z" fill="#FFFFFF"/>
      <path d="M170.079,113.386 L184.252,113.386 L184.252,127.559 L170.079,127.559 L170.079,113.386 z" fill-opacity="0" stroke="#000000" stroke-width="0.5"/>
    </g>
    <g>
      <path d="M184.252,113.386 L198.425,113.386 L198.425,127.559 L184.252,127.559 L184.252,113.386 z" fill="#FFFFFF"/>
      <path d="M184.252,113.386 L198.425,113.386 L198.425,127.559 L184.252,127.559 L184.252,113.386 z" fill-opacity="0" stroke="#000000" stroke-width="0.5"/>
    </g>
    <g>
      <path d="M198.425,113.386 L212.598,113.386 L212.598,127.559 L198.425,127.559 L198.425,113.386 z" fill="#FFFFFF"/>
      <path d="M198.425,113.386 L212.598,113.386 L212.598,127.559 L198.425,127.559 L198.425,113.386 z" fill-opacity="0" stroke="#000000" stroke-width="0.5"/>
    </g>
    <g>
      <path d="M212.598,113.386 L226.772,113.386 L226.772,127.559 L212.598,127.559 L212.598,113.386 z" fill="#FFFFFF"/>
      <path d="M212.598,113.386 L226.772,113.386 L226.772,127.559 L212.598,127.559 L212.598,113.386 z" fill-opacity="0" stroke="#000000" stroke-width="0.5"/>
    </g>
    <g>
      <path d="M226.772,113.386 L240.945,113.386 L240.945,127.559 L226.772,127.559 L226.772,113.386 z" fill="#FFFFFF"/>
      <path d="M226.772,113.386 L240.945,113.386 L240.945,127.559 L226.772,127.559 L226.772,113.386 z" fill-opacity="0" stroke="#000000" stroke-width="0.5"/>
    </g>
    <g>
      <path d="M240.945,113.386 L255.118,113.386 L255.118,127.559 L240.945,127.559 L240.945,113.386 z" fill="#FFFFFF"/>
      <path d="M240.945,113.386 L255.118,113.386 L255.118,127.559 L240.945,127.559 L240.945,113.386 z" fill-opacity="0" stroke="#000000" stroke-width="0.5"/>
    </g>
    <g>
      <path d="M255.118,113.386 L269.291,113.386 L269.291,127.559 L255.118,127.559 L255.118,113.386 z" fill="#FFFFFF"/>
      <path d="M255.118,113.386 L269.291,113.386 L269.291,127.559 L255.118,127.559 L255.118,113.386 z" fill-opacity="0" stroke="#000000" stroke-width="0.5"/>
    </g>
    <g>
      <path d="M269.291,113.386 L283.465,113.386 L283.465,127.559 L269.291,127.559 L269.291,113.386 z" fill="#FFFFFF"/>
      <path d="M269.291,113.386 L283.465,113.386 L283.465,127.559 L269.291,127.559 L269.291,113.386 z" fill-opacity="0" stroke="#000000" stroke-width="0.5"/>
    </g>
    <g>
      <path d="M283.465,113.386 L297.638,113.386 L297.638,127.559 L283.465,127.559 L283.465,113.386 z" fill="#FFFFFF"/>
      <path d="M283.465,113.386 L297.638,113.386 L297.638,127.559 L283.465,127.559 L283.465,113.386 z" fill-opacity="0" stroke="#000000" stroke-width="0.5"/>
    </g>
    <g>
      <path d="M42.52,127.559 L56.693,127.559 L56.693,141.733 L42.52,141.733 L42.52,127.559 z" fill="#FFFFFF"/>
      <path d="M42.52,127.559 L56.693,127.559 L56.693,141.733 L42.52,141.733 L42.52,127.559 z" fill-opacity="0" stroke="#000000" stroke-width="0.5"/>
    </g>
    <g>
      <path d="M56.693,127.559 L70.866,127.559 L70.866,141.733 L56.693,141.733 L56.693,127.559 z" fill="#FFFFFF"/>
      <path d="M56.693,127.559 L70.866,127.559 L70.866,141.733 L56.693,141.733 L56.693,127.559 z" fill-opacity="0" stroke="#000000" stroke-width="0.5"/>
    </g>
    <g>
      <path d="M70.866,127.559 L85.039,127.559 L85.039,141.733 L70.866,141.733 L70.866,127.559 z" fill="#FFFFFF"/>
      <path d="M70.866,127.559 L85.039,127.559 L85.039,141.733 L70.866,141.733 L70.866,127.559 z" fill-opacity="0" stroke="#000000" stroke-width="0.5"/>
    </g>
    <g>
      <path d="M85.039,127.559 L99.213,127.559 L99.213,141.733 L85.039,141.733 L85.039,127.559 z" fill="#FFFFFF"/>
      <path d="M85.039,127.559 L99.213,127.559 L99.213,141.733 L85.039,141.733 L85.039,127.559 z" fill-opacity="0" stroke="#000000" stroke-width="0.5"/>
    </g>
    <g>
      <path d="M99.213,127.559 L113.386,127.559 L113.386,141.733 L99.213,141.733 L99.213,127.559 z" fill="#FFFFFF"/>
      <path d="M99.213,127.559 L113.386,127.559 L113.386,141.733 L99.213,141.733 L99.213,127.559 z" fill-opacity="0" stroke="#000000" stroke-width="0.5"/>
    </g>
    <g>
      <path d="M113.386,127.559 L127.559,127.559 L127.559,141.733 L113.386,141.733 L113.386,127.559 z" fill="#FFFFFF"/>
      <path d="M113.386,127.559 L127.559,127.559 L127.559,141.733 L113.386,141.733 L113.386,127.559 z" fill-opacity="0" stroke="#000000" stroke-width="0.5"/>
    </g>
    <g>
      <path d="M127.559,127.559 L141.732,127.559 L141.732,141.733 L127.559,141.733 L127.559,127.559 z" fill="#FFFFFF"/>
      <path d="M127.559,127.559 L141.732,127.559 L141.732,141.733 L127.559,141.733 L127.559,127.559 z" fill-opacity="0" stroke="#000000" stroke-width="0.5"/>
    </g>
    <g>
      <path d="M141.732,127.559 L155.906,127.559 L155.906,141.733 L141.732,141.733 L141.732,127.559 z" fill="#FFFFFF"/>
      <path d="M141.732,127.559 L155.906,127.559 L155.906,141.733 L141.732,141.733 L141.732,127.559 z" fill-opacity="0" stroke="#000000" stroke-width="0.5"/>
    </g>
    <g>
      <path d="M155.906,127.559 L170.079,127.559 L170.079,141.733 L155.906,141.733 L155.906,127.559 z" fill="#FFFFFF"/>
      <path d="M155.906,127.559 L170.079,127.559 L170.079,141.733 L155.906,141.733 L155.906,127.559 z" fill-opacity="0" stroke="#000000" stroke-width="0.5"/>
    </g>
    <g>
      <path d="M170.079,127.559 L184.252,127.559 L184.252,141.733 L170.079,141.733 L170.079,127.559 z" fill="#FFFFFF"/>
      <path d="M170.079,127.559 L184.252,127.559 L184.252,141.733 L170.079,141.733 L170.079,127.559 z" fill-opacity="0" stroke="#000000" stroke-width="0.5"/>
    </g>
    <g>
      <path d="M184.252,127.559 L198.425,127.559 L198.425,141.733 L184.252,141.733 L184.252,127.559 z" fill="#FFFFFF"/>
      <path d="M184.252,127.559 L198.425,127.559 L198.425,141.733 L184.252,141.733 L184.252,127.559 z" fill-opacity="0" stroke="#000000" stroke-width="0.5"/>
    </g>
    <g>
      <path d="M198.425,127.559 L212.598,127.559 L212.598,141.733 L198.425,141.733 L198.425,127.559 z" fill="#FFFFFF"/>
      <path d="M198.425,127.559 L212.598,127.559 L212.598,141.733 L198.425,141.733 L198.425,127.559 z" fill-opacity="0" stroke="#000000" stroke-width="0.5"/>
    </g>
    <g>
      <path d="M212.598,127.559 L226.772,127.559 L226.772,141.733 L212.598,141.733 L212.598,127.559 z" fill="#FFFFFF"/>
      <path d="M212.598,127.559 L226.772,127.559 L226.772,141.733 L212.598,141.733 L212.598,127.559 z" fill-opacity="0" stroke="#000000" stroke-width="0.5"/>
    </g>
    <g>
      <path d="M226.772,127.559 L240.945,127.559 L240.945,141.733 L226.772,141.733 L226.772,127.559 z" fill="#FFFFFF"/>
      <path d="M226.772,127.559 L240.945,127.559 L240.945,141.733 L226.772,141.733 L226.772,127.559 z" fill-opacity="0" stroke="#000000" stroke-width="0.5"/>
    </g>
    <g>
      <path d="M240.945,127.559 L255.118,127.559 L255.118,141.733 L240.945,141.733 L240.945,127.559 z" fill="#FFFFFF"/>
      <path d="M240.945,127.559 L255.118,127.559 L255.118,141.733 L240.945,141.733 L240.945,127.559 z" fill-opacity="0" stroke="#000000" stroke-width="0.5"/>
    </g>
    <g>
      <path d="M255.118,127.559 L269.291,127.559 L269.291,141.733 L255.118,141.733 L255.118,127.559 z" fill="#FFFFFF"/>
      <path d="M255.118,127.559 L269.291,127.559 L269.291,141.733 L255.118,141.733 L255.118,127.559 z" fill-opacity="0" stroke="#000000" stroke-width="0.5"/>
    </g>
    <g>
      <path d="M269.291,127.559 L283.465,127.559 L283.465,141.733 L269.291,141.733 L269.291,127.559 z" fill="#FFFFFF"/>
      <path d="M269.291,127.559 L283.465,127.559 L283.465,141.733 L269.291,141.733 L269.291,127.559 z" fill-opacity="0" stroke="#000000" stroke-width="0.5"/>
    </g>
    <g>
      <path d="M283.465,127.559 L297.638,127.559 L297.638,141.733 L283.465,141.733 L283.465,127.559 z" fill="#FFFFFF"/>
      <path d="M283.465,127.559 L297.638,127.559 L297.638,141.733 L283.465,141.733 L283.465,127.559 z" fill-opacity="0" stroke="#000000" stroke-width="0.5"/>
    </g>
    <g>
      <path d="M42.52,141.733 L56.693,141.733 L56.693,155.906 L42.52,155.906 L42.52,141.733 z" fill="#FFFFFF"/>
      <path d="M42.52,141.733 L56.693,141.733 L56.693,155.906 L42.52,155.906 L42.52,141.733 z" fill-opacity="0" stroke="#000000" stroke-width="0.5"/>
    </g>
    <g>
      <path d="M56.693,141.733 L70.866,141.733 L70.866,155.906 L56.693,155.906 L56.693,141.733 z" fill="#FFFFFF"/>
      <path d="M56.693,141.733 L70.866,141.733 L70.866,155.906 L56.693,155.906 L56.693,141.733 z" fill-opacity="0" stroke="#000000" stroke-width="0.5"/>
    </g>
    <g>
      <path d="M70.866,141.733 L85.039,141.733 L85.039,155.906 L70.866,155.906 L70.866,141.733 z" fill="#FFFFFF"/>
      <path d="M70.866,141.733 L85.039,141.733 L85.039,155.906 L70.866,155.906 L70.866,141.733 z" fill-opacity="0" stroke="#000000" stroke-width="0.5"/>
    </g>
    <g>
      <path d="M85.039,141.733 L99.213,141.733 L99.213,155.906 L85.039,155.906 L85.039,141.733 z" fill="#FFFFFF"/>
      <path d="M85.039,141.733 L99.213,141.733 L99.213,155.906 L85.039,155.906 L85.039,141.733 z" fill-opacity="0" stroke="#000000" stroke-width="0.5"/>
    </g>
    <g>
      <path d="M99.213,141.733 L113.386,141.733 L113.386,155.906 L99.213,155.906 L99.213,141.733 z" fill="#FFFFFF"/>
      <path d="M99.213,141.733 L113.386,141.733 L113.386,155.906 L99.213,155.906 L99.213,141.733 z" fill-opacity="0" stroke="#000000" stroke-width="0.5"/>
    </g>
    <g>
      <path d="M113.386,141.733 L127.559,141.733 L127.559,155.906 L113.386,155.906 L113.386,141.733 z" fill="#FFFFFF"/>
      <path d="M113.386,141.733 L127.559,141.733 L127.559,155.906 L113.386,155.906 L113.386,141.733 z" fill-opacity="0" stroke="#000000" stroke-width="0.5"/>
    </g>
    <g>
      <path d="M127.559,141.733 L141.732,141.733 L141.732,155.906 L127.559,155.906 L127.559,141.733 z" fill="#FFFFFF"/>
      <path d="M127.559,141.733 L141.732,141.733 L141.732,155.906 L127.559,155.906 L127.559,141.733 z" fill-opacity="0" stroke="#000000" stroke-width="0.5"/>
    </g>
    <g>
      <path d="M141.732,141.733 L155.906,141.733 L155.906,155.906 L141.732,155.906 L141.732,141.733 z" fill="#FFFFFF"/>
      <path d="M141.732,141.733 L155.906,141.733 L155.906,155.906 L141.732,155.906 L141.732,141.733 z" fill-opacity="0" stroke="#000000" stroke-width="0.5"/>
    </g>
    <g>
      <path d="M155.906,141.733 L170.079,141.733 L170.079,155.906 L155.906,155.906 L155.906,141.733 z" fill="#FFFFFF"/>
      <path d="M155.906,141.733 L170.079,141.733 L170.079,155.906 L155.906,155.906 L155.906,141.733 z" fill-opacity="0" stroke="#000000" stroke-width="0.5"/>
    </g>
    <g>
      <path d="M170.079,141.733 L184.252,141.733 L184.252,155.906 L170.079,155.906 L170.079,141.733 z" fill="#FFFFFF"/>
      <path d="M170.079,141.733 L184.252,141.733 L184.252,155.906 L170.079,155.906 L170.079,141.733 z" fill-opacity="0" stroke="#000000" stroke-width="0.5"/>
    </g>
    <g>
      <path d="M184.252,141.733 L198.425,141.733 L198.425,155.906 L184.252,155.906 L184.252,141.733 z" fill="#FFFFFF"/>
      <path d="M184.252,141.733 L198.425,141.733 L198.425,155.906 L184.252,155.906 L184.252,141.733 z" fill-opacity="0" stroke="#000000" stroke-width="0.5"/>
    </g>
    <g>
      <path d="M198.425,141.733 L212.598,141.733 L212.598,155.906 L198.425,155.906 L198.425,141.733 z" fill="#FFFFFF"/>
      <path d="M198.425,141.733 L212.598,141.733 L212.598,155.906 L198.425,155.906 L198.425,141.733 z" fill-opacity="0" stroke="#000000" stroke-width="0.5"/>
    </g>
    <g>
      <path d="M212.598,141.733 L226.772,141.733 L226.772,155.906 L212.598,155.906 L212.598,141.733 z" fill="#FFFFFF"/>
      <path d="M212.598,141.733 L226.772,141.733 L226.772,155.906 L212.598,155.906 L212.598,141.733 z" fill-opacity="0" stroke="#000000" stroke-width="0.5"/>
    </g>
    <g>
      <path d="M226.772,141.733 L240.945,141.733 L240.945,155.906 L226.772,155.906 L226.772,141.733 z" fill="#FFFFFF"/>
      <path d="M226.772,141.733 L240.945,141.733 L240.945,155.906 L226.772,155.906 L226.772,141.733 z" fill-opacity="0" stroke="#000000" stroke-width="0.5"/>
    </g>
    <g>
      <path d="M240.945,141.733 L255.118,141.733 L255.118,155.906 L240.945,155.906 L240.945,141.733 z" fill="#FFFFFF"/>
      <path d="M240.945,141.733 L255.118,141.733 L255.118,155.906 L240.945,155.906 L240.945,141.733 z" fill-opacity="0" stroke="#000000" stroke-width="0.5"/>
    </g>
    <g>
      <path d="M255.118,141.733 L269.291,141.733 L269.291,155.906 L255.118,155.906 L255.118,141.733 z" fill="#FFFFFF"/>
      <path d="M255.118,141.733 L269.291,141.733 L269.291,155.906 L255.118,155.906 L255.118,141.733 z" fill-opacity="0" stroke="#000000" stroke-width="0.5"/>
    </g>
    <g>
      <path d="M269.291,141.733 L283.465,141.733 L283.465,155.906 L269.291,155.906 L269.291,141.733 z" fill="#FFFFFF"/>
      <path d="M269.291,141.733 L283.465,141.733 L283.465,155.906 L269.291,155.906 L269.291,141.733 z" fill-opacity="0" stroke="#000000" stroke-width="0.5"/>
    </g>
    <g>
      <path d="M283.465,141.733 L297.638,141.733 L297.638,155.906 L283.465,155.906 L283.465,141.733 z" fill="#FFFFFF"/>
      <path d="M283.465,141.733 L297.638,141.733 L297.638,155.906 L283.465,155.906 L283.465,141.733 z" fill-opacity="0" stroke="#000000" stroke-width="0.5"/>
    </g>
    <g>
      <path d="M42.52,14.173 L56.693,14.173 L56.693,28.347 L42.52,28.347 L42.52,14.173 z" fill="#F9D3E0"/>
      <path d="M42.52,14.173 L56.693,14.173 L56.693,28.347 L42.52,28.347 L42.52,14.173 z" fill-opacity="0" stroke="#000000" stroke-width="0.5"/>
    </g>
    <g>
      <path d="M56.693,14.173 L70.866,14.173 L70.866,28.347 L56.693,28.347 L56.693,14.173 z" fill="#FFFFFF"/>
      <path d="M56.693,14.173 L70.866,14.173 L70.866,28.347 L56.693,28.347 L56.693,14.173 z" fill-opacity="0" stroke="#000000" stroke-width="0.5"/>
    </g>
    <g>
      <path d="M56.693,14.173 L70.866,14.173 L70.866,28.347 L56.693,28.347 L56.693,14.173 z" fill="#F9D3E0"/>
      <path d="M56.693,14.173 L70.866,14.173 L70.866,28.347 L56.693,28.347 L56.693,14.173 z" fill-opacity="0" stroke="#000000" stroke-width="0.5"/>
    </g>
    <g>
      <path d="M70.866,14.173 L85.039,14.173 L85.039,28.347 L70.866,28.347 L70.866,14.173 z" fill="#FFFFFF"/>
      <path d="M70.866,14.173 L85.039,14.173 L85.039,28.347 L70.866,28.347 L70.866,14.173 z" fill-opacity="0" stroke="#000000" stroke-width="0.5"/>
    </g>
    <g>
      <path d="M85.039,14.173 L99.213,14.173 L99.213,28.347 L85.039,28.347 L85.039,14.173 z" fill="#FFFFFF"/>
      <path d="M85.039,14.173 L99.213,14.173 L99.213,28.347 L85.039,28.347 L85.039,14.173 z" fill-opacity="0" stroke="#000000" stroke-width="0.5"/>
    </g>
    <g>
      <path d="M99.213,14.173 L113.386,14.173 L113.386,28.347 L99.213,28.347 L99.213,14.173 z" fill="#FFFFFF"/>
      <path d="M99.213,14.173 L113.386,14.173 L113.386,28.347 L99.213,28.347 L99.213,14.173 z" fill-opacity="0" stroke="#000000" stroke-width="0.5"/>
    </g>
    <g>
      <path d="M113.386,14.173 L127.559,14.173 L127.559,28.347 L113.386,28.347 L113.386,14.173 z" fill="#FFFFFF"/>
      <path d="M113.386,14.173 L127.559,14.173 L127.559,28.347 L113.386,28.347 L113.386,14.173 z" fill-opacity="0" stroke="#000000" stroke-width="0.5"/>
    </g>
    <g>
      <path d="M127.559,14.173 L141.732,14.173 L141.732,28.347 L127.559,28.347 L127.559,14.173 z" fill="#FFFFFF"/>
      <path d="M127.559,14.173 L141.732,14.173 L141.732,28.347 L127.559,28.347 L127.559,14.173 z" fill-opacity="0" stroke="#000000" stroke-width="0.5"/>
    </g>
    <g>
      <path d="M141.732,14.173 L155.906,14.173 L155.906,28.347 L141.732,28.347 L141.732,14.173 z" fill="#FFFFFF"/>
      <path d="M141.732,14.173 L155.906,14.173 L155.906,28.347 L141.732,28.347 L141.732,14.173 z" fill-opacity="0" stroke="#000000" stroke-width="0.5"/>
    </g>
    <g>
      <path d="M155.906,14.173 L170.079,14.173 L170.079,28.347 L155.906,28.347 L155.906,14.173 z" fill="#FFFFFF"/>
      <path d="M155.906,14.173 L170.079,14.173 L170.079,28.347 L155.906,28.347 L155.906,14.173 z" fill-opacity="0" stroke="#000000" stroke-width="0.5"/>
    </g>
    <g>
      <path d="M170.079,14.173 L184.252,14.173 L184.252,28.347 L170.079,28.347 L170.079,14.173 z" fill="#FFFFFF"/>
      <path d="M170.079,14.173 L184.252,14.173 L184.252,28.347 L170.079,28.347 L170.079,14.173 z" fill-opacity="0" stroke="#000000" stroke-width="0.5"/>
    </g>
    <g>
      <path d="M184.252,14.173 L198.425,14.173 L198.425,28.347 L184.252,28.347 L184.252,14.173 z" fill="#FFFFFF"/>
      <path d="M184.252,14.173 L198.425,14.173 L198.425,28.347 L184.252,28.347 L184.252,14.173 z" fill-opacity="0" stroke="#000000" stroke-width="0.5"/>
    </g>
    <g>
      <path d="M198.425,14.173 L212.598,14.173 L212.598,28.347 L198.425,28.347 L198.425,14.173 z" fill="#FFFFFF"/>
      <path d="M198.425,14.173 L212.598,14.173 L212.598,28.347 L198.425,28.347 L198.425,14.173 z" fill-opacity="0" stroke="#000000" stroke-width="0.5"/>
    </g>
    <g>
      <path d="M212.598,14.173 L226.772,14.173 L226.772,28.347 L212.598,28.347 L212.598,14.173 z" fill="#FFFFFF"/>
      <path d="M212.598,14.173 L226.772,14.173 L226.772,28.347 L212.598,28.347 L212.598,14.173 z" fill-opacity="0" stroke="#000000" stroke-width="0.5"/>
    </g>
    <g>
      <path d="M226.772,14.173 L240.945,14.173 L240.945,28.347 L226.772,28.347 L226.772,14.173 z" fill="#FFFFFF"/>
      <path d="M226.772,14.173 L240.945,14.173 L240.945,28.347 L226.772,28.347 L226.772,14.173 z" fill-opacity="0" stroke="#000000" stroke-width="0.5"/>
    </g>
    <g>
      <path d="M240.945,14.173 L255.118,14.173 L255.118,28.347 L240.945,28.347 L240.945,14.173 z" fill="#FFFFFF"/>
      <path d="M240.945,14.173 L255.118,14.173 L255.118,28.347 L240.945,28.347 L240.945,14.173 z" fill-opacity="0" stroke="#000000" stroke-width="0.5"/>
    </g>
    <g>
      <path d="M255.118,14.173 L269.291,14.173 L269.291,28.347 L255.118,28.347 L255.118,14.173 z" fill="#FFFFFF"/>
      <path d="M255.118,14.173 L269.291,14.173 L269.291,28.347 L255.118,28.347 L255.118,14.173 z" fill-opacity="0" stroke="#000000" stroke-width="0.5"/>
    </g>
    <g>
      <path d="M269.291,14.173 L283.465,14.173 L283.465,28.347 L269.291,28.347 L269.291,14.173 z" fill="#F9D3E0"/>
      <path d="M269.291,14.173 L283.465,14.173 L283.465,28.347 L269.291,28.347 L269.291,14.173 z" fill-opacity="0" stroke="#000000" stroke-width="0.5"/>
    </g>
    <g>
      <path d="M283.465,14.173 L297.638,14.173 L297.638,28.347 L283.465,28.347 L283.465,14.173 z" fill="#F9D3E0"/>
      <path d="M283.465,14.173 L297.638,14.173 L297.638,28.347 L283.465,28.347 L283.465,14.173 z" fill-opacity="0" stroke="#000000" stroke-width="0.5"/>
    </g>
    <path d="M70.866,-0 L70.866,170.079" fill-opacity="0" stroke="#000000" stroke-width="1.25" stroke-dasharray="3.75,2.5"/>
    <path d="M269.291,-0 L269.291,170.079" fill-opacity="0" stroke="#000000" stroke-width="1.25" stroke-dasharray="3.75,2.5"/>
    <g>
      <path d="M14.173,42.52 L28.346,42.52 L28.346,56.693 L14.173,56.693 L14.173,42.52 z" fill="#FFFFFF"/>
      <path d="M14.173,42.52 L28.346,42.52 L28.346,56.693 L14.173,56.693 L14.173,42.52 z" fill-opacity="0" stroke="#000000" stroke-width="0.5"/>
    </g>
    <g>
      <path d="M14.173,56.693 L28.346,56.693 L28.346,70.866 L14.173,70.866 L14.173,56.693 z" fill="#FFFFFF"/>
      <path d="M14.173,56.693 L28.346,56.693 L28.346,70.866 L14.173,70.866 L14.173,56.693 z" fill-opacity="0" stroke="#000000" stroke-width="0.5"/>
    </g>
    <g>
      <path d="M14.173,70.866 L28.346,70.866 L28.346,85.04 L14.173,85.04 L14.173,70.866 z" fill="#FFFFFF"/>
      <path d="M14.173,70.866 L28.346,70.866 L28.346,85.04 L14.173,85.04 L14.173,70.866 z" fill-opacity="0" stroke="#000000" stroke-width="0.5"/>
    </g>
    <g>
      <path d="M14.173,85.04 L28.346,85.04 L28.346,99.213 L14.173,99.213 L14.173,85.04 z" fill="#FFFFFF"/>
      <path d="M14.173,85.04 L28.346,85.04 L28.346,99.213 L14.173,99.213 L14.173,85.04 z" fill-opacity="0" stroke="#000000" stroke-width="0.5"/>
    </g>
    <g>
      <path d="M14.173,99.213 L28.346,99.213 L28.346,113.386 L14.173,113.386 L14.173,99.213 z" fill="#FFFFFF"/>
      <path d="M14.173,99.213 L28.346,99.213 L28.346,113.386 L14.173,113.386 L14.173,99.213 z" fill-opacity="0" stroke="#000000" stroke-width="0.5"/>
    </g>
    <g>
      <path d="M14.173,113.386 L28.346,113.386 L28.346,127.559 L14.173,127.559 L14.173,113.386 z" fill="#FFFFFF"/>
      <path d="M14.173,113.386 L28.346,113.386 L28.346,127.559 L14.173,127.559 L14.173,113.386 z" fill-opacity="0" stroke="#000000" stroke-width="0.5"/>
    </g>
    <g>
      <path d="M14.173,127.559 L28.346,127.559 L28.346,141.733 L14.173,141.733 L14.173,127.559 z" fill="#FFFFFF"/>
      <path d="M14.173,127.559 L28.346,127.559 L28.346,141.733 L14.173,141.733 L14.173,127.559 z" fill-opacity="0" stroke="#000000" stroke-width="0.5"/>
    </g>
    <g>
      <path d="M14.173,141.733 L28.346,141.733 L28.346,155.906 L14.173,155.906 L14.173,141.733 z" fill="#FFFFFF"/>
      <path d="M14.173,141.733 L28.346,141.733 L28.346,155.906 L14.173,155.906 L14.173,141.733 z" fill-opacity="0" stroke="#000000" stroke-width="0.5"/>
    </g>
    <g>
      <path d="M297.638,42.52 L311.811,42.52 L311.811,56.693 L297.638,56.693 L297.638,42.52 z" fill="#FFFFFF"/>
      <path d="M297.638,42.52 L311.811,42.52 L311.811,56.693 L297.638,56.693 L297.638,42.52 z" fill-opacity="0" stroke="#000000" stroke-width="0.5"/>
    </g>
    <g>
      <path d="M297.638,56.693 L311.811,56.693 L311.811,70.866 L297.638,70.866 L297.638,56.693 z" fill="#FFFFFF"/>
      <path d="M297.638,56.693 L311.811,56.693 L311.811,70.866 L297.638,70.866 L297.638,56.693 z" fill-opacity="0" stroke="#000000" stroke-width="0.5"/>
    </g>
    <g>
      <path d="M297.638,70.866 L311.811,70.866 L311.811,85.04 L297.638,85.04 L297.638,70.866 z" fill="#FFFFFF"/>
      <path d="M297.638,70.866 L311.811,70.866 L311.811,85.04 L297.638,85.04 L297.638,70.866 z" fill-opacity="0" stroke="#000000" stroke-width="0.5"/>
    </g>
    <g>
      <path d="M297.638,85.04 L311.811,85.04 L311.811,99.213 L297.638,99.213 L297.638,85.04 z" fill="#FFFFFF"/>
      <path d="M297.638,85.04 L311.811,85.04 L311.811,99.213 L297.638,99.213 L297.638,85.04 z" fill-opacity="0" stroke="#000000" stroke-width="0.5"/>
    </g>
    <g>
      <path d="M297.638,99.213 L311.811,99.213 L311.811,113.386 L297.638,113.386 L297.638,99.213 z" fill="#FFFFFF"/>
      <path d="M297.638,99.213 L311.811,99.213 L311.811,113.386 L297.638,113.386 L297.638,99.213 z" fill-opacity="0" stroke="#000000" stroke-width="0.5"/>
    </g>
    <g>
      <path d="M297.638,113.386 L311.811,113.386 L311.811,127.559 L297.638,127.559 L297.638,113.386 z" fill="#FFFFFF"/>
      <path d="M297.638,113.386 L311.811,113.386 L311.811,127.559 L297.638,127.559 L297.638,113.386 z" fill-opacity="0" stroke="#000000" stroke-width="0.5"/>
    </g>
    <g>
      <path d="M297.638,127.559 L311.811,127.559 L311.811,141.733 L297.638,141.733 L297.638,127.559 z" fill="#FFFFFF"/>
      <path d="M297.638,127.559 L311.811,127.559 L311.811,141.733 L297.638,141.733 L297.638,127.559 z" fill-opacity="0" stroke="#000000" stroke-width="0.5"/>
    </g>
    <g>
      <path d="M297.638,141.733 L311.811,141.733 L311.811,155.906 L297.638,155.906 L297.638,141.733 z" fill="#FFFFFF"/>
      <path d="M297.638,141.733 L311.811,141.733 L311.811,155.906 L297.638,155.906 L297.638,141.733 z" fill-opacity="0" stroke="#000000" stroke-width="0.5"/>
    </g>
    <g>
      <path d="M297.638,14.173 L311.811,14.173 L311.811,28.347 L297.638,28.347 L297.638,14.173 z" fill="#F9D3E0"/>
      <path d="M297.638,14.173 L311.811,14.173 L311.811,28.347 L297.638,28.347 L297.638,14.173 z" fill-opacity="0" stroke="#000000" stroke-width="0.5"/>
    </g>
    <text transform="matrix(1, 0, 0, 1, 56.499, 6.5)">
      <tspan x="-13.979" y="3.5" font-family="Helvetica-Bold" font-size="10" fill="#000000">P- = 2</tspan>
    </text>
    <text transform="matrix(1, 0, 0, 1, 290.357, 6.5)">
      <tspan x="-15.234" y="3.5" font-family="Helvetica-Bold" font-size="10" fill="#000000">P+ = 3</tspan>
    </text>
  </g>
  <g id="Layer_2">
    <g>
      <path d="M42.52,42.52 L56.693,42.52 L56.693,56.693 L42.52,56.693 L42.52,42.52 z" fill="#D7D4D8"/>
      <path d="M42.52,42.52 L56.693,42.52 L56.693,56.693 L42.52,56.693 L42.52,42.52 z" fill-opacity="0" stroke="#000000" stroke-width="1"/>
    </g>
    <g>
      <path d="M56.693,42.52 L70.866,42.52 L70.866,56.693 L56.693,56.693 L56.693,42.52 z" fill="#D7D4D8"/>
      <path d="M56.693,42.52 L70.866,42.52 L70.866,56.693 L56.693,56.693 L56.693,42.52 z" fill-opacity="0" stroke="#000000" stroke-width="1"/>
    </g>
    <g>
      <path d="M70.866,42.52 L85.039,42.52 L85.039,56.693 L70.866,56.693 L70.866,42.52 z" fill="#D7D4D8"/>
      <path d="M70.866,42.52 L85.039,42.52 L85.039,56.693 L70.866,56.693 L70.866,42.52 z" fill-opacity="0" stroke="#000000" stroke-width="1"/>
    </g>
    <g>
      <path d="M85.039,42.52 L99.213,42.52 L99.213,56.693 L85.039,56.693 L85.039,42.52 z" fill="#D7D4D8"/>
      <path d="M85.039,42.52 L99.213,42.52 L99.213,56.693 L85.039,56.693 L85.039,42.52 z" fill-opacity="0" stroke="#000000" stroke-width="1"/>
    </g>
  </g>
  <g id="Layer_3">
    <text transform="matrix(1, 0, 0, 1, 50.106, 49.02)">
      <tspan x="-3.281" y="3.5" font-family="Helvetica-Bold" font-size="10" fill="#000000">1</tspan>
    </text>
    <text transform="matrix(1, 0, 0, 1, 64.28, 49.02)">
      <tspan x="-3.281" y="3.5" font-family="Helvetica-Bold" font-size="10" fill="#000000">2</tspan>
    </text>
    <text transform="matrix(1, 0, 0, 1, 78.453, 49.02)">
      <tspan x="-3.281" y="3.5" font-family="Helvetica-Bold" font-size="10" fill="#000000">3</tspan>
    </text>
    <text transform="matrix(1, 0, 0, 1, 92.626, 49.02)">
      <tspan x="-3.281" y="3.5" font-family="Helvetica-Bold" font-size="10" fill="#000000">4</tspan>
    </text>
    <g>
      <path d="M70.866,56.693 L85.039,56.693 L85.039,70.866 L70.866,70.866 L70.866,56.693 z" fill="#D7D4D8"/>
      <path d="M70.866,56.693 L85.039,56.693 L85.039,70.866 L70.866,70.866 L70.866,56.693 z" fill-opacity="0" stroke="#000000" stroke-width="1"/>
    </g>
    <g>
      <path d="M85.039,56.693 L99.213,56.693 L99.213,70.866 L85.039,70.866 L85.039,56.693 z" fill="#D7D4D8"/>
      <path d="M85.039,56.693 L99.213,56.693 L99.213,70.866 L85.039,70.866 L85.039,56.693 z" fill-opacity="0" stroke="#000000" stroke-width="1"/>
    </g>
    <g>
      <path d="M99.213,56.693 L113.386,56.693 L113.386,70.866 L99.213,70.866 L99.213,56.693 z" fill="#D7D4D8"/>
      <path d="M99.213,56.693 L113.386,56.693 L113.386,70.866 L99.213,70.866 L99.213,56.693 z" fill-opacity="0" stroke="#000000" stroke-width="1"/>
    </g>
    <g>
      <path d="M113.386,56.693 L127.559,56.693 L127.559,70.866 L113.386,70.866 L113.386,56.693 z" fill="#D7D4D8"/>
      <path d="M113.386,56.693 L127.559,56.693 L127.559,70.866 L113.386,70.866 L113.386,56.693 z" fill-opacity="0" stroke="#000000" stroke-width="1"/>
    </g>
    <text transform="matrix(1, 0, 0, 1, 78.453, 63.193)">
      <tspan x="-3.281" y="3.5" font-family="Helvetica-Bold" font-size="10" fill="#000000">1</tspan>
    </text>
    <text transform="matrix(1, 0, 0, 1, 92.626, 63.193)">
      <tspan x="-3.281" y="3.5" font-family="Helvetica-Bold" font-size="10" fill="#000000">2</tspan>
    </text>
    <text transform="matrix(1, 0, 0, 1, 106.799, 63.193)">
      <tspan x="-3.281" y="3.5" font-family="Helvetica-Bold" font-size="10" fill="#000000">3</tspan>
    </text>
    <text transform="matrix(1, 0, 0, 1, 120.972, 63.193)">
      <tspan x="-3.281" y="3.5" font-family="Helvetica-Bold" font-size="10" fill="#000000">4</tspan>
    </text>
    <g>
      <path d="M99.213,70.866 L113.386,70.866 L113.386,85.04 L99.213,85.04 L99.213,70.866 z" fill="#D7D4D8"/>
      <path d="M99.213,70.866 L113.386,70.866 L113.386,85.04 L99.213,85.04 L99.213,70.866 z" fill-opacity="0" stroke="#000000" stroke-width="1"/>
    </g>
    <g>
      <path d="M113.386,70.866 L127.559,70.866 L127.559,85.04 L113.386,85.04 L113.386,70.866 z" fill="#D7D4D8"/>
      <path d="M113.386,70.866 L127.559,70.866 L127.559,85.04 L113.386,85.04 L113.386,70.866 z" fill-opacity="0" stroke="#000000" stroke-width="1"/>
    </g>
    <g>
      <path d="M127.559,70.866 L141.732,70.866 L141.732,85.04 L127.559,85.04 L127.559,70.866 z" fill="#D7D4D8"/>
      <path d="M127.559,70.866 L141.732,70.866 L141.732,85.04 L127.559,85.04 L127.559,70.866 z" fill-opacity="0" stroke="#000000" stroke-width="1"/>
    </g>
    <g>
      <path d="M141.732,70.866 L155.906,70.866 L155.906,85.04 L141.732,85.04 L141.732,70.866 z" fill="#D7D4D8"/>
      <path d="M141.732,70.866 L155.906,70.866 L155.906,85.04 L141.732,85.04 L141.732,70.866 z" fill-opacity="0" stroke="#000000" stroke-width="1"/>
    </g>
    <text transform="matrix(1, 0, 0, 1, 106.799, 77.366)">
      <tspan x="-3.281" y="3.5" font-family="Helvetica-Bold" font-size="10" fill="#000000">1</tspan>
    </text>
    <text transform="matrix(1, 0, 0, 1, 120.972, 77.366)">
      <tspan x="-3.281" y="3.5" font-family="Helvetica-Bold" font-size="10" fill="#000000">2</tspan>
    </text>
    <text transform="matrix(1, 0, 0, 1, 135.146, 77.366)">
      <tspan x="-3.281" y="3.5" font-family="Helvetica-Bold" font-size="10" fill="#000000">3</tspan>
    </text>
    <text transform="matrix(1, 0, 0, 1, 149.319, 77.366)">
      <tspan x="-3.281" y="3.5" font-family="Helvetica-Bold" font-size="10" fill="#000000">4</tspan>
    </text>
    <g>
      <path d="M127.559,85.04 L141.732,85.04 L141.732,99.213 L127.559,99.213 L127.559,85.04 z" fill="#D7D4D8"/>
      <path d="M127.559,85.04 L141.732,85.04 L141.732,99.213 L127.559,99.213 L127.559,85.04 z" fill-opacity="0" stroke="#000000" stroke-width="1"/>
    </g>
    <g>
      <path d="M141.732,85.04 L155.906,85.04 L155.906,99.213 L141.732,99.213 L141.732,85.04 z" fill="#D7D4D8"/>
      <path d="M141.732,85.04 L155.906,85.04 L155.906,99.213 L141.732,99.213 L141.732,85.04 z" fill-opacity="0" stroke="#000000" stroke-width="1"/>
    </g>
    <g>
      <path d="M155.906,85.04 L170.079,85.04 L170.079,99.213 L155.906,99.213 L155.906,85.04 z" fill="#D7D4D8"/>
      <path d="M155.906,85.04 L170.079,85.04 L170.079,99.213 L155.906,99.213 L155.906,85.04 z" fill-opacity="0" stroke="#000000" stroke-width="1"/>
    </g>
    <g>
      <path d="M170.079,85.04 L184.252,85.04 L184.252,99.213 L170.079,99.213 L170.079,85.04 z" fill="#D7D4D8"/>
      <path d="M170.079,85.04 L184.252,85.04 L184.252,99.213 L170.079,99.213 L170.079,85.04 z" fill-opacity="0" stroke="#000000" stroke-width="1"/>
    </g>
    <text transform="matrix(1, 0, 0, 1, 135.146, 91.539)">
      <tspan x="-3.281" y="3.5" font-family="Helvetica-Bold" font-size="10" fill="#000000">1</tspan>
    </text>
    <text transform="matrix(1, 0, 0, 1, 149.319, 91.539)">
      <tspan x="-3.281" y="3.5" font-family="Helvetica-Bold" font-size="10" fill="#000000">2</tspan>
    </text>
    <text transform="matrix(1, 0, 0, 1, 163.492, 91.539)">
      <tspan x="-3.281" y="3.5" font-family="Helvetica-Bold" font-size="10" fill="#000000">3</tspan>
    </text>
    <text transform="matrix(1, 0, 0, 1, 177.665, 91.539)">
      <tspan x="-3.281" y="3.5" font-family="Helvetica-Bold" font-size="10" fill="#000000">4</tspan>
    </text>
    <g>
      <path d="M155.906,99.213 L170.079,99.213 L170.079,113.386 L155.906,113.386 L155.906,99.213 z" fill="#D7D4D8"/>
      <path d="M155.906,99.213 L170.079,99.213 L170.079,113.386 L155.906,113.386 L155.906,99.213 z" fill-opacity="0" stroke="#000000" stroke-width="1"/>
    </g>
    <g>
      <path d="M170.079,99.213 L184.252,99.213 L184.252,113.386 L170.079,113.386 L170.079,99.213 z" fill="#D7D4D8"/>
      <path d="M170.079,99.213 L184.252,99.213 L184.252,113.386 L170.079,113.386 L170.079,99.213 z" fill-opacity="0" stroke="#000000" stroke-width="1"/>
    </g>
    <g>
      <path d="M184.252,99.213 L198.425,99.213 L198.425,113.386 L184.252,113.386 L184.252,99.213 z" fill="#D7D4D8"/>
      <path d="M184.252,99.213 L198.425,99.213 L198.425,113.386 L184.252,113.386 L184.252,99.213 z" fill-opacity="0" stroke="#000000" stroke-width="1"/>
    </g>
    <g>
      <path d="M198.425,99.213 L212.598,99.213 L212.598,113.386 L198.425,113.386 L198.425,99.213 z" fill="#D7D4D8"/>
      <path d="M198.425,99.213 L212.598,99.213 L212.598,113.386 L198.425,113.386 L198.425,99.213 z" fill-opacity="0" stroke="#000000" stroke-width="1"/>
    </g>
    <text transform="matrix(1, 0, 0, 1, 163.492, 105.712)">
      <tspan x="-3.281" y="3.5" font-family="Helvetica-Bold" font-size="10" fill="#000000">1</tspan>
    </text>
    <text transform="matrix(1, 0, 0, 1, 177.665, 105.712)">
      <tspan x="-3.281" y="3.5" font-family="Helvetica-Bold" font-size="10" fill="#000000">2</tspan>
    </text>
    <g>
      <path d="M184.252,113.386 L198.425,113.386 L198.425,127.559 L184.252,127.559 L184.252,113.386 z" fill="#86CAFF"/>
      <g>
        <path d="M184.252,113.386 L198.425,113.386 L198.425,127.559 L184.252,127.559 L184.252,113.386 z" fill="#86CAFF"/>
        <path d="M184.252,113.386 L198.425,113.386 L198.425,127.559 L184.252,127.559 L184.252,113.386 z" fill-opacity="0" stroke="#000000" stroke-width="1"/>
      </g>
    </g>
    <g>
      <path d="M198.425,113.386 L212.598,113.386 L212.598,127.559 L198.425,127.559 L198.425,113.386 z" fill="#86CAFF"/>
      <g>
        <path d="M198.425,113.386 L212.598,113.386 L212.598,127.559 L198.425,127.559 L198.425,113.386 z" fill="#86CAFF"/>
        <path d="M198.425,113.386 L212.598,113.386 L212.598,127.559 L198.425,127.559 L198.425,113.386 z" fill-opacity="0" stroke="#000000" stroke-width="1"/>
      </g>
      <path d="M212.598,113.386 L226.772,113.386 L226.772,127.559 L212.598,127.559 L212.598,113.386 z" fill="#86CAFF"/>
      <g>
        <path d="M212.598,113.386 L226.772,113.386 L226.772,127.559 L212.598,127.559 L212.598,113.386 z" fill="#87CBFF"/>
        <path d="M212.598,113.386 L226.772,113.386 L226.772,127.559 L212.598,127.559 L212.598,113.386 z" fill-opacity="0" stroke="#000000" stroke-width="1"/>
      </g>
      <path d="M226.772,113.386 L240.945,113.386 L240.945,127.559 L226.772,127.559 L226.772,113.386 z" fill="#86CAFF"/>
      <g>
        <path d="M226.772,113.386 L240.945,113.386 L240.945,127.559 L226.772,127.559 L226.772,113.386 z" fill="#86CAFF"/>
        <path d="M226.772,113.386 L240.945,113.386 L240.945,127.559 L226.772,127.559 L226.772,113.386 z" fill-opacity="0" stroke="#000000" stroke-width="1"/>
      </g>
    </g>
    <text transform="matrix(1, 0, 0, 1, 191.839, 119.886)">
      <tspan x="-3.281" y="3.5" font-family="Helvetica-Bold" font-size="10" fill="#000000">1</tspan>
    </text>
    <text transform="matrix(1, 0, 0, 1, 206.012, 119.886)">
      <tspan x="-3.281" y="3.5" font-family="Helvetica-Bold" font-size="10" fill="#000000">2</tspan>
    </text>
    <text transform="matrix(1, 0, 0, 1, 219.685, 120.472)">
      <tspan x="-2.781" y="2.914" font-family="Helvetica-Bold" font-size="10" fill="#000000">3</tspan>
    </text>
    <text transform="matrix(1, 0, 0, 1, 234.358, 119.886)">
      <tspan x="-3.281" y="3.5" font-family="Helvetica-Bold" font-size="10" fill="#000000">4</tspan>
    </text>
    <g>
      <path d="M212.598,127.559 L226.772,127.559 L226.772,141.733 L212.598,141.733 L212.598,127.559 z" fill="#D7D4D8"/>
      <path d="M212.598,127.559 L226.772,127.559 L226.772,141.733 L212.598,141.733 L212.598,127.559 z" fill-opacity="0" stroke="#000000" stroke-width="1"/>
    </g>
    <g>
      <path d="M226.772,127.559 L240.945,127.559 L240.945,141.733 L226.772,141.733 L226.772,127.559 z" fill="#D7D4D8"/>
      <path d="M226.772,127.559 L240.945,127.559 L240.945,141.733 L226.772,141.733 L226.772,127.559 z" fill-opacity="0" stroke="#000000" stroke-width="1"/>
    </g>
    <g>
      <path d="M240.945,127.559 L255.118,127.559 L255.118,141.733 L240.945,141.733 L240.945,127.559 z" fill="#D7D4D8"/>
      <path d="M240.945,127.559 L255.118,127.559 L255.118,141.733 L240.945,141.733 L240.945,127.559 z" fill-opacity="0" stroke="#000000" stroke-width="1"/>
    </g>
    <g>
      <path d="M255.118,127.559 L269.291,127.559 L269.291,141.733 L255.118,141.733 L255.118,127.559 z" fill="#D7D4D8"/>
      <path d="M255.118,127.559 L269.291,127.559 L269.291,141.733 L255.118,141.733 L255.118,127.559 z" fill-opacity="0" stroke="#000000" stroke-width="1"/>
    </g>
    <text transform="matrix(1, 0, 0, 1, 220.185, 134.059)">
      <tspan x="-3.281" y="3.5" font-family="Helvetica-Bold" font-size="10" fill="#000000">1</tspan>
    </text>
    <text transform="matrix(1, 0, 0, 1, 234.358, 134.059)">
      <tspan x="-3.281" y="3.5" font-family="Helvetica-Bold" font-size="10" fill="#000000">2</tspan>
    </text>
    <text transform="matrix(1, 0, 0, 1, 248.532, 134.059)">
      <tspan x="-3.281" y="3.5" font-family="Helvetica-Bold" font-size="10" fill="#000000">3</tspan>
    </text>
    <text transform="matrix(1, 0, 0, 1, 262.705, 134.059)">
      <tspan x="-3.281" y="3.5" font-family="Helvetica-Bold" font-size="10" fill="#000000">4</tspan>
    </text>
    <g>
      <path d="M240.945,141.733 L255.118,141.733 L255.118,155.906 L240.945,155.906 L240.945,141.733 z" fill="#D7D4D8"/>
      <path d="M240.945,141.733 L255.118,141.733 L255.118,155.906 L240.945,155.906 L240.945,141.733 z" fill-opacity="0" stroke="#000000" stroke-width="1"/>
    </g>
    <g>
      <path d="M255.118,141.733 L269.291,141.733 L269.291,155.906 L255.118,155.906 L255.118,141.733 z" fill="#D7D4D8"/>
      <path d="M255.118,141.733 L269.291,141.733 L269.291,155.906 L255.118,155.906 L255.118,141.733 z" fill-opacity="0" stroke="#000000" stroke-width="1"/>
    </g>
    <g>
      <path d="M269.291,141.733 L283.465,141.733 L283.465,155.906 L269.291,155.906 L269.291,141.733 z" fill="#D7D4D8"/>
      <path d="M269.291,141.733 L283.465,141.733 L283.465,155.906 L269.291,155.906 L269.291,141.733 z" fill-opacity="0" stroke="#000000" stroke-width="1"/>
    </g>
    <g>
      <path d="M283.465,141.733 L297.638,141.733 L297.638,155.906 L283.465,155.906 L283.465,141.733 z" fill="#D7D4D8"/>
      <path d="M283.465,141.733 L297.638,141.733 L297.638,155.906 L283.465,155.906 L283.465,141.733 z" fill-opacity="0" stroke="#000000" stroke-width="1"/>
    </g>
    <text transform="matrix(1, 0, 0, 1, 248.532, 148.232)">
      <tspan x="-3.281" y="3.5" font-family="Helvetica-Bold" font-size="10" fill="#000000">1</tspan>
    </text>
    <text transform="matrix(1, 0, 0, 1, 262.705, 148.232)">
      <tspan x="-3.281" y="3.5" font-family="Helvetica-Bold" font-size="10" fill="#000000">2</tspan>
    </text>
    <text transform="matrix(1, 0, 0, 1, 276.878, 148.232)">
      <tspan x="-3.281" y="3.5" font-family="Helvetica-Bold" font-size="10" fill="#000000">3</tspan>
    </text>
    <text transform="matrix(1, 0, 0, 1, 291.051, 148.232)">
      <tspan x="-3.281" y="3.5" font-family="Helvetica-Bold" font-size="10" fill="#000000">4</tspan>
    </text>
    <text transform="matrix(1, 0, 0, 1, 170.579, 6.5)">
      <tspan x="-3.281" y="3.5" font-family="Helvetica-Bold" font-size="10" fill="#000000">x</tspan>
    </text>
    <text transform="matrix(1, 0, 0, 1, 7.086, 98.626)">
      <tspan x="-2.781" y="3.5" font-family="Helvetica-Bold" font-size="10" fill="#000000">y</tspan>
    </text>
  </g>
  <g id="Layer_4">
    <g>
      <path d="M184.252,120.472 L30.26,120.472" fill-opacity="0" stroke="#000000" stroke-width="1"/>
      <path d="M30.26,117.472 L22.26,120.472 L30.26,123.472 z" fill="#000000" fill-opacity="1" stroke="#000000" stroke-width="1" stroke-opacity="1"/>
    </g>
    <g>
      <path d="M191.339,21.26 L191.339,104.386" fill-opacity="0" stroke="#000000" stroke-width="1"/>
      <path d="M188.339,104.386 L191.339,112.386 L194.339,104.386 z" fill="#000000" fill-opacity="1" stroke="#000000" stroke-width="1" stroke-opacity="1"/>
    </g>
    <g>
      <path d="M205.511,21.26 L205.511,104.386" fill-opacity="0" stroke="#000000" stroke-width="1"/>
      <path d="M202.511,104.386 L205.511,112.386 L208.511,104.386 z" fill="#000000" fill-opacity="1" stroke="#000000" stroke-width="1" stroke-opacity="1"/>
    </g>
    <g>
      <path d="M219.685,21.26 L219.685,104.386" fill-opacity="0" stroke="#000000" stroke-width="1"/>
      <path d="M216.685,104.386 L219.685,112.386 L222.685,104.386 z" fill="#000000" fill-opacity="1" stroke="#000000" stroke-width="1" stroke-opacity="1"/>
    </g>
    <g>
      <path d="M233.858,21.26 L233.858,104.386" fill-opacity="0" stroke="#000000" stroke-width="1"/>
      <path d="M230.858,104.386 L233.858,112.386 L236.858,104.386 z" fill="#000000" fill-opacity="1" stroke="#000000" stroke-width="1" stroke-opacity="1"/>
    </g>
  </g>
</svg>
